<svg width="752" height="318" viewBox="0 0 752 318" fill="none" xmlns="http://www.w3.org/2000/svg">
<g clip-path="url(#clip0_117_40)">
<path d="M356.185 162.654L369.362 167.047L360.577 175.832L356.185 162.654Z" fill="white" fill-opacity="0.09"/>
<path d="M400.412 206.881L417.144 212.458L405.989 223.613L400.412 206.881Z" fill="white" fill-opacity="0.09"/>
<path d="M447.008 253.478L460.186 257.87L451.401 266.655L447.008 253.478Z" fill="white" fill-opacity="0.09"/>
<path d="M355 70.6464L371.732 76.2237L360.577 87.3785L355 70.6464Z" fill="white" fill-opacity="0.09"/>
<path d="M398.027 113.674L421.912 121.635L405.989 137.558L398.027 113.674Z" fill="white" fill-opacity="0.09"/>
<path d="M441.069 156.716L472.063 167.047L451.401 187.709L441.069 156.716Z" fill="white" fill-opacity="0.09"/>
<path d="M488.851 204.497L512.735 212.458L496.812 228.381L488.851 204.497Z" fill="white" fill-opacity="0.09"/>
<path d="M536.646 252.293L553.378 257.87L542.224 269.025L536.646 252.293Z" fill="white" fill-opacity="0.09"/>
<path d="M356.185 -18.992L369.362 -14.5994L360.577 -5.81436L356.185 -18.992Z" fill="white" fill-opacity="0.09"/>
<path d="M398.027 22.8507L421.912 30.8121L405.989 46.7351L398.027 22.8507Z" fill="white" fill-opacity="0.09"/>
<path d="M439.87 64.6933L474.461 76.2237L451.401 99.2846L439.87 64.6933Z" fill="white" fill-opacity="0.09"/>
<path d="M481.713 106.536L527.011 121.635L496.812 151.834L481.713 106.536Z" fill="white" fill-opacity="0.09"/>
<path d="M530.693 155.517L565.285 167.047L542.224 190.108L530.693 155.517Z" fill="white" fill-opacity="0.09"/>
<path d="M579.674 204.497L603.558 212.458L587.635 228.381L579.674 204.497Z" fill="white" fill-opacity="0.09"/>
<path d="M628.654 253.478L641.832 257.87L633.047 266.655L628.654 253.478Z" fill="white" fill-opacity="0.09"/>
<path d="M400.412 -65.5884L417.144 -60.011L405.989 -48.8563L400.412 -65.5884Z" fill="white" fill-opacity="0.09"/>
<path d="M441.069 -24.9306L472.063 -14.5994L451.401 6.06283L441.069 -24.9306Z" fill="white" fill-opacity="0.09"/>
<path d="M481.713 15.7128L527.011 30.8121L496.812 61.0109L481.713 15.7128Z" fill="white" fill-opacity="0.09"/>
<path d="M522.371 56.3706L581.93 76.2237L542.224 115.93L522.371 56.3706Z" fill="white" fill-opacity="0.09"/>
<path d="M572.536 106.536L617.834 121.635L587.635 151.834L572.536 106.536Z" fill="white" fill-opacity="0.09"/>
<path d="M622.716 156.716L653.709 167.047L633.047 187.709L622.716 156.716Z" fill="white" fill-opacity="0.09"/>
<path d="M672.881 206.881L689.613 212.459L678.458 223.613L672.881 206.881Z" fill="white" fill-opacity="0.09"/>
<path d="M447.008 -109.815L460.186 -105.423L451.401 -96.6375L447.008 -109.815Z" fill="white" fill-opacity="0.09"/>
<path d="M488.851 -67.9725L512.735 -60.011L496.812 -44.0881L488.851 -67.9725Z" fill="white" fill-opacity="0.09"/>
<path d="M530.693 -26.1299L565.285 -14.5995L542.224 8.46138L530.693 -26.1299Z" fill="white" fill-opacity="0.09"/>
<path d="M572.536 15.7128L617.834 30.8121L587.635 61.0109L572.536 15.7128Z" fill="white" fill-opacity="0.09"/>
<path d="M621.517 64.6933L656.108 76.2237L633.047 99.2846L621.517 64.6933Z" fill="white" fill-opacity="0.09"/>
<path d="M670.497 113.674L694.381 121.635L678.458 137.558L670.497 113.674Z" fill="white" fill-opacity="0.09"/>
<path d="M719.478 162.654L732.655 167.047L723.87 175.832L719.478 162.654Z" fill="white" fill-opacity="0.09"/>
<path d="M536.646 -111L553.378 -105.423L542.224 -94.2679L536.646 -111Z" fill="white" fill-opacity="0.09"/>
<path d="M579.674 -67.9725L603.558 -60.011L587.635 -44.0881L579.674 -67.9725Z" fill="white" fill-opacity="0.09"/>
<path d="M622.716 -24.9306L653.709 -14.5995L633.047 6.06282L622.716 -24.9306Z" fill="white" fill-opacity="0.09"/>
<path d="M670.497 22.8507L694.381 30.8121L678.458 46.7351L670.497 22.8507Z" fill="white" fill-opacity="0.09"/>
<path d="M718.293 70.6464L735.025 76.2237L723.87 87.3785L718.293 70.6464Z" fill="white" fill-opacity="0.09"/>
<path d="M628.654 -109.815L641.832 -105.423L633.047 -96.6375L628.654 -109.815Z" fill="white" fill-opacity="0.09"/>
<path d="M672.881 -65.5884L689.613 -60.011L678.458 -48.8563L672.881 -65.5884Z" fill="white" fill-opacity="0.09"/>
<path d="M719.478 -18.992L732.655 -14.5995L723.87 -5.81438L719.478 -18.992Z" fill="white" fill-opacity="0.09"/>
</g>
<defs>
<clipPath id="clip0_117_40">
<rect width="752" height="318" fill="white"/>
</clipPath>
</defs>
</svg>
