<svg width="748" height="319" viewBox="0 0 748 319" fill="none" xmlns="http://www.w3.org/2000/svg">
<g clip-path="url(#clip0_117_39)">
<path d="M431.697 214.814L431.685 168.344L390.596 146.602L434.894 132.208L442.841 86.5409L470.054 124.066L516.169 117.52L488.821 155.112L509.238 196.856L465.051 182.447L431.697 214.814Z" fill="white" fill-opacity="0.09"/>
<path d="M632.57 364.245L632.549 280.25L558.28 240.951L638.348 214.935L652.712 132.39L701.901 200.217L785.254 188.386L735.822 256.333L772.727 331.787L692.858 305.742L632.57 364.245Z" fill="white" fill-opacity="0.09"/>
<path d="M530.123 390.8L503.709 336.796L539.089 288.165L479.431 296.632L444.225 248.087L433.945 307.166L376.638 325.787L429.794 353.914L429.81 414.031L472.959 372.159L530.123 390.8Z" fill="white" fill-opacity="0.09"/>
</g>
<defs>
<clipPath id="clip0_117_39">
<rect width="748" height="319" fill="white"/>
</clipPath>
</defs>
</svg>
