<svg width="494" height="328" viewBox="0 0 494 328" fill="none" xmlns="http://www.w3.org/2000/svg">
<g clip-path="url(#clip0_86_6)">
<path d="M432.261 -49C390.143 -49 356 -36.2865 356 -20.6036C356 -4.9207 390.143 7.7929 432.261 7.7929C455.865 7.7929 475 2.4111 475 -4.2277C475 -10.8665 455.865 -16.2483 432.261 -16.2483C390.143 -16.2483 356 -3.5348 356 12.1481C356 27.8311 390.143 40.545 432.261 40.545C455.865 40.545 475 35.163 475 28.524C475 21.8852 455.865 16.5034 432.261 16.5034C390.143 16.5034 356 29.295 356 45.074C356 60.853 390.143 73.645 432.261 73.645C455.865 73.645 475 68.263 475 61.624C475 54.985 455.865 49.604 432.261 49.604C390.143 49.604 356 62.317 356 78C356 93.683 390.143 106.396 432.261 106.396C455.865 106.396 475 101.015 475 94.376C475 87.737 455.865 82.355 432.261 82.355C390.143 82.355 356 95.069 356 110.752C356 126.435 390.143 139.148 432.261 139.148C455.865 139.148 475 133.766 475 127.128C475 120.489 455.865 115.107 432.261 115.107C390.143 115.107 356 127.821 356 143.503C356 159.186 390.143 171.9 432.261 171.9C455.865 171.9 475 166.518 475 159.879C475 153.241 455.865 147.859 432.261 147.859C390.143 147.859 356 160.65 356 176.429C356 192.208 390.143 205 432.261 205" stroke="#0F1D40" stroke-opacity="0.1" stroke-linecap="round"/>
<mask id="path-2-outside-1_86_6" maskUnits="userSpaceOnUse" x="-243.521" y="249.046" width="591.191" height="97.496" fill="black">
<rect fill="white" x="-243.521" y="249.046" width="591.191" height="97.496"/>
<path d="M-241.427 343.587L-197.038 252.364H-170.922L-158.703 343.587H-176.715L-187.744 263.134H-184.399L-223.415 343.587H-241.427ZM-221.094 324.582L-218.256 308.492H-169.368L-172.206 324.582H-221.094ZM-117.472 345.488C-124.934 345.488 -131.235 344.009 -136.374 341.053C-141.506 338.055 -145.182 333.852 -147.403 328.447C-149.623 323.041 -150.089 316.685 -148.801 309.379L-138.77 252.491L-120.993 252.364L-131.024 309.252C-131.553 312.25 -131.519 314.974 -130.921 317.424C-130.324 319.873 -129.281 321.985 -127.793 323.759C-126.262 325.533 -124.381 326.905 -122.151 327.877C-119.87 328.806 -117.357 329.27 -114.613 329.27C-111.782 329.27 -109.081 328.785 -106.508 327.813C-103.892 326.842 -101.528 325.469 -99.4137 323.696C-97.2998 321.922 -95.5338 319.81 -94.1155 317.361C-92.6544 314.911 -91.6632 312.208 -91.1419 309.252L-81.1111 252.364H-63.3571L-73.4102 309.379C-74.6985 316.685 -77.4059 323.041 -81.5325 328.447C-85.6592 333.852 -90.8172 338.055 -97.0066 341.053C-103.189 344.009 -110.011 345.488 -117.472 345.488ZM-66.6301 343.587L-50.5451 252.364H-20.569C-19.84 252.364 -18.3427 252.386 -16.0773 252.428C-13.8119 252.47 -11.6509 252.618 -9.59422 252.871C-2.28875 253.758 3.58614 256.313 8.03046 260.536C12.4748 264.76 15.4744 270.123 17.0293 276.627C18.5842 283.131 18.6803 290.247 17.3175 297.976C15.9547 305.704 13.3491 312.821 9.5006 319.324C5.65209 325.828 0.761004 331.192 -5.17266 335.415C-11.1063 339.638 -17.8823 342.193 -25.5005 343.08C-27.6465 343.334 -29.8597 343.482 -32.14 343.524C-34.4203 343.566 -35.925 343.587 -36.654 343.587H-66.6301ZM-46.0165 327.37H-33.7944C-32.6366 327.37 -31.0676 327.349 -29.0875 327.306C-27.0999 327.222 -25.2867 327.032 -23.6478 326.736C-19.4752 325.934 -15.8669 324.076 -12.8229 321.162C-9.73606 318.247 -7.23107 314.742 -5.30798 310.646C-3.342 306.549 -1.9755 302.326 -1.20848 297.976C-0.404231 293.415 -0.2842 289.086 -0.848389 284.989C-1.3697 280.893 -2.66741 277.43 -4.74153 274.6C-6.81565 271.77 -9.73692 269.976 -13.5053 269.215C-15.0325 268.877 -16.7787 268.687 -18.7439 268.645C-20.7091 268.603 -22.2707 268.582 -23.4286 268.582H-35.6506L-46.0165 327.37ZM20.8487 343.587L36.9337 252.364H54.4305L38.3455 343.587H20.8487ZM73.9692 343.587L87.217 268.455H58.0128L60.85 252.364L136.755 252.364L133.918 268.455H104.714L91.4659 343.587H73.9692ZM127.148 343.587L143.233 252.364H160.73L144.645 343.587H127.148ZM158.783 343.587L174.868 252.364H192.623L222.167 313.18L232.891 252.364H250.645L234.56 343.587H216.806L187.261 282.772L176.538 343.587H158.783ZM285.624 345.488C279.791 345.488 274.416 344.474 269.499 342.447C264.589 340.377 260.451 337.337 257.085 333.325C253.761 329.312 251.441 324.35 250.125 318.438C248.852 312.525 248.896 305.704 250.259 297.976C252.039 287.882 255.502 279.309 260.648 272.256C265.844 265.161 272.072 259.755 279.332 256.039C286.634 252.322 294.316 250.464 302.379 250.464C314.301 250.464 323.19 253.188 329.048 258.636C334.906 264.084 338.114 271.792 338.673 281.758L320.343 284.292C319.609 278.971 317.613 274.727 314.355 271.559C311.147 268.35 306.588 266.724 300.677 266.681C294.817 266.597 289.708 267.843 285.352 270.419C280.995 272.995 277.413 276.648 274.606 281.378C271.843 286.108 269.902 291.641 268.785 297.976C267.668 304.311 267.665 309.801 268.776 314.447C269.929 319.092 272.23 322.703 275.678 325.279C279.126 327.855 283.781 329.186 289.641 329.27C293.614 329.355 297.336 328.679 300.805 327.243C304.318 325.807 307.461 323.548 310.234 320.465C313.008 317.382 315.291 313.433 317.083 308.618H302.417L304.762 295.315H338.084C338.072 295.864 337.966 296.836 337.763 298.229C337.56 299.623 337.44 300.425 337.403 300.636C335.861 309.379 332.693 317.128 327.9 323.886C323.106 330.643 317.09 335.943 309.851 339.786C302.619 343.587 294.543 345.488 285.624 345.488Z"/>
</mask>
<path d="M-241.427 343.587L-242.332 343.299L-242.952 344.572H-241.6L-241.427 343.587ZM-197.038 252.364L-196.865 251.38H-197.605L-197.944 252.077L-197.038 252.364ZM-170.922 252.364L-169.915 252.077L-170.008 251.38H-170.748L-170.922 252.364ZM-158.703 343.587L-158.877 344.572H-157.526L-157.696 343.299L-158.703 343.587ZM-176.715 343.587L-177.721 343.878L-177.626 344.572H-176.888L-176.715 343.587ZM-187.744 263.134L-187.571 262.149H-188.926L-188.751 263.424L-187.744 263.134ZM-184.399 263.134L-183.493 263.42L-182.877 262.149H-184.226L-184.399 263.134ZM-223.415 343.587L-223.589 344.572H-222.848L-222.509 343.874L-223.415 343.587ZM-221.094 324.582H-222.094L-222.267 325.567H-221.267L-221.094 324.582ZM-218.256 308.492L-218.083 307.507H-219.083L-219.256 308.492H-218.256ZM-169.368 308.492H-168.368L-168.195 307.507H-169.195L-169.368 308.492ZM-172.206 324.582L-172.379 325.567H-171.379L-171.206 324.582H-172.206ZM-241.427 343.587L-240.521 343.875L-196.133 252.652L-197.038 252.364L-197.944 252.077L-242.332 343.299L-241.427 343.587ZM-197.038 252.364L-197.212 253.349H-171.095L-170.922 252.364L-170.748 251.38H-196.865L-197.038 252.364ZM-170.922 252.364L-171.929 252.652L-159.71 343.875L-158.703 343.587L-157.696 343.299L-169.915 252.077L-170.922 252.364ZM-158.703 343.587L-158.53 342.602H-176.541L-176.715 343.587L-176.888 344.572H-158.877L-158.703 343.587ZM-176.715 343.587L-175.708 343.297L-186.738 262.843L-187.744 263.134L-188.751 263.424L-177.721 343.878L-176.715 343.587ZM-187.744 263.134L-187.918 264.119H-184.573L-184.399 263.134L-184.226 262.149H-187.571L-187.744 263.134ZM-184.399 263.134L-185.306 262.847L-224.322 343.301L-223.415 343.587L-222.509 343.874L-183.493 263.42L-184.399 263.134ZM-223.415 343.587L-223.242 342.602H-241.253L-241.427 343.587L-241.6 344.572H-223.589L-223.415 343.587ZM-221.094 324.582H-220.094L-217.256 308.492H-218.256H-219.256L-222.094 324.582H-221.094ZM-218.256 308.492L-218.43 309.477H-169.542L-169.368 308.492L-169.195 307.507H-218.083L-218.256 308.492ZM-169.368 308.492H-170.368L-173.206 324.582H-172.206H-171.206L-168.368 308.492H-169.368ZM-172.206 324.582L-172.032 323.598H-220.92L-221.094 324.582L-221.267 325.567H-172.379L-172.206 324.582ZM-136.374 341.053L-137.001 341.92L-136.996 341.923L-136.374 341.053ZM-147.403 328.447L-146.45 327.954L-146.45 327.954L-147.403 328.447ZM-138.77 252.491L-138.603 251.506L-139.597 251.513L-139.77 252.491H-138.77ZM-120.993 252.364H-119.993L-119.819 251.372L-120.827 251.38L-120.993 252.364ZM-130.921 317.424L-129.931 317.047L-129.931 317.047L-130.921 317.424ZM-127.793 323.759L-128.623 324.455L-128.616 324.463L-127.793 323.759ZM-122.151 327.877L-122.691 328.788L-122.682 328.792L-122.673 328.795L-122.151 327.877ZM-106.508 327.813L-106.721 326.9L-106.727 326.902L-106.508 327.813ZM-94.1155 317.361L-94.9731 316.984L-94.9772 316.991L-94.9811 316.998L-94.1155 317.361ZM-81.1111 252.364L-80.9375 251.38H-81.9375L-82.1111 252.364H-81.1111ZM-63.3571 252.364H-62.3571L-62.1834 251.38H-63.1834L-63.3571 252.364ZM-81.5325 328.447L-80.7537 328.94L-80.7537 328.94L-81.5325 328.447ZM-97.0066 341.053L-96.6915 341.923L-96.6859 341.92L-97.0066 341.053ZM-117.472 345.488L-117.299 344.503C-124.624 344.503 -130.764 343.053 -135.752 340.183L-136.374 341.053L-136.996 341.923C-131.706 344.966 -125.244 346.472 -117.646 346.472L-117.472 345.488ZM-136.374 341.053L-135.748 340.186C-140.734 337.273 -144.296 333.199 -146.45 327.954L-147.403 328.447L-148.355 328.94C-146.069 334.506 -142.279 338.837 -137.001 341.92L-136.374 341.053ZM-147.403 328.447L-146.45 327.954C-148.599 322.722 -149.064 316.542 -147.801 309.379H-148.801H-149.801C-151.114 316.828 -150.647 323.36 -148.355 328.94L-147.403 328.447ZM-148.801 309.379H-147.801L-137.77 252.491H-138.77H-139.77L-149.801 309.379H-148.801ZM-138.77 252.491L-138.936 253.476L-121.16 253.349L-120.993 252.364L-120.827 251.38L-138.603 251.506L-138.77 252.491ZM-120.993 252.364H-121.993L-132.024 309.252H-131.024H-130.024L-119.993 252.364H-120.993ZM-131.024 309.252H-132.024C-132.573 312.363 -132.542 315.217 -131.912 317.8L-130.921 317.424L-129.931 317.047C-130.496 314.732 -130.533 312.138 -130.024 309.252H-131.024ZM-130.921 317.424L-131.912 317.8C-131.287 320.363 -130.192 322.585 -128.623 324.455L-127.793 323.759L-126.963 323.062C-128.37 321.385 -129.361 319.384 -129.931 317.047L-130.921 317.424ZM-127.793 323.759L-128.616 324.463C-127.008 326.326 -125.031 327.768 -122.691 328.788L-122.151 327.877L-121.61 326.966C-123.731 326.042 -125.515 324.739 -126.97 323.054L-127.793 323.759ZM-122.151 327.877L-122.673 328.795C-120.28 329.77 -117.648 330.255 -114.786 330.255L-114.613 329.27L-114.439 328.285C-117.067 328.285 -119.46 327.841 -121.629 326.958L-122.151 327.877ZM-114.613 329.27L-114.786 330.255C-111.838 330.255 -109.002 329.749 -106.289 328.724L-106.508 327.813L-106.727 326.902C-109.16 327.821 -111.727 328.285 -114.439 328.285L-114.613 329.27ZM-106.508 327.813L-106.295 328.726C-103.551 327.707 -101.059 326.263 -98.8294 324.392L-99.4137 323.696L-99.9981 322.999C-101.997 324.676 -104.234 325.976 -106.721 326.9L-106.508 327.813ZM-99.4137 323.696L-98.8294 324.392C-96.5966 322.518 -94.7368 320.292 -93.25 317.724L-94.1155 317.361L-94.9811 316.998C-96.3307 319.329 -98.0031 321.325 -99.9981 322.999L-99.4137 323.696ZM-94.1155 317.361L-93.2579 317.737C-91.7178 315.155 -90.6833 312.323 -90.1419 309.252H-91.1419H-92.1419C-92.643 312.094 -93.591 314.667 -94.9731 316.984L-94.1155 317.361ZM-91.1419 309.252H-90.1419L-80.1111 252.364H-81.1111H-82.1111L-92.1419 309.252H-91.1419ZM-81.1111 252.364L-81.2848 253.349H-63.5307L-63.3571 252.364L-63.1834 251.38H-80.9375L-81.1111 252.364ZM-63.3571 252.364H-64.3571L-74.4102 309.379H-73.4102H-72.4102L-62.3571 252.364H-63.3571ZM-73.4102 309.379H-74.4102C-75.6732 316.542 -78.3173 322.722 -82.3114 327.954L-81.5325 328.447L-80.7537 328.94C-76.4946 323.36 -73.7238 316.828 -72.4102 309.379H-73.4102ZM-81.5325 328.447L-82.3114 327.954C-86.3155 333.199 -91.3141 337.273 -97.3274 340.186L-97.0066 341.053L-96.6859 341.92C-90.3203 338.837 -85.0029 334.506 -80.7537 328.94L-81.5325 328.447ZM-97.0066 341.053L-97.3217 340.183C-103.322 343.053 -109.973 344.503 -117.299 344.503L-117.472 345.488L-117.646 346.472C-110.048 346.472 -103.055 344.966 -96.6915 341.923L-97.0066 341.053ZM-66.6301 343.587H-67.6301L-67.8037 344.572H-66.8037L-66.6301 343.587ZM-50.5451 252.364L-50.3714 251.38H-51.3714L-51.5451 252.364H-50.5451ZM-16.0773 252.428L-16.2698 253.412L-16.2698 253.412L-16.0773 252.428ZM-9.59422 252.871L-9.88813 253.849L-9.88644 253.849L-9.59422 252.871ZM8.03046 260.536L8.80136 259.777L8.80135 259.777L8.03046 260.536ZM17.0293 276.627L18.0206 276.254L18.0206 276.254L17.0293 276.627ZM9.5006 319.324L10.3604 319.697L10.3604 319.697L9.5006 319.324ZM-5.17266 335.415L-4.66947 336.174L-4.66947 336.174L-5.17266 335.415ZM-25.5005 343.08L-25.4479 342.103L-25.4497 342.103L-25.5005 343.08ZM-32.14 343.524L-32.2947 344.508L-32.14 343.524ZM-46.0165 327.37H-47.0165L-47.1901 328.355H-46.1901L-46.0165 327.37ZM-29.0875 327.306L-29.2393 328.291L-29.2284 328.291L-29.2175 328.29L-29.0875 327.306ZM-23.6478 326.736L-23.6326 327.704L-23.6199 327.702L-23.6478 326.736ZM-12.8229 321.162L-13.4636 320.515L-13.4701 320.522L-12.8229 321.162ZM-5.30798 310.646L-6.21638 310.364L-6.22059 310.372L-5.30798 310.646ZM-0.848389 284.989L-1.85627 285.271L-1.85505 285.28L-0.848389 284.989ZM-4.74153 274.6L-3.88074 273.943L-3.88074 273.943L-4.74153 274.6ZM-13.5053 269.215L-13.8864 270.178L-13.8781 270.18L-13.8697 270.181L-13.5053 269.215ZM-18.7439 268.645L-18.5486 267.661L-18.5486 267.661L-18.7439 268.645ZM-35.6506 268.582L-35.4769 267.597H-36.4769L-36.6506 268.582H-35.6506ZM-66.6301 343.587H-65.6301L-49.5451 252.364H-50.5451H-51.5451L-67.6301 343.587H-66.6301ZM-50.5451 252.364L-50.7187 253.349H-20.7426L-20.569 252.364L-20.3953 251.38H-50.3714L-50.5451 252.364ZM-20.569 252.364L-20.7426 253.349C-20.0247 253.349 -18.5371 253.37 -16.2698 253.412L-16.0773 252.428L-15.8848 251.443C-18.1484 251.401 -19.6552 251.38 -20.3953 251.38L-20.569 252.364ZM-16.0773 252.428L-16.2698 253.412C-14.0361 253.454 -11.9091 253.6 -9.88813 253.849L-9.59422 252.871L-9.30032 251.894C-11.3927 251.636 -13.5877 251.486 -15.8848 251.443L-16.0773 252.428ZM-9.59422 252.871L-9.88644 253.849C-2.74469 254.716 2.95606 257.206 7.25956 261.296L8.03046 260.536L8.80135 259.777C4.21622 255.42 -1.83282 252.8 -9.30201 251.894L-9.59422 252.871ZM8.03046 260.536L7.25956 261.296C11.5886 265.409 14.5168 270.637 16.038 277L17.0293 276.627L18.0206 276.254C16.432 269.61 13.361 264.11 8.80136 259.777L8.03046 260.536ZM17.0293 276.627L16.038 277C17.5619 283.374 17.66 290.362 16.3175 297.976H17.3175H18.3175C19.7005 290.132 19.6065 282.888 18.0206 276.254L17.0293 276.627ZM17.3175 297.976H16.3175C14.975 305.589 12.4126 312.577 8.6408 318.952L9.5006 319.324L10.3604 319.697C14.2856 313.064 16.9345 305.819 18.3175 297.976H17.3175ZM9.5006 319.324L8.6408 318.952C4.87567 325.314 0.103849 330.542 -5.67585 334.656L-5.17266 335.415L-4.66947 336.174C1.41816 331.841 6.42852 326.342 10.3604 319.697L9.5006 319.324ZM-5.17266 335.415L-5.67585 334.656C-11.4215 338.745 -18.0004 341.236 -25.4479 342.103L-25.5005 343.08L-25.5531 344.058C-17.7641 343.151 -10.7911 340.531 -4.66947 336.174L-5.17266 335.415ZM-25.5005 343.08L-25.4497 342.103C-27.5585 342.352 -29.7369 342.497 -31.9852 342.539L-32.14 343.524L-32.2947 344.508C-29.9825 344.466 -27.7346 344.316 -25.5513 344.058L-25.5005 343.08ZM-32.14 343.524L-31.9852 342.539C-34.2674 342.581 -35.7624 342.602 -36.4804 342.602L-36.654 343.587L-36.8277 344.572C-36.0875 344.572 -34.5732 344.551 -32.2947 344.508L-32.14 343.524ZM-36.654 343.587L-36.4804 342.602H-66.4564L-66.6301 343.587L-66.8037 344.572H-36.8277L-36.654 343.587ZM-46.0165 327.37L-46.1901 328.355H-33.9681L-33.7944 327.37L-33.6208 326.385H-45.8428L-46.0165 327.37ZM-33.7944 327.37L-33.9681 328.355C-32.7997 328.355 -31.2224 328.333 -29.2393 328.291L-29.0875 327.306L-28.9356 326.322C-30.9127 326.364 -32.4735 326.385 -33.6208 326.385L-33.7944 327.37ZM-29.0875 327.306L-29.2175 328.29C-27.1919 328.204 -25.3293 328.01 -23.6326 327.704L-23.6478 326.736L-23.6631 325.769C-25.2441 326.054 -27.0078 326.24 -28.9574 326.323L-29.0875 327.306ZM-23.6478 326.736L-23.6199 327.702C-19.2344 326.858 -15.4047 324.893 -12.1758 321.802L-12.8229 321.162L-13.4701 320.522C-16.3292 323.259 -19.7161 325.01 -23.6758 325.771L-23.6478 326.736ZM-12.8229 321.162L-12.1823 321.808C-8.96942 318.775 -6.37628 315.138 -4.39536 310.919L-5.30798 310.646L-6.22059 310.372C-8.08586 314.346 -10.5027 317.72 -13.4636 320.515L-12.8229 321.162ZM-5.30798 310.646L-4.39962 310.928C-2.38895 306.738 -0.992048 302.42 -0.208482 297.976H-1.20848H-2.20848C-2.95895 302.232 -4.29505 306.36 -6.21634 310.364L-5.30798 310.646ZM-1.20848 297.976H-0.208482C0.612054 293.322 0.736242 288.895 0.158271 284.698L-0.848389 284.989L-1.85505 285.28C-1.30464 289.277 -1.42052 293.507 -2.20848 297.976H-1.20848ZM-0.848389 284.989L0.159449 284.707C-0.377302 280.489 -1.71803 276.893 -3.88074 273.943L-4.74153 274.6L-5.60232 275.257C-3.61679 277.966 -2.36209 281.296 -1.85623 285.271L-0.848389 284.989ZM-4.74153 274.6L-3.88074 273.943C-6.0754 270.949 -9.17396 269.049 -13.141 268.249L-13.5053 269.215L-13.8697 270.181C-10.2999 270.902 -7.5559 272.592 -5.60232 275.257L-4.74153 274.6ZM-13.5053 269.215L-13.1243 268.253C-14.7226 267.899 -16.5328 267.704 -18.5486 267.661L-18.7439 268.645L-18.9392 269.63C-17.0245 269.671 -15.3424 269.856 -13.8864 270.178L-13.5053 269.215ZM-18.7439 268.645L-18.5486 267.661C-20.5168 267.618 -22.0865 267.597 -23.2549 267.597L-23.4286 268.582L-23.6022 269.567C-22.4549 269.567 -20.9015 269.588 -18.9392 269.63L-18.7439 268.645ZM-23.4286 268.582L-23.2549 267.597H-35.4769L-35.6506 268.582L-35.8242 269.567H-23.6022L-23.4286 268.582ZM-35.6506 268.582H-36.6506L-47.0165 327.37H-46.0165H-45.0165L-34.6506 268.582H-35.6506ZM20.8487 343.587H19.8487L19.6751 344.572H20.6751L20.8487 343.587ZM36.9337 252.364L37.1074 251.38H36.1074L35.9337 252.364H36.9337ZM54.4305 252.364H55.4305L55.6041 251.38H54.6041L54.4305 252.364ZM38.3455 343.587L38.1718 344.572H39.1718L39.3455 343.587H38.3455ZM20.8487 343.587H21.8487L37.9337 252.364H36.9337H35.9337L19.8487 343.587H20.8487ZM36.9337 252.364L36.7601 253.349H54.2568L54.4305 252.364L54.6041 251.38H37.1074L36.9337 252.364ZM54.4305 252.364H53.4305L37.3455 343.587H38.3455H39.3455L55.4305 252.364H54.4305ZM38.3455 343.587L38.5191 342.602H21.0223L20.8487 343.587L20.6751 344.572H38.1718L38.3455 343.587ZM73.9692 343.587H72.9692L72.7955 344.572H73.7955L73.9692 343.587ZM87.217 268.455H88.217L88.3906 267.47H87.3906L87.217 268.455ZM58.0128 268.455H57.0128L56.8392 269.44H57.8392L58.0128 268.455ZM60.85 252.364L61.0237 251.38H60.0237L59.85 252.364H60.85ZM136.755 252.364H137.755L137.929 251.38H136.929L136.755 252.364ZM133.918 268.455L133.744 269.44H134.744L134.918 268.455H133.918ZM104.714 268.455L104.887 267.47H103.887L103.714 268.455H104.714ZM91.4659 343.587L91.2923 344.572H92.2923L92.4659 343.587H91.4659ZM73.9692 343.587H74.9692L88.217 268.455H87.217H86.217L72.9692 343.587H73.9692ZM87.217 268.455L87.3906 267.47H58.1865L58.0128 268.455L57.8392 269.44H87.0433L87.217 268.455ZM58.0128 268.455H59.0128L61.85 252.364H60.85H59.85L57.0128 268.455H58.0128ZM60.85 252.364L60.6764 253.349L136.581 253.349L136.755 252.364L136.929 251.38L61.0237 251.38L60.85 252.364ZM136.755 252.364H135.755L132.918 268.455H133.918H134.918L137.755 252.364H136.755ZM133.918 268.455L134.092 267.47H104.887L104.714 268.455L104.54 269.44H133.744L133.918 268.455ZM104.714 268.455H103.714L90.4659 343.587H91.4659H92.4659L105.714 268.455H104.714ZM91.4659 343.587L91.6396 342.602H74.1428L73.9692 343.587L73.7955 344.572H91.2923L91.4659 343.587ZM127.148 343.587H126.148L125.974 344.572H126.974L127.148 343.587ZM143.233 252.364L143.407 251.38H142.407L142.233 252.364H143.233ZM160.73 252.364H161.73L161.903 251.38H160.903L160.73 252.364ZM144.645 343.587L144.471 344.572H145.471L145.645 343.587H144.645ZM127.148 343.587H128.148L144.233 252.364H143.233H142.233L126.148 343.587H127.148ZM143.233 252.364L143.059 253.349H160.556L160.73 252.364L160.903 251.38H143.407L143.233 252.364ZM160.73 252.364H159.73L143.645 343.587H144.645H145.645L161.73 252.364H160.73ZM144.645 343.587L144.818 342.602H127.322L127.148 343.587L126.974 344.572H144.471L144.645 343.587ZM158.783 343.587H157.783L157.61 344.572H158.61L158.783 343.587ZM174.868 252.364L175.042 251.38H174.042L173.868 252.364H174.868ZM192.623 252.364L193.555 251.827L193.338 251.38H192.796L192.623 252.364ZM222.167 313.18L221.235 313.717L222.583 316.493L223.167 313.18H222.167ZM232.891 252.364L233.064 251.38H232.064L231.891 252.364H232.891ZM250.645 252.364H251.645L251.819 251.38H250.819L250.645 252.364ZM234.56 343.587L234.386 344.572H235.386L235.56 343.587H234.56ZM216.806 343.587L215.873 344.125L216.09 344.572H216.632L216.806 343.587ZM187.261 282.772L188.193 282.234L186.845 279.459L186.261 282.772H187.261ZM176.538 343.587L176.364 344.572H177.364L177.538 343.587H176.538ZM158.783 343.587H159.783L175.868 252.364H174.868H173.868L157.783 343.587H158.783ZM174.868 252.364L174.695 253.349H192.449L192.623 252.364L192.796 251.38H175.042L174.868 252.364ZM192.623 252.364L191.69 252.902L221.235 313.717L222.167 313.18L223.1 312.642L193.555 251.827L192.623 252.364ZM222.167 313.18H223.167L233.891 252.364H232.891H231.891L221.167 313.18H222.167ZM232.891 252.364L232.717 253.349H250.471L250.645 252.364L250.819 251.38H233.064L232.891 252.364ZM250.645 252.364H249.645L233.56 343.587H234.56H235.56L251.645 252.364H250.645ZM234.56 343.587L234.734 342.602H216.979L216.806 343.587L216.632 344.572H234.386L234.56 343.587ZM216.806 343.587L217.738 343.049L188.193 282.234L187.261 282.772L186.328 283.31L215.873 344.125L216.806 343.587ZM187.261 282.772H186.261L175.538 343.587H176.538H177.538L188.261 282.772H187.261ZM176.538 343.587L176.711 342.602H158.957L158.783 343.587L158.61 344.572H176.364L176.538 343.587ZM269.499 342.447L268.968 343.362L268.974 343.364L269.499 342.447ZM257.085 333.325L256.252 334.017L256.255 334.021L257.085 333.325ZM250.125 318.438L249.129 318.792L249.131 318.798L250.125 318.438ZM260.648 272.256L259.854 271.783L259.853 271.785L260.648 272.256ZM279.332 256.039L278.989 255.182L278.986 255.184L279.332 256.039ZM329.048 258.636L329.813 257.871L329.813 257.871L329.048 258.636ZM338.673 281.758L338.643 282.733L339.745 282.581L339.686 281.539L338.673 281.758ZM320.343 284.292L319.337 284.584L319.447 285.387L320.314 285.267L320.343 284.292ZM314.355 271.559L313.57 272.305L313.578 272.312L314.355 271.559ZM300.677 266.681L300.489 267.666L300.496 267.666L300.677 266.681ZM274.606 281.378L273.747 281.004L273.743 281.011L274.606 281.378ZM268.776 314.447L267.784 314.819L267.786 314.826L268.776 314.447ZM275.678 325.279L274.977 326.097L274.977 326.097L275.678 325.279ZM289.641 329.27L289.836 328.286L289.829 328.286L289.641 329.27ZM300.805 327.243L300.555 326.344L300.55 326.346L300.805 327.243ZM310.234 320.465L309.52 319.893L309.52 319.893L310.234 320.465ZM317.083 308.618L318.032 308.805L318.468 307.634H317.257L317.083 308.618ZM302.417 308.618H301.417L301.243 309.603H302.243L302.417 308.618ZM304.762 295.315L304.936 294.33H303.936L303.762 295.315H304.762ZM338.084 295.315L339.098 295.165L339.115 294.33H338.257L338.084 295.315ZM337.763 298.229L338.767 298.199L338.767 298.199L337.763 298.229ZM327.9 323.886L327.095 323.428L327.095 323.428L327.9 323.886ZM309.851 339.786L310.208 340.635L310.213 340.633L309.851 339.786ZM285.624 345.488L285.797 344.503C280.085 344.503 274.831 343.511 270.024 341.529L269.499 342.447L268.974 343.364C274.002 345.437 279.497 346.472 285.45 346.472L285.624 345.488ZM269.499 342.447L270.031 341.532C265.24 339.513 261.203 336.547 257.914 332.628L257.085 333.325L256.255 334.021C259.699 338.126 263.939 341.242 268.968 343.362L269.499 342.447ZM257.085 333.325L257.917 332.632C254.682 328.726 252.411 323.881 251.119 318.077L250.125 318.438L249.131 318.798C250.471 324.819 252.84 329.899 256.252 334.017L257.085 333.325ZM250.125 318.438L251.12 318.083C249.876 312.305 249.913 305.609 251.259 297.976H250.259H249.259C247.88 305.8 247.827 312.744 249.129 318.792L250.125 318.438ZM250.259 297.976H251.259C253.017 288.005 256.426 279.603 261.443 272.727L260.648 272.256L259.853 271.785C254.578 279.015 251.061 287.759 249.259 297.976H250.259ZM260.648 272.256L261.442 272.729C266.531 265.78 272.608 260.513 279.677 256.894L279.332 256.039L278.986 255.184C271.537 258.998 265.158 264.542 259.854 271.783L260.648 272.256ZM279.332 256.039L279.675 256.895C286.802 253.267 294.306 251.449 302.205 251.449L302.379 250.464L302.552 249.479C294.327 249.479 286.466 251.377 278.989 255.182L279.332 256.039ZM302.379 250.464L302.205 251.449C313.979 251.449 322.625 254.139 328.283 259.401L329.048 258.636L329.813 257.871C323.755 252.237 314.622 249.479 302.552 249.479L302.379 250.464ZM329.048 258.636L328.283 259.401C333.966 264.686 337.111 272.185 337.659 281.978L338.673 281.758L339.686 281.539C339.118 271.398 335.846 263.482 329.813 257.871L329.048 258.636ZM338.673 281.758L338.702 280.784L320.373 283.318L320.343 284.292L320.314 285.267L338.643 282.733L338.673 281.758ZM320.343 284.292L321.35 284.001C320.594 278.524 318.531 274.111 315.132 270.806L314.355 271.559L313.578 272.312C316.695 275.343 318.624 279.418 319.337 284.584L320.343 284.292ZM314.355 271.559L315.14 270.814C311.752 267.424 306.959 265.74 300.858 265.697L300.677 266.681L300.496 267.666C306.216 267.707 310.542 269.275 313.57 272.305L314.355 271.559ZM300.677 266.681L300.865 265.697C294.853 265.61 289.527 266.888 284.939 269.601L285.352 270.419L285.764 271.237C289.89 268.797 294.78 267.584 300.489 267.666L300.677 266.681ZM285.352 270.419L284.939 269.601C280.379 272.297 276.65 276.113 273.747 281.004L274.606 281.378L275.466 281.752C278.177 277.183 281.61 273.693 285.764 271.237L285.352 270.419ZM274.606 281.378L273.743 281.011C270.897 285.883 268.919 291.545 267.785 297.976H268.785H269.785C270.885 291.737 272.788 286.334 275.47 281.745L274.606 281.378ZM268.785 297.976H267.785C266.651 304.406 266.639 310.029 267.784 314.819L268.776 314.447L269.767 314.074C268.691 309.573 268.685 304.215 269.785 297.976H268.785ZM268.776 314.447L267.786 314.826C268.98 319.634 271.372 323.404 274.977 326.097L275.678 325.279L276.379 324.461C273.088 322.002 270.879 318.55 269.765 314.067L268.776 314.447ZM275.678 325.279L274.977 326.097C278.599 328.803 283.448 330.168 289.453 330.255L289.641 329.27L289.829 328.286C284.113 328.203 279.654 326.908 276.379 324.461L275.678 325.279ZM289.641 329.27L289.446 330.255C293.549 330.342 297.425 329.644 301.06 328.14L300.805 327.243L300.55 326.346C297.246 327.714 293.68 328.367 289.836 328.286L289.641 329.27ZM300.805 327.243L301.055 328.142C304.756 326.629 308.056 324.251 310.948 321.036L310.234 320.465L309.52 319.893C306.865 322.845 303.879 324.985 300.555 326.344L300.805 327.243ZM310.234 320.465L310.948 321.036C313.851 317.809 316.203 313.719 318.032 308.805L317.083 308.618L316.134 308.432C314.379 313.147 312.165 316.954 309.52 319.893L310.234 320.465ZM317.083 308.618L317.257 307.634H302.59L302.417 308.618L302.243 309.603H316.909L317.083 308.618ZM302.417 308.618H303.417L305.762 295.315H304.762H303.762L301.417 308.618H302.417ZM304.762 295.315L304.589 296.3H337.91L338.084 295.315L338.257 294.33H304.936L304.762 295.315ZM338.084 295.315L337.069 295.465C337.059 295.947 336.961 296.863 336.758 298.259L337.763 298.229L338.767 298.199C338.97 296.808 339.086 295.781 339.098 295.165L338.084 295.315ZM337.763 298.229L336.758 298.259C336.554 299.663 336.436 300.444 336.403 300.636H337.403H338.403C338.443 300.406 338.566 299.583 338.767 298.199L337.763 298.229ZM337.403 300.636H336.403C334.885 309.243 331.775 316.831 327.095 323.428L327.9 323.886L328.704 324.343C333.612 317.426 336.837 309.515 338.403 300.636H337.403ZM327.9 323.886L327.095 323.428C322.414 330.026 316.55 335.191 309.489 338.94L309.851 339.786L310.213 340.633C317.629 336.695 323.798 331.259 328.704 324.343L327.9 323.886ZM309.851 339.786L309.493 338.937C302.458 342.635 294.57 344.503 285.797 344.503L285.624 345.488L285.45 346.472C294.517 346.472 302.78 344.539 310.208 340.635L309.851 339.786Z" fill="#0F1D40" fill-opacity="0.13" mask="url(#path-2-outside-1_86_6)"/>
</g>
<defs>
<clipPath id="clip0_86_6">
<rect width="494" height="328" fill="white"/>
</clipPath>
</defs>
</svg>
