<svg width="495" height="268" viewBox="0 0 495 268" fill="none" xmlns="http://www.w3.org/2000/svg">
<g clip-path="url(#clip0_82_11)">
<mask id="path-1-outside-1_82_11" maskUnits="userSpaceOnUse" x="309.27" y="-179.296" width="202.083" height="532.712" fill="black">
<rect fill="white" x="309.27" y="-179.296" width="202.083" height="532.712"/>
<path d="M318.328 -147.245C316.91 -152.538 316.873 -157.212 318.218 -161.267C319.569 -165.298 322.101 -168.541 325.814 -170.998C329.534 -173.43 334.224 -174.894 339.885 -175.389C345.546 -175.884 350.788 -175.29 355.611 -173.605C360.44 -171.896 364.554 -169.234 367.954 -165.619C371.361 -161.979 373.773 -157.513 375.191 -152.22C376.82 -146.143 376.631 -140.91 374.626 -136.521C372.627 -132.108 369.2 -128.824 364.346 -126.669L358.766 -136.488C361.815 -137.758 363.936 -139.636 365.132 -142.123C366.353 -144.613 366.472 -147.695 365.487 -151.371C364.587 -154.728 363.065 -157.466 360.919 -159.586C358.78 -161.681 356.156 -163.169 353.049 -164.051C349.942 -164.933 346.493 -165.208 342.702 -164.876C338.911 -164.545 335.764 -163.693 333.261 -162.32C330.758 -160.947 329.034 -159.079 328.09 -156.714C327.152 -154.325 327.133 -151.451 328.033 -148.094C329.018 -144.418 330.744 -141.497 333.213 -139.331C335.682 -137.164 338.69 -135.735 342.238 -135.042L342.056 -124.718C336.295 -125.945 331.306 -128.493 327.088 -132.362C322.876 -136.207 319.956 -141.168 318.328 -147.245ZM332.237 -95.3374C330.818 -100.63 330.782 -105.304 332.126 -109.36C333.478 -113.39 336.01 -116.634 339.723 -119.09C343.442 -121.522 348.133 -122.986 353.794 -123.481C359.455 -123.977 364.697 -123.382 369.519 -121.697C374.348 -119.988 378.463 -117.326 381.863 -113.711C385.269 -110.071 387.682 -105.605 389.1 -100.312C390.518 -95.0193 390.552 -90.3575 389.2 -86.3269C387.856 -82.2719 385.323 -79.0283 381.604 -76.5962C377.891 -74.1397 373.204 -72.6638 367.543 -72.1685C361.882 -71.6732 356.637 -72.2802 351.808 -73.9894C346.985 -75.6741 342.87 -78.3362 339.464 -81.9756C336.064 -85.5905 333.655 -90.0444 332.237 -95.3374ZM341.941 -96.1865C342.79 -92.8249 344.284 -90.0966 346.424 -88.0015C348.563 -85.9065 351.195 -84.4314 354.321 -83.5764C357.454 -82.6968 360.916 -82.4228 364.706 -82.7545C368.497 -83.0862 371.632 -83.9372 374.11 -85.3076C376.594 -86.6536 378.309 -88.5089 379.253 -90.8737C380.197 -93.2385 380.244 -96.1017 379.395 -99.4633C378.546 -102.825 377.052 -105.553 374.913 -107.648C372.774 -109.743 370.138 -111.231 367.006 -112.11C363.88 -112.965 360.421 -113.227 356.63 -112.895C352.839 -112.564 349.702 -111.725 347.217 -110.379C344.739 -109.008 343.028 -107.141 342.084 -104.776C341.14 -102.411 341.092 -99.548 341.941 -96.1865ZM341.427 -65.3835L396.015 -70.1594L398.734 -60.0145L368.507 -33.8207L404.899 -37.0046L407.618 -26.8597L353.029 -22.0838L350.311 -32.2287L380.538 -58.4225L344.145 -55.2386L341.427 -65.3835ZM359.21 5.32731C358.159 1.40656 357.918 -2.19627 358.486 -5.48119C359.086 -8.74381 360.441 -11.5081 362.549 -13.7742C364.69 -16.018 367.533 -17.5708 371.078 -18.4327L375.467 -8.13302C372.531 -7.12371 370.524 -5.39326 369.448 -2.94168C368.372 -0.490107 368.228 2.20596 369.016 5.14652C369.456 6.78833 370.148 8.35792 371.092 9.85528C372.037 11.3526 373.158 12.5461 374.457 13.4356C375.763 14.3497 377.173 14.7403 378.69 14.6077C379.246 14.559 379.753 14.4268 380.213 14.2111C380.704 14.0176 381.128 13.7172 381.485 13.3098C381.841 12.9025 382.129 12.338 382.35 11.6165C382.577 10.9195 382.717 10.042 382.77 8.98411L383.256 -5.12782C383.284 -6.18355 383.392 -7.42187 383.58 -8.84277C383.775 -10.2392 384.22 -11.6198 384.914 -12.9847C385.609 -14.3496 386.688 -15.535 388.152 -16.5408C389.647 -17.5243 391.696 -18.1299 394.299 -18.3576C397.964 -18.6782 401.249 -18.0503 404.154 -16.4737C407.06 -14.8971 409.507 -12.666 411.496 -9.78034C413.485 -6.89469 414.952 -3.63742 415.899 -0.0085179C416.826 3.6471 417.055 6.9626 416.585 9.93798C416.115 12.9134 414.952 15.4729 413.095 17.6166C411.263 19.7581 408.756 21.4069 405.574 22.5631L400.783 11.9224C402.447 11.3755 403.745 10.5222 404.675 9.36236C405.606 8.20253 406.19 6.85984 406.428 5.33428C406.673 3.83323 406.607 2.28409 406.23 0.686868C405.861 -0.885852 405.236 -2.34848 404.356 -3.70103C403.508 -5.03128 402.499 -6.09658 401.327 -6.89694C400.162 -7.67279 398.936 -8.00434 397.647 -7.89157C396.459 -7.78765 395.581 -7.34721 395.013 -6.57024C394.471 -5.79549 394.117 -4.84911 393.951 -3.7311C393.785 -2.6131 393.701 -1.47723 393.7 -0.323479L393.584 9.09129C393.573 10.4967 393.474 12.0602 393.289 13.7818C393.129 15.5012 392.697 17.1692 391.992 18.7858C391.319 20.4246 390.216 21.8126 388.685 22.9498C387.159 24.1115 385.019 24.8128 382.265 25.0538C379.333 25.3103 376.607 24.9344 374.087 23.926C371.598 22.9399 369.364 21.5052 367.385 19.6219C365.432 17.7363 363.76 15.5503 362.369 13.0637C360.985 10.6016 359.932 8.02282 359.21 5.32731ZM372.051 53.2509C370.908 48.9871 370.788 45.1605 371.691 41.7711C372.618 38.3795 374.457 35.6356 377.206 33.5392C379.955 31.4428 383.515 30.2034 387.887 29.8209L421.929 26.8426L424.724 36.9809L390.682 39.9592C388.887 40.1162 387.336 40.5528 386.028 41.2692C384.719 41.9855 383.672 42.9047 382.887 44.0268C382.108 45.1734 381.611 46.4582 381.398 47.8813C381.216 49.3267 381.335 50.8336 381.756 52.4019C382.189 54.0192 382.88 55.4885 383.829 56.8099C384.785 58.1559 385.931 59.297 387.268 60.2333C388.605 61.1696 390.082 61.8555 391.699 62.2909C393.323 62.7507 395.019 62.9033 396.788 62.7485L430.83 59.7702L433.548 69.9151L399.43 72.9001C395.058 73.2826 391.012 72.7087 387.291 71.1783C383.57 69.648 380.379 67.344 377.718 64.2664C375.082 61.1866 373.193 57.5147 372.051 53.2509ZM381.118 82.7471L435.707 77.9712L438.386 87.9691L393.426 91.9026L399.532 114.692L389.904 115.534L381.118 82.7471ZM392.118 123.798L437.078 119.864L432.606 103.177L442.235 102.334L453.857 145.707L444.228 146.55L439.757 129.862L394.797 133.796L392.118 123.798ZM398.693 148.338L457.616 159.735L461.614 174.659L411.359 195.608L408.601 185.316L452.885 166.695L453.397 168.606L401.451 158.63L398.693 148.338ZM412.666 157.047L422.295 156.205L429.78 184.14L420.151 184.982L412.666 157.047ZM414.453 207.153L459.413 203.219L454.941 186.532L464.57 185.689L476.192 229.062L466.563 229.905L462.091 213.217L417.132 217.151L414.453 207.153ZM422.595 237.54L477.184 232.764L479.863 242.762L425.274 247.538L422.595 237.54ZM432.388 278.432C430.97 273.139 430.933 268.465 432.278 264.41C433.629 260.38 436.161 257.136 439.874 254.679C443.594 252.247 448.284 250.784 453.945 250.288C459.606 249.793 464.848 250.388 469.67 252.073C474.5 253.782 478.614 256.444 482.014 260.059C485.421 263.698 487.833 268.164 489.251 273.457C490.669 278.75 490.703 283.412 489.352 287.443C488.007 291.498 485.475 294.741 481.755 297.173C478.042 299.63 473.355 301.106 467.694 301.601C462.033 302.096 456.788 301.489 451.959 299.78C447.136 298.095 443.022 295.433 439.615 291.794C436.215 288.179 433.806 283.725 432.388 278.432ZM442.093 277.583C442.942 280.945 444.436 283.673 446.575 285.768C448.714 287.863 451.347 289.338 454.473 290.193C457.605 291.073 461.067 291.347 464.858 291.015C468.649 290.683 471.783 289.832 474.261 288.462C476.745 287.116 478.46 285.261 479.404 282.896C480.348 280.531 480.396 277.668 479.547 274.306C478.698 270.945 477.204 268.216 475.064 266.121C472.925 264.026 470.289 262.539 467.157 261.659C464.031 260.804 460.572 260.543 456.782 260.874C452.991 261.206 449.853 262.045 447.368 263.391C444.891 264.761 443.179 266.629 442.235 268.994C441.291 271.358 441.244 274.222 442.093 277.583ZM441.578 308.386L496.167 303.61L498.885 313.755L468.658 339.949L505.051 336.765L507.769 346.91L453.18 351.686L450.462 341.541L480.689 315.347L444.296 318.531L441.578 308.386Z"/>
</mask>
<path d="M318.218 -161.267L317.169 -161.718L317.169 -161.715L318.218 -161.267ZM325.814 -170.998L325.097 -171.876L325.093 -171.873L325.814 -170.998ZM355.611 -173.605L355.84 -174.563L355.835 -174.565L355.611 -173.605ZM367.954 -165.619L368.721 -166.225L368.719 -166.228L367.954 -165.619ZM374.626 -136.521L373.609 -137.053L373.608 -137.05L374.626 -136.521ZM364.346 -126.669L363.4 -126.305L363.974 -125.295L364.938 -125.723L364.346 -126.669ZM358.766 -136.488L358.194 -137.442L357.286 -137.064L357.82 -136.124L358.766 -136.488ZM365.132 -142.123L364.126 -142.675L364.123 -142.669L365.132 -142.123ZM360.919 -159.586L361.649 -160.23L361.645 -160.234L360.919 -159.586ZM353.049 -164.051L353.2 -165.035L353.2 -165.035L353.049 -164.051ZM333.261 -162.32L332.602 -163.233L332.602 -163.233L333.261 -162.32ZM328.09 -156.714L327.058 -157.208L327.056 -157.204L328.09 -156.714ZM333.213 -139.331L333.885 -140.03L333.885 -140.03L333.213 -139.331ZM342.238 -135.042L343.332 -134.857L343.349 -135.843L342.287 -136.05L342.238 -135.042ZM342.056 -124.718L341.987 -123.715L343.13 -123.471L343.149 -124.533L342.056 -124.718ZM327.088 -132.362L327.782 -133.041L327.78 -133.043L327.088 -132.362ZM318.328 -147.245L319.386 -147.338C318.009 -152.479 317.987 -156.961 319.267 -160.82L318.218 -161.267L317.169 -161.715C315.759 -157.464 315.811 -152.597 317.27 -147.153L318.328 -147.245ZM318.218 -161.267L319.266 -160.817C320.557 -164.666 322.971 -167.765 326.535 -170.123L325.814 -170.998L325.093 -171.873C321.231 -169.318 318.582 -165.93 317.169 -161.718L318.218 -161.267ZM325.814 -170.998L326.532 -170.12C330.102 -172.455 334.632 -173.879 340.16 -174.363L339.885 -175.389L339.61 -176.415C333.816 -175.908 328.966 -174.405 325.097 -171.876L325.814 -170.998ZM339.885 -175.389L340.16 -174.363C345.688 -174.846 350.757 -174.262 355.386 -172.645L355.611 -173.605L355.835 -174.565C350.819 -176.317 345.404 -176.922 339.61 -176.415L339.885 -175.389ZM355.611 -173.605L355.381 -172.646C360.016 -171.006 363.943 -168.461 367.19 -165.01L367.954 -165.619L368.719 -166.228C365.165 -170.006 360.863 -172.785 355.84 -174.563L355.611 -173.605ZM367.954 -165.619L367.187 -165.012C370.429 -161.549 372.755 -157.269 374.133 -152.127L375.191 -152.22L376.25 -152.313C374.791 -157.757 372.292 -162.41 368.721 -166.225L367.954 -165.619ZM375.191 -152.22L374.133 -152.127C375.714 -146.225 375.514 -141.22 373.609 -137.053L374.626 -136.521L375.642 -135.99C377.749 -140.6 377.925 -146.06 376.25 -152.313L375.191 -152.22ZM374.626 -136.521L373.608 -137.05C371.698 -132.833 368.428 -129.689 363.755 -127.615L364.346 -126.669L364.938 -125.723C369.973 -127.958 373.555 -131.382 375.643 -135.992L374.626 -136.521ZM364.346 -126.669L365.293 -127.032L359.713 -136.851L358.766 -136.488L357.82 -136.124L363.4 -126.305L364.346 -126.669ZM358.766 -136.488L359.339 -135.534C362.552 -136.872 364.845 -138.88 366.142 -141.577L365.132 -142.123L364.123 -142.669C363.028 -140.393 361.077 -138.643 358.194 -137.442L358.766 -136.488ZM365.132 -142.123L366.139 -141.572C367.476 -144.297 367.575 -147.62 366.545 -151.464L365.487 -151.371L364.428 -151.278C365.368 -147.771 365.231 -144.929 364.126 -142.675L365.132 -142.123ZM365.487 -151.371L366.545 -151.464C365.604 -154.974 363.989 -157.918 361.649 -160.23L360.919 -159.586L360.189 -158.942C362.14 -157.015 363.57 -154.483 364.428 -151.278L365.487 -151.371ZM360.919 -159.586L361.645 -160.234C359.329 -162.503 356.5 -164.098 353.2 -165.035L353.049 -164.051L352.898 -163.068C355.813 -162.241 358.23 -160.86 360.193 -158.938L360.919 -159.586ZM353.049 -164.051L353.2 -165.035C349.92 -165.966 346.324 -166.244 342.427 -165.903L342.702 -164.876L342.977 -163.85C346.662 -164.173 349.964 -163.901 352.898 -163.068L353.049 -164.051ZM342.702 -164.876L342.427 -165.903C338.53 -165.562 335.244 -164.682 332.602 -163.233L333.261 -162.32L333.92 -161.407C336.284 -162.704 339.292 -163.528 342.977 -163.85L342.702 -164.876ZM333.261 -162.32L332.602 -163.233C329.944 -161.775 328.08 -159.769 327.058 -157.208L328.09 -156.714L329.122 -156.219C329.988 -158.389 331.571 -160.12 333.92 -161.407L333.261 -162.32ZM328.09 -156.714L327.056 -157.204C326.033 -154.598 326.034 -151.512 326.974 -148.002L328.033 -148.094L329.091 -148.187C328.233 -151.391 328.271 -154.052 329.124 -156.224L328.09 -156.714ZM328.033 -148.094L326.974 -148.002C328.004 -144.158 329.839 -141.004 332.541 -138.632L333.213 -139.331L333.885 -140.03C331.65 -141.991 330.031 -144.679 329.091 -148.187L328.033 -148.094ZM333.213 -139.331L332.541 -138.632C335.213 -136.288 338.447 -134.765 342.19 -134.034L342.238 -135.042L342.287 -136.05C338.933 -136.705 336.151 -138.041 333.885 -140.03L333.213 -139.331ZM342.238 -135.042L341.145 -135.227L340.962 -124.904L342.056 -124.718L343.149 -124.533L343.332 -134.857L342.238 -135.042ZM342.056 -124.718L342.125 -125.722C336.58 -126.903 331.812 -129.344 327.782 -133.041L327.088 -132.362L326.394 -131.683C330.8 -127.642 336.011 -124.987 341.987 -123.715L342.056 -124.718ZM327.088 -132.362L327.78 -133.043C323.78 -136.694 320.968 -141.436 319.386 -147.338L318.328 -147.245L317.27 -147.153C318.945 -140.9 321.973 -135.72 326.397 -131.681L327.088 -132.362ZM332.126 -109.36L331.078 -109.81L331.077 -109.807L332.126 -109.36ZM339.723 -119.09L339.006 -119.968L339.002 -119.965L339.723 -119.09ZM369.519 -121.697L369.749 -122.655L369.744 -122.657L369.519 -121.697ZM381.863 -113.711L382.63 -114.317L382.627 -114.32L381.863 -113.711ZM389.2 -86.3269L388.152 -86.7773L388.151 -86.7746L389.2 -86.3269ZM381.604 -76.5962L380.887 -77.474L380.883 -77.4714L381.604 -76.5962ZM351.808 -73.9894L352.038 -74.9478L352.032 -74.9496L351.808 -73.9894ZM339.464 -81.9756L340.231 -82.5822L340.229 -82.5845L339.464 -81.9756ZM341.941 -96.1865L340.879 -96.1089L341.941 -96.1865ZM346.424 -88.0015L345.698 -87.3532L345.698 -87.3532L346.424 -88.0015ZM354.321 -83.5764L354.469 -84.5608L354.461 -84.5631L354.321 -83.5764ZM374.11 -85.3076L373.454 -86.2224L373.448 -86.2186L374.11 -85.3076ZM379.253 -90.8737L380.285 -90.3792L380.285 -90.3792L379.253 -90.8737ZM379.395 -99.4633L380.458 -99.5409L380.458 -99.5409L379.395 -99.4633ZM367.006 -112.11L367.153 -113.095L367.145 -113.097L367.006 -112.11ZM347.217 -110.379L346.562 -111.294L346.555 -111.29L347.217 -110.379ZM342.084 -104.776L341.052 -105.27L341.052 -105.27L342.084 -104.776ZM332.237 -95.3374L333.295 -95.43C331.918 -100.571 331.896 -105.053 333.176 -108.912L332.126 -109.36L331.077 -109.807C329.667 -105.556 329.719 -100.69 331.178 -95.2448L332.237 -95.3374ZM332.126 -109.36L333.175 -108.909C334.465 -112.758 336.88 -115.857 340.444 -118.215L339.723 -119.09L339.002 -119.965C335.14 -117.41 332.49 -114.022 331.078 -109.81L332.126 -109.36ZM339.723 -119.09L340.44 -118.212C344.011 -120.547 348.541 -121.971 354.069 -122.455L353.794 -123.481L353.519 -124.507C347.725 -124 342.874 -122.498 339.006 -119.968L339.723 -119.09ZM353.794 -123.481L354.069 -122.455C359.597 -122.939 364.665 -122.354 369.294 -120.737L369.519 -121.697L369.744 -122.657C364.728 -124.409 359.313 -125.014 353.519 -124.507L353.794 -123.481ZM369.519 -121.697L369.289 -120.739C373.925 -119.098 377.852 -116.554 381.098 -113.102L381.863 -113.711L382.627 -114.32C379.074 -118.098 374.772 -120.878 369.749 -122.655L369.519 -121.697ZM381.863 -113.711L381.096 -113.104C384.338 -109.641 386.664 -105.361 388.042 -100.22L389.1 -100.312L390.158 -100.405C388.699 -105.85 386.201 -110.502 382.63 -114.317L381.863 -113.711ZM389.1 -100.312L388.042 -100.22C389.419 -95.0783 389.437 -90.6102 388.152 -86.7773L389.2 -86.3269L390.249 -85.8766C391.666 -90.1048 391.617 -94.9602 390.158 -100.405L389.1 -100.312ZM389.2 -86.3269L388.151 -86.7746C386.867 -82.9029 384.454 -79.8062 380.887 -77.474L381.604 -76.5962L382.321 -75.7185C386.193 -78.2504 388.844 -81.6409 390.25 -85.8792L389.2 -86.3269ZM381.604 -76.5962L380.883 -77.4714C377.32 -75.114 372.794 -73.6781 367.268 -73.1947L367.543 -72.1685L367.818 -71.1423C373.614 -71.6494 378.462 -73.1654 382.325 -75.7211L381.604 -76.5962ZM367.543 -72.1685L367.268 -73.1947C361.742 -72.7112 356.672 -73.3075 352.038 -74.9478L351.808 -73.9894L351.578 -73.031C356.602 -71.2528 362.022 -70.6352 367.818 -71.1423L367.543 -72.1685ZM351.808 -73.9894L352.032 -74.9496C347.408 -76.5651 343.483 -79.1073 340.231 -82.5822L339.464 -81.9756L338.697 -81.369C342.258 -77.5651 346.562 -74.7831 351.583 -73.0293L351.808 -73.9894ZM339.464 -81.9756L340.229 -82.5845C336.995 -86.0222 334.673 -90.2886 333.295 -95.43L332.237 -95.3374L331.178 -95.2448C332.637 -89.8002 335.133 -85.1587 338.699 -81.3666L339.464 -81.9756ZM341.941 -96.1865L340.879 -96.1089C341.768 -92.5911 343.355 -89.6478 345.698 -87.3532L346.424 -88.0015L347.15 -88.6498C345.214 -90.5454 343.813 -93.0587 343.004 -96.2641L341.941 -96.1865ZM346.424 -88.0015L345.698 -87.3532C348.018 -85.081 350.861 -83.498 354.182 -82.5896L354.321 -83.5764L354.461 -84.5631C351.529 -85.3649 349.108 -86.732 347.15 -88.6498L346.424 -88.0015ZM354.321 -83.5764L354.174 -82.5919C357.477 -81.6645 361.085 -81.3874 364.981 -81.7283L364.706 -82.7545L364.431 -83.7807C360.747 -83.4583 357.431 -83.7291 354.469 -84.5608L354.321 -83.5764ZM364.706 -82.7545L364.981 -81.7283C368.878 -82.0692 372.153 -82.9483 374.772 -84.3966L374.11 -85.3076L373.448 -86.2186C371.111 -84.9261 368.117 -84.1031 364.431 -83.7807L364.706 -82.7545ZM374.11 -85.3076L374.765 -84.3929C377.408 -85.8247 379.263 -87.8194 380.285 -90.3792L379.253 -90.8737L378.22 -91.3682C377.354 -89.1984 375.78 -87.4824 373.454 -86.2224L374.11 -85.3076ZM379.253 -90.8737L380.285 -90.3792C381.314 -92.9579 381.344 -96.0304 380.458 -99.5409L379.395 -99.4633L378.333 -99.3856C379.144 -96.173 379.079 -93.5191 378.22 -91.3682L379.253 -90.8737ZM379.395 -99.4633L380.458 -99.5409C379.569 -103.059 377.982 -106.002 375.639 -108.296L374.913 -107.648L374.187 -107C376.123 -105.104 377.524 -102.591 378.333 -99.3856L379.395 -99.4633ZM374.913 -107.648L375.639 -108.296C373.321 -110.567 370.477 -112.161 367.153 -113.095L367.006 -112.11L366.858 -111.126C369.799 -110.3 372.227 -108.92 374.187 -107L374.913 -107.648ZM367.006 -112.11L367.145 -113.097C363.851 -113.998 360.25 -114.262 356.355 -113.921L356.63 -112.895L356.905 -111.869C360.593 -112.192 363.908 -111.933 366.866 -111.123L367.006 -112.11ZM356.63 -112.895L356.355 -113.921C352.462 -113.581 349.186 -112.715 346.562 -111.294L347.217 -110.379L347.872 -109.464C350.218 -110.735 353.217 -111.546 356.905 -111.869L356.63 -112.895ZM347.217 -110.379L346.555 -111.29C343.922 -109.834 342.073 -107.828 341.052 -105.27L342.084 -104.776L343.116 -104.282C343.983 -106.453 345.556 -108.183 347.879 -109.468L347.217 -110.379ZM342.084 -104.776L341.052 -105.27C340.022 -102.692 339.993 -99.6193 340.879 -96.1089L341.941 -96.1865L343.004 -96.2641C342.192 -99.4767 342.258 -102.131 343.116 -104.282L342.084 -104.776ZM341.427 -65.3835L341.152 -66.4097L340.093 -66.3171L340.368 -65.2909L341.427 -65.3835ZM396.015 -70.1594L397.074 -70.252L396.799 -71.2782L395.741 -71.1856L396.015 -70.1594ZM398.734 -60.0145L399.542 -59.2054L399.941 -59.5511L399.792 -60.107L398.734 -60.0145ZM368.507 -33.8207L367.698 -34.6297L365.221 -32.483L368.782 -32.7945L368.507 -33.8207ZM404.899 -37.0046L405.958 -37.0972L405.683 -38.1234L404.624 -38.0308L404.899 -37.0046ZM407.618 -26.8597L407.893 -25.8335L408.951 -25.9261L408.676 -26.9523L407.618 -26.8597ZM353.029 -22.0838L351.971 -21.9912L352.246 -20.965L353.304 -21.0576L353.029 -22.0838ZM350.311 -32.2287L349.502 -33.0377L349.103 -32.692L349.252 -32.1361L350.311 -32.2287ZM380.538 -58.4225L381.346 -57.6135L383.823 -59.7602L380.263 -59.4487L380.538 -58.4225ZM344.145 -55.2386L343.087 -55.146L343.362 -54.1198L344.42 -54.2124L344.145 -55.2386ZM341.427 -65.3835L341.702 -64.3573L396.29 -69.1332L396.015 -70.1594L395.741 -71.1856L341.152 -66.4097L341.427 -65.3835ZM396.015 -70.1594L394.957 -70.0668L397.675 -59.9219L398.734 -60.0145L399.792 -60.107L397.074 -70.252L396.015 -70.1594ZM398.734 -60.0145L397.925 -60.8235L367.698 -34.6297L368.507 -33.8207L369.315 -33.0117L399.542 -59.2054L398.734 -60.0145ZM368.507 -33.8207L368.782 -32.7945L405.174 -35.9784L404.899 -37.0046L404.624 -38.0308L368.232 -34.8468L368.507 -33.8207ZM404.899 -37.0046L403.841 -36.912L406.559 -26.7671L407.618 -26.8597L408.676 -26.9523L405.958 -37.0972L404.899 -37.0046ZM407.618 -26.8597L407.343 -27.8859L352.754 -23.11L353.029 -22.0838L353.304 -21.0576L407.893 -25.8335L407.618 -26.8597ZM353.029 -22.0838L354.087 -22.1764L351.369 -32.3213L350.311 -32.2287L349.252 -32.1361L351.971 -21.9912L353.029 -22.0838ZM350.311 -32.2287L351.119 -31.4197L381.346 -57.6135L380.538 -58.4225L379.729 -59.2315L349.502 -33.0377L350.311 -32.2287ZM380.538 -58.4225L380.263 -59.4487L343.87 -56.2648L344.145 -55.2386L344.42 -54.2124L380.813 -57.3963L380.538 -58.4225ZM344.145 -55.2386L345.203 -55.3312L342.485 -65.4761L341.427 -65.3835L340.368 -65.2909L343.087 -55.146L344.145 -55.2386ZM358.486 -5.48119L357.408 -5.81407L357.406 -5.80489L358.486 -5.48119ZM362.549 -13.7742L361.684 -14.5293L361.677 -14.5218L362.549 -13.7742ZM371.078 -18.4327L372.085 -18.6744L371.657 -19.6788L370.649 -19.4336L371.078 -18.4327ZM375.467 -8.13302L375.984 -7.15738L376.864 -7.45997L376.474 -8.37474L375.467 -8.13302ZM369.448 -2.94168L370.47 -2.42147L370.47 -2.42147L369.448 -2.94168ZM371.092 9.85528L372.009 9.44293L372.009 9.44293L371.092 9.85528ZM374.457 13.4356L375.011 12.6445L374.999 12.6364L374.457 13.4356ZM380.213 14.2111L379.658 13.2498L379.63 13.2606L379.604 13.2731L380.213 14.2111ZM381.485 13.3098L382.373 14.0389L382.373 14.0389L381.485 13.3098ZM382.35 11.6165L381.299 11.173L381.297 11.1804L381.295 11.1878L382.35 11.6165ZM382.77 8.98411L383.862 9.19909L383.862 9.19197L383.863 9.18484L382.77 8.98411ZM383.256 -5.12782L384.349 -4.92709L384.349 -4.93494L383.256 -5.12782ZM383.58 -8.84277L382.495 -9.13792L382.494 -9.13182L383.58 -8.84277ZM384.914 -12.9847L385.916 -12.4221L385.916 -12.4221L384.914 -12.9847ZM388.152 -16.5408L387.432 -17.4172L387.425 -17.4124L387.418 -17.4075L388.152 -16.5408ZM404.154 -16.4737L403.732 -15.6008L403.732 -15.6008L404.154 -16.4737ZM411.496 -9.78034L410.607 -9.32503L410.607 -9.32503L411.496 -9.78034ZM415.899 -0.0085179L416.961 -0.0873318L416.959 -0.0941753L415.899 -0.0085179ZM416.585 9.93798L417.668 10.249L417.668 10.249L416.585 9.93798ZM413.095 17.6166L412.203 16.8906L412.2 16.8945L413.095 17.6166ZM405.574 22.5631L404.577 22.8264L405.065 23.9113L406.106 23.5332L405.574 22.5631ZM400.783 11.9224L400.279 10.9426L399.362 11.2441L399.786 12.1857L400.783 11.9224ZM404.675 9.36236L403.764 8.6598L403.764 8.6598L404.675 9.36236ZM406.428 5.33428L405.346 5.01917L405.345 5.02506L406.428 5.33428ZM406.23 0.686868L405.164 0.747364L405.164 0.747856L406.23 0.686868ZM404.356 -3.70103L403.442 -3.28361L403.449 -3.2739L404.356 -3.70103ZM401.327 -6.89694L401.868 -7.69701L401.862 -7.70157L401.855 -7.70606L401.327 -6.89694ZM395.013 -6.57024L394.08 -7.24371L394.075 -7.2371L394.071 -7.23039L395.013 -6.57024ZM393.951 -3.7311L395.034 -3.42825L395.034 -3.42825L393.951 -3.7311ZM393.7 -0.323479L394.793 -0.143478L394.793 -0.154042L393.7 -0.323479ZM393.584 9.09129L392.491 8.9113L392.491 8.91522L393.584 9.09129ZM393.289 13.7818L392.201 13.5146L392.2 13.5276L393.289 13.7818ZM391.992 18.7858L390.969 18.2674L390.966 18.2755L390.963 18.2837L391.992 18.7858ZM388.685 22.9498L387.925 22.1012L387.917 22.1075L388.685 22.9498ZM374.087 23.926L374.366 22.9864L374.362 22.9848L374.087 23.926ZM367.385 19.6219L366.666 20.2771L366.673 20.2836L367.385 19.6219ZM362.369 13.0637L363.32 12.7075L363.318 12.7051L362.369 13.0637ZM359.21 5.32731L360.268 5.23471C359.25 1.43526 359.025 -2.02383 359.567 -5.15749L358.486 -5.48119L357.406 -5.80489C356.812 -2.36871 357.068 1.37787 358.151 5.4199L359.21 5.32731ZM358.486 -5.48119L359.565 -5.14832C360.137 -8.26084 361.425 -10.8806 363.421 -13.0266L362.549 -13.7742L361.677 -14.5218C359.457 -12.1357 358.035 -9.22678 357.408 -5.81406L358.486 -5.48119ZM362.549 -13.7742L363.414 -13.0192C365.43 -15.1315 368.116 -16.6072 371.508 -17.4318L371.078 -18.4327L370.649 -19.4336C366.95 -18.5344 363.95 -16.9044 361.684 -14.5292L362.549 -13.7742ZM371.078 -18.4327L370.071 -18.191L374.461 -7.89129L375.467 -8.13302L376.474 -8.37474L372.085 -18.6744L371.078 -18.4327ZM375.467 -8.13302L374.951 -9.10866C371.809 -8.02864 369.607 -6.15049 368.427 -3.4619L369.448 -2.94168L370.47 -2.42147C371.442 -4.63603 373.252 -6.21878 375.984 -7.15738L375.467 -8.13302ZM369.448 -2.94168L368.427 -3.4619C367.266 -0.817613 367.115 2.09402 367.958 5.23911L369.016 5.14652L370.074 5.05393C369.341 2.3179 369.478 -0.162601 370.47 -2.42147L369.448 -2.94168ZM369.016 5.14652L367.958 5.23911C368.427 6.99022 369.166 8.66786 370.175 10.2676L371.092 9.85528L372.009 9.44293C371.13 8.04797 370.485 6.58644 370.074 5.05393L369.016 5.14652ZM371.092 9.85528L370.175 10.2676C371.199 11.8915 372.442 13.2262 373.915 14.2348L374.457 13.4356L374.999 12.6364C373.874 11.866 372.874 10.8138 372.009 9.44293L371.092 9.85528ZM374.457 13.4356L373.903 14.2267C375.468 15.3225 377.179 15.7901 378.965 15.6339L378.69 14.6077L378.415 13.5815C377.168 13.6905 376.057 13.3768 375.011 12.6445L374.457 13.4356ZM378.69 14.6077L378.965 15.6339C379.635 15.5752 380.257 15.4146 380.822 15.1491L380.213 14.2111L379.604 13.2731C379.25 13.4391 378.856 13.5429 378.415 13.5815L378.69 14.6077ZM380.213 14.2111L380.768 15.1723C381.4 14.9235 381.935 14.5402 382.373 14.0389L381.485 13.3098L380.596 12.5808C380.322 12.8942 380.009 13.1117 379.658 13.2498L380.213 14.2111ZM381.485 13.3098L382.373 14.0389C382.828 13.5187 383.163 12.8394 383.405 12.0453L382.35 11.6165L381.295 11.1878C381.096 11.8366 380.854 12.2862 380.596 12.5808L381.485 13.3098ZM382.35 11.6165L383.401 12.06C383.659 11.2676 383.807 10.3071 383.862 9.19909L382.77 8.98411L381.677 8.76914C381.627 9.77698 381.495 10.5714 381.299 11.173L382.35 11.6165ZM382.77 8.98411L383.863 9.18484L384.349 -4.9271L383.256 -5.12782L382.163 -5.32855L381.677 8.78339L382.77 8.98411ZM383.256 -5.12782L384.349 -4.93494C384.376 -5.94877 384.48 -7.15361 384.665 -8.55372L383.58 -8.84277L382.494 -9.13182C382.303 -7.69012 382.192 -6.41833 382.163 -5.32071L383.256 -5.12782ZM383.58 -8.84277L384.665 -8.54762C384.845 -9.83896 385.258 -11.1303 385.916 -12.4221L384.914 -12.9847L383.913 -13.5474C383.181 -12.1093 382.705 -10.6394 382.495 -9.13792L383.58 -8.84277ZM384.914 -12.9847L385.916 -12.4221C386.54 -13.6491 387.52 -14.7358 388.885 -15.6741L388.152 -16.5408L387.418 -17.4075C385.856 -16.3341 384.678 -15.0502 383.913 -13.5474L384.914 -12.9847ZM388.152 -16.5408L388.871 -15.6643C390.201 -16.5393 392.08 -17.1132 394.574 -17.3314L394.299 -18.3576L394.024 -19.3838C391.312 -19.1466 389.093 -18.5092 387.432 -17.4172L388.152 -16.5408ZM394.299 -18.3576L394.574 -17.3314C398.055 -17.636 401.089 -17.0349 403.732 -15.6008L404.154 -16.4737L404.576 -17.3466C401.408 -19.0656 397.872 -19.7205 394.024 -19.3838L394.299 -18.3576ZM404.154 -16.4737L403.732 -15.6008C406.435 -14.1343 408.726 -12.0542 410.607 -9.32503L411.496 -9.78034L412.384 -10.2356C410.288 -13.2778 407.684 -15.6599 404.576 -17.3466L404.154 -16.4737ZM411.496 -9.78034L410.607 -9.32503C412.506 -6.56936 413.921 -3.44007 414.839 0.0771395L415.899 -0.0085179L416.959 -0.0941753C415.983 -3.83477 414.463 -7.22002 412.384 -10.2356L411.496 -9.78034ZM415.899 -0.0085179L414.837 0.0702942C415.737 3.6169 415.95 6.7974 415.503 9.62698L416.585 9.93798L417.668 10.249C418.161 7.12779 417.916 3.67729 416.961 -0.08733L415.899 -0.0085179ZM416.585 9.93798L415.503 9.62698C415.056 12.4514 413.956 14.8672 412.203 16.8906L413.095 17.6166L413.986 18.3426C415.947 16.0786 417.174 13.3754 417.668 10.249L416.585 9.93798ZM413.095 17.6166L412.2 16.8945C410.476 18.9103 408.101 20.4817 405.042 21.593L405.574 22.5631L406.106 23.5332C409.411 22.3322 412.05 20.606 413.989 18.3388L413.095 17.6166ZM405.574 22.5631L406.571 22.2998L401.78 11.659L400.783 11.9224L399.786 12.1857L404.577 22.8264L405.574 22.5631ZM400.783 11.9224L401.287 12.9021C403.096 12.3075 404.542 11.3666 405.586 10.0649L404.675 9.36236L403.764 8.6598C402.947 9.67778 401.798 10.4435 400.279 10.9426L400.783 11.9224ZM404.675 9.36236L405.586 10.0649C406.608 8.7917 407.25 7.3143 407.511 5.6435L406.428 5.33428L405.345 5.02506C405.13 6.40537 404.604 7.61336 403.764 8.6598L404.675 9.36236ZM406.428 5.33428L407.51 5.64939C407.774 4.02516 407.703 2.3484 407.297 0.62588L406.23 0.686868L405.164 0.747856C405.511 2.21979 405.571 3.6413 405.346 5.01917L406.428 5.33428ZM406.23 0.686868L407.297 0.626372C406.899 -1.06543 406.223 -2.65324 405.264 -4.12816L404.356 -3.70103L403.449 -3.2739C404.249 -2.04372 404.822 -0.706272 405.164 0.747364L406.23 0.686868ZM404.356 -3.70103L405.27 -4.11842C404.341 -5.57579 403.211 -6.77999 401.868 -7.69701L401.327 -6.89694L400.786 -6.09687C401.787 -5.41317 402.676 -4.48676 403.442 -3.28363L404.356 -3.70103ZM401.327 -6.89694L401.855 -7.70606C400.445 -8.64522 398.931 -9.05416 397.372 -8.91776L397.647 -7.89157L397.922 -6.86538C398.94 -6.95452 399.88 -6.70036 400.8 -6.08781L401.327 -6.89694ZM397.647 -7.89157L397.372 -8.91776C395.947 -8.79312 394.815 -8.24906 394.08 -7.24371L395.013 -6.57024L395.947 -5.89678C396.347 -6.44536 396.971 -6.78218 397.922 -6.86538L397.647 -7.89157ZM395.013 -6.57024L394.071 -7.23039C393.444 -6.33522 393.049 -5.26215 392.867 -4.03395L393.951 -3.7311L395.034 -3.42825C395.184 -4.43607 395.498 -5.25576 395.956 -5.91009L395.013 -6.57024ZM393.951 -3.7311L392.867 -4.03395C392.694 -2.87223 392.608 -1.69178 392.606 -0.492916L393.7 -0.323479L394.793 -0.154042C394.794 -1.26267 394.875 -2.35397 395.034 -3.42825L393.951 -3.7311ZM393.7 -0.323479L392.606 -0.503469L392.491 8.9113L393.584 9.09129L394.678 9.27128L394.793 -0.143488L393.7 -0.323479ZM393.584 9.09129L392.491 8.91522C392.48 10.2835 392.384 11.816 392.201 13.5146L393.289 13.7818L394.377 14.049C394.565 12.3044 394.666 10.7099 394.678 9.26736L393.584 9.09129ZM393.289 13.7818L392.2 13.5276C392.049 15.1494 391.64 16.7289 390.969 18.2674L391.992 18.7858L393.014 19.3041C393.753 17.6094 394.209 15.853 394.379 14.036L393.289 13.7818ZM391.992 18.7858L390.963 18.2837C390.35 19.775 389.345 21.0475 387.925 22.1012L388.685 22.9498L389.444 23.7984C391.088 22.5778 392.287 21.0742 393.021 19.2878L391.992 18.7858ZM388.685 22.9498L387.917 22.1075C386.567 23.1361 384.618 23.7977 381.99 24.0277L382.265 25.0538L382.54 26.08C385.421 25.828 387.752 25.0869 389.452 23.7922L388.685 22.9498ZM382.265 25.0538L381.99 24.0277C379.21 24.2708 376.678 23.9111 374.366 22.9865L374.087 23.926L373.807 24.8656C376.537 25.9577 379.456 26.3498 382.54 26.08L382.265 25.0538ZM374.087 23.926L374.362 22.9848C372.037 22.0634 369.952 20.7251 368.097 18.9601L367.385 19.6219L366.673 20.2836C368.777 22.2854 371.159 23.8165 373.811 24.8672L374.087 23.926ZM367.385 19.6219L368.104 18.9667C366.251 17.1777 364.654 15.0947 363.32 12.7075L362.369 13.0637L361.419 13.4199C362.865 16.0059 364.613 18.2949 366.666 20.2771L367.385 19.6219ZM362.369 13.0637L363.318 12.7051C361.984 10.3312 360.967 7.84209 360.268 5.23471L359.21 5.32731L358.151 5.4199C358.897 8.20355 359.986 10.872 361.42 13.4222L362.369 13.0637ZM371.691 41.7711L370.628 41.3666L370.627 41.3722L371.691 41.7711ZM377.206 33.5392L377.973 34.3813L377.973 34.3813L377.206 33.5392ZM421.929 26.8426L422.986 26.7426L422.705 25.7245L421.655 25.8164L421.929 26.8426ZM424.724 36.9809L424.999 38.0071L426.065 37.9138L425.78 36.8808L424.724 36.9809ZM386.028 41.2692L386.686 42.182L386.686 42.182L386.028 41.2692ZM382.887 44.0268L381.944 43.3666L381.938 43.376L382.887 44.0268ZM381.398 47.8813L380.314 47.5771L380.313 47.5876L380.311 47.5982L381.398 47.8813ZM383.829 56.8099L384.708 56.3401L384.704 56.3344L383.829 56.8099ZM391.699 62.2909L391.85 61.3072L391.842 61.305L391.834 61.3028L391.699 62.2909ZM430.83 59.7702L431.888 59.6776L431.613 58.6514L430.555 58.744L430.83 59.7702ZM433.548 69.9151L433.823 70.9413L434.882 70.8487L434.607 69.8225L433.548 69.9151ZM387.291 71.1783L386.999 72.1131L386.999 72.1131L387.291 71.1783ZM377.718 64.2664L376.912 64.829L376.916 64.8341L377.718 64.2664ZM372.051 53.2509L373.109 53.1583C372.004 49.0345 371.9 45.3806 372.755 42.1701L371.691 41.7711L370.627 41.3722C369.677 44.9405 369.813 48.9398 370.993 53.3435L372.051 53.2509ZM371.691 41.7711L372.753 42.1757C373.633 38.9574 375.371 36.3658 377.973 34.3813L377.206 33.5392L376.438 32.6971C373.542 34.9053 371.603 37.8017 370.628 41.3666L371.691 41.7711ZM377.206 33.5392L377.973 34.3813C380.564 32.4058 383.944 31.2161 388.162 30.8471L387.887 29.8209L387.612 28.7947C383.086 29.1907 379.345 30.4799 376.438 32.6971L377.206 33.5392ZM387.887 29.8209L388.162 30.8471L422.204 27.8688L421.929 26.8426L421.655 25.8164L387.612 28.7947L387.887 29.8209ZM421.929 26.8426L420.873 26.9426L423.667 37.0809L424.724 36.9809L425.78 36.8808L422.986 26.7426L421.929 26.8426ZM424.724 36.9809L424.449 35.9547L390.407 38.933L390.682 39.9592L390.956 40.9854L424.999 38.0071L424.724 36.9809ZM390.682 39.9592L390.407 38.933C388.491 39.1005 386.806 39.5696 385.369 40.3564L386.028 41.2692L386.686 42.182C387.866 41.536 389.283 41.1318 390.956 40.9854L390.682 39.9592ZM386.028 41.2692L385.369 40.3564C383.953 41.1319 382.807 42.1348 381.944 43.3667L382.887 44.0268L383.83 44.687C384.538 43.6747 385.486 42.8391 386.686 42.182L386.028 41.2692ZM382.887 44.0268L381.938 43.376C381.088 44.6259 380.547 46.0285 380.314 47.5771L381.398 47.8813L382.481 48.1855C382.676 46.8879 383.127 45.7209 383.836 44.6776L382.887 44.0268ZM381.398 47.8813L380.311 47.5982C380.114 49.1713 380.245 50.8059 380.697 52.4945L381.756 52.4019L382.814 52.3093C382.426 50.8613 382.318 49.4821 382.484 48.1644L381.398 47.8813ZM381.756 52.4019L380.697 52.4945C381.163 54.2334 381.913 55.8346 382.954 57.2855L383.829 56.8099L384.704 56.3344C383.848 55.1425 383.215 53.805 382.814 52.3093L381.756 52.4019ZM383.829 56.8099L382.95 57.2798C383.99 58.7446 385.246 59.9962 386.714 61.0244L387.268 60.2333L387.822 59.4422C386.616 58.5977 385.579 57.5671 384.708 56.3401L383.829 56.8099ZM387.268 60.2333L386.714 61.0244C388.186 62.0553 389.807 62.8057 391.565 63.2789L391.699 62.2909L391.834 61.3028C390.357 60.9053 389.024 60.284 387.822 59.4422L387.268 60.2333ZM391.699 62.2909L391.549 63.2745C393.33 63.779 395.171 63.9402 397.063 63.7747L396.788 62.7485L396.513 61.7223C394.867 61.8663 393.316 61.7225 391.85 61.3072L391.699 62.2909ZM396.788 62.7485L397.063 63.7747L431.105 60.7964L430.83 59.7702L430.555 58.744L396.513 61.7223L396.788 62.7485ZM430.83 59.7702L429.772 59.8628L432.49 70.0077L433.548 69.9151L434.607 69.8225L431.888 59.6776L430.83 59.7702ZM433.548 69.9151L433.273 68.8889L399.155 71.8739L399.43 72.9001L399.705 73.9262L433.823 70.9413L433.548 69.9151ZM399.43 72.9001L399.155 71.8739C394.937 72.2429 391.089 71.6857 387.583 70.2436L387.291 71.1783L386.999 72.1131C390.935 73.7317 395.179 74.3222 399.705 73.9262L399.43 72.9001ZM387.291 71.1783L387.583 70.2436C384.06 68.7948 381.045 66.6191 378.52 63.6987L377.718 64.2664L376.916 64.8341C379.713 68.0689 383.08 70.5012 386.999 72.1131L387.291 71.1783ZM377.718 64.2664L378.524 63.7038C376.028 60.7866 374.214 57.2822 373.109 53.1583L372.051 53.2509L370.993 53.3435C372.173 57.7473 374.137 61.5866 376.912 64.829L377.718 64.2664ZM381.118 82.7471L380.843 81.7209L379.785 81.8135L380.06 82.8397L381.118 82.7471ZM435.707 77.9712L436.765 77.8786L436.49 76.8525L435.432 76.945L435.707 77.9712ZM438.386 87.9691L438.661 88.9953L439.719 88.9027L439.444 87.8765L438.386 87.9691ZM393.426 91.9026L393.151 90.8764L392.093 90.969L392.368 91.9952L393.426 91.9026ZM399.532 114.692L399.807 115.718L400.866 115.626L400.591 114.599L399.532 114.692ZM389.904 115.534L388.845 115.627L389.12 116.653L390.179 116.561L389.904 115.534ZM381.118 82.7471L381.393 83.7733L435.982 78.9974L435.707 77.9712L435.432 76.945L380.843 81.7209L381.118 82.7471ZM435.707 77.9712L434.649 78.0638L437.328 88.0617L438.386 87.9691L439.444 87.8765L436.765 77.8786L435.707 77.9712ZM438.386 87.9691L438.111 86.9429L393.151 90.8764L393.426 91.9026L393.701 92.9288L438.661 88.9953L438.386 87.9691ZM393.426 91.9026L392.368 91.9952L398.474 114.785L399.532 114.692L400.591 114.599L394.484 91.81L393.426 91.9026ZM399.532 114.692L399.257 113.666L389.629 114.508L389.904 115.534L390.179 116.561L399.807 115.718L399.532 114.692ZM389.904 115.534L390.962 115.442L382.177 82.6545L381.118 82.7471L380.06 82.8397L388.845 115.627L389.904 115.534ZM392.118 123.798L391.843 122.772L390.784 122.864L391.059 123.89L392.118 123.798ZM437.078 119.864L437.353 120.89L438.411 120.798L438.136 119.772L437.078 119.864ZM432.606 103.177L432.331 102.15L431.273 102.243L431.548 103.269L432.606 103.177ZM442.235 102.334L443.293 102.242L443.018 101.215L441.96 101.308L442.235 102.334ZM453.857 145.707L454.132 146.734L455.19 146.641L454.915 145.615L453.857 145.707ZM444.228 146.55L443.17 146.642L443.445 147.669L444.503 147.576L444.228 146.55ZM439.757 129.862L440.815 129.77L440.54 128.743L439.482 128.836L439.757 129.862ZM394.797 133.796L393.738 133.888L394.013 134.914L395.072 134.822L394.797 133.796ZM392.118 123.798L392.393 124.824L437.353 120.89L437.078 119.864L436.803 118.838L391.843 122.772L392.118 123.798ZM437.078 119.864L438.136 119.772L433.665 103.084L432.606 103.177L431.548 103.269L436.019 119.957L437.078 119.864ZM432.606 103.177L432.881 104.203L442.51 103.36L442.235 102.334L441.96 101.308L432.331 102.15L432.606 103.177ZM442.235 102.334L441.177 102.427L452.798 145.8L453.857 145.707L454.915 145.615L443.293 102.242L442.235 102.334ZM453.857 145.707L453.582 144.681L443.953 145.524L444.228 146.55L444.503 147.576L454.132 146.734L453.857 145.707ZM444.228 146.55L445.286 146.457L440.815 129.77L439.757 129.862L438.698 129.955L443.17 146.642L444.228 146.55ZM439.757 129.862L439.482 128.836L394.522 132.769L394.797 133.796L395.072 134.822L440.032 130.888L439.757 129.862ZM394.797 133.796L395.855 133.703L393.176 123.705L392.118 123.798L391.059 123.89L393.738 133.888L394.797 133.796ZM398.693 148.338L398.74 147.33L397.263 147.044L397.635 148.431L398.693 148.338ZM457.616 159.735L458.674 159.643L458.47 158.883L457.662 158.727L457.616 159.735ZM461.614 174.659L462.187 175.613L462.876 175.326L462.673 174.566L461.614 174.659ZM411.359 195.608L410.301 195.7L410.672 197.087L411.931 196.562L411.359 195.608ZM408.601 185.316L408.027 184.362L407.34 184.651L407.543 185.408L408.601 185.316ZM452.885 166.695L453.943 166.602L453.571 165.212L452.31 165.742L452.885 166.695ZM453.397 168.606L453.352 169.615L454.826 169.898L454.455 168.514L453.397 168.606ZM401.451 158.63L400.393 158.723L400.597 159.483L401.406 159.639L401.451 158.63ZM412.666 157.047L412.391 156.021L411.333 156.113L411.608 157.14L412.666 157.047ZM422.295 156.205L423.353 156.112L423.078 155.086L422.02 155.178L422.295 156.205ZM429.78 184.14L430.055 185.166L431.114 185.074L430.839 184.047L429.78 184.14ZM420.151 184.982L419.093 185.075L419.368 186.101L420.426 186.009L420.151 184.982ZM398.693 148.338L398.647 149.347L457.569 160.744L457.616 159.735L457.662 158.727L398.74 147.33L398.693 148.338ZM457.616 159.735L456.557 159.828L460.556 174.751L461.614 174.659L462.673 174.566L458.674 159.643L457.616 159.735ZM461.614 174.659L461.042 173.704L410.787 194.653L411.359 195.608L411.931 196.562L462.187 175.613L461.614 174.659ZM411.359 195.608L412.418 195.515L409.66 185.223L408.601 185.316L407.543 185.408L410.301 195.7L411.359 195.608ZM408.601 185.316L409.176 186.269L453.46 167.648L452.885 166.695L452.31 165.742L408.027 184.362L408.601 185.316ZM452.885 166.695L451.826 166.788L452.339 168.699L453.397 168.606L454.455 168.514L453.943 166.602L452.885 166.695ZM453.397 168.606L453.442 167.598L401.496 157.621L401.451 158.63L401.406 159.639L453.352 169.615L453.397 168.606ZM401.451 158.63L402.509 158.538L399.752 148.246L398.693 148.338L397.635 148.431L400.393 158.723L401.451 158.63ZM412.666 157.047L412.941 158.073L422.57 157.231L422.295 156.205L422.02 155.178L412.391 156.021L412.666 157.047ZM422.295 156.205L421.237 156.297L428.722 184.233L429.78 184.14L430.839 184.047L423.353 156.112L422.295 156.205ZM429.78 184.14L429.505 183.114L419.876 183.956L420.151 184.982L420.426 186.009L430.055 185.166L429.78 184.14ZM420.151 184.982L421.21 184.89L413.724 156.954L412.666 157.047L411.608 157.14L419.093 185.075L420.151 184.982ZM414.453 207.153L414.178 206.127L413.119 206.219L413.394 207.245L414.453 207.153ZM459.413 203.219L459.688 204.246L460.746 204.153L460.471 203.127L459.413 203.219ZM454.941 186.532L454.666 185.505L453.608 185.598L453.883 186.624L454.941 186.532ZM464.57 185.689L465.628 185.597L465.353 184.57L464.295 184.663L464.57 185.689ZM476.192 229.062L476.467 230.089L477.525 229.996L477.25 228.97L476.192 229.062ZM466.563 229.905L465.505 229.997L465.78 231.024L466.838 230.931L466.563 229.905ZM462.091 213.217L463.15 213.125L462.875 212.098L461.816 212.191L462.091 213.217ZM417.132 217.151L416.073 217.243L416.348 218.269L417.407 218.177L417.132 217.151ZM414.453 207.153L414.728 208.179L459.688 204.246L459.413 203.219L459.138 202.193L414.178 206.127L414.453 207.153ZM459.413 203.219L460.471 203.127L455.999 186.439L454.941 186.532L453.883 186.624L458.354 203.312L459.413 203.219ZM454.941 186.532L455.216 187.558L464.845 186.715L464.57 185.689L464.295 184.663L454.666 185.505L454.941 186.532ZM464.57 185.689L463.512 185.782L475.133 229.155L476.192 229.062L477.25 228.97L465.628 185.597L464.57 185.689ZM476.192 229.062L475.917 228.036L466.288 228.879L466.563 229.905L466.838 230.931L476.467 230.089L476.192 229.062ZM466.563 229.905L467.621 229.812L463.15 213.125L462.091 213.217L461.033 213.31L465.505 229.997L466.563 229.905ZM462.091 213.217L461.816 212.191L416.857 216.125L417.132 217.151L417.407 218.177L462.366 214.243L462.091 213.217ZM417.132 217.151L418.19 217.058L415.511 207.06L414.453 207.153L413.394 207.245L416.073 217.243L417.132 217.151ZM422.595 237.54L422.32 236.514L421.262 236.606L421.537 237.633L422.595 237.54ZM477.184 232.764L478.242 232.671L477.967 231.645L476.909 231.738L477.184 232.764ZM479.863 242.762L480.137 243.788L481.196 243.696L480.921 242.669L479.863 242.762ZM425.274 247.538L424.215 247.63L424.49 248.657L425.549 248.564L425.274 247.538ZM422.595 237.54L422.87 238.566L477.459 233.79L477.184 232.764L476.909 231.738L422.32 236.514L422.595 237.54ZM477.184 232.764L476.125 232.857L478.804 242.855L479.863 242.762L480.921 242.669L478.242 232.671L477.184 232.764ZM479.863 242.762L479.588 241.736L424.999 246.512L425.274 247.538L425.549 248.564L480.137 243.788L479.863 242.762ZM425.274 247.538L426.332 247.445L423.653 237.447L422.595 237.54L421.537 237.633L424.215 247.63L425.274 247.538ZM432.278 264.41L431.229 263.96L431.228 263.962L432.278 264.41ZM439.874 254.679L439.157 253.802L439.153 253.804L439.874 254.679ZM469.67 252.073L469.9 251.114L469.895 251.112L469.67 252.073ZM482.014 260.059L482.781 259.452L482.779 259.45L482.014 260.059ZM489.352 287.443L488.303 286.992L488.302 286.995L489.352 287.443ZM481.755 297.173L481.038 296.296L481.034 296.298L481.755 297.173ZM451.959 299.78L452.189 298.822L452.184 298.82L451.959 299.78ZM439.615 291.794L440.382 291.187L440.38 291.185L439.615 291.794ZM442.093 277.583L441.03 277.661L442.093 277.583ZM446.575 285.768L445.849 286.416L445.849 286.416L446.575 285.768ZM454.473 290.193L454.62 289.209L454.612 289.206L454.473 290.193ZM474.261 288.462L473.606 287.547L473.599 287.551L474.261 288.462ZM479.404 282.896L480.436 283.39L480.436 283.39L479.404 282.896ZM479.547 274.306L480.609 274.229L480.609 274.229L479.547 274.306ZM467.157 261.659L467.305 260.675L467.296 260.673L467.157 261.659ZM447.368 263.391L446.713 262.476L446.706 262.48L447.368 263.391ZM442.235 268.994L441.203 268.499L441.203 268.499L442.235 268.994ZM432.388 278.432L433.446 278.34C432.069 273.198 432.047 268.717 433.327 264.858L432.278 264.41L431.228 263.962C429.819 268.213 429.871 273.08 431.33 278.525L432.388 278.432ZM432.278 264.41L433.326 264.86C434.617 261.012 437.031 257.913 440.595 255.555L439.874 254.679L439.153 253.804C435.291 256.359 432.642 259.747 431.229 263.96L432.278 264.41ZM439.874 254.679L440.591 255.557C444.162 253.223 448.692 251.798 454.22 251.315L453.945 250.288L453.67 249.262C447.876 249.769 443.026 251.272 439.157 253.802L439.874 254.679ZM453.945 250.288L454.22 251.315C459.748 250.831 464.816 251.416 469.446 253.033L469.67 252.073L469.895 251.112C464.879 249.36 459.464 248.755 453.67 249.262L453.945 250.288ZM469.67 252.073L469.441 253.031C474.076 254.672 478.003 257.216 481.25 260.668L482.014 260.059L482.779 259.45C479.225 255.672 474.923 252.892 469.9 251.114L469.67 252.073ZM482.014 260.059L481.247 260.665C484.489 264.129 486.815 268.409 488.193 273.55L489.251 273.457L490.31 273.365C488.851 267.92 486.352 263.267 482.781 259.452L482.014 260.059ZM489.251 273.457L488.193 273.55C489.571 278.691 489.588 283.159 488.303 286.992L489.352 287.443L490.4 287.893C491.818 283.665 491.768 278.809 490.31 273.365L489.251 273.457ZM489.352 287.443L488.302 286.995C487.018 290.867 484.605 293.963 481.038 296.296L481.755 297.173L482.473 298.051C486.345 295.519 488.995 292.129 490.401 287.89L489.352 287.443ZM481.755 297.173L481.034 296.298C477.471 298.656 472.945 300.091 467.419 300.575L467.694 301.601L467.969 302.627C473.765 302.12 478.614 300.604 482.476 298.048L481.755 297.173ZM467.694 301.601L467.419 300.575C461.893 301.058 456.823 300.462 452.189 298.822L451.959 299.78L451.729 300.739C456.753 302.517 462.173 303.134 467.969 302.627L467.694 301.601ZM451.959 299.78L452.184 298.82C447.559 297.204 443.635 294.662 440.382 291.187L439.615 291.794L438.848 292.401C442.409 296.205 446.714 298.986 451.734 300.74L451.959 299.78ZM439.615 291.794L440.38 291.185C437.147 287.747 434.824 283.481 433.446 278.34L432.388 278.432L431.33 278.525C432.789 283.969 435.284 288.611 438.851 292.403L439.615 291.794ZM442.093 277.583L441.03 277.661C441.919 281.178 443.506 284.122 445.849 286.416L446.575 285.768L447.301 285.12C445.365 283.224 443.964 280.711 443.155 277.506L442.093 277.583ZM446.575 285.768L445.849 286.416C448.169 288.689 451.012 290.272 454.333 291.18L454.473 290.193L454.612 289.206C451.681 288.405 449.259 287.038 447.301 285.12L446.575 285.768ZM454.473 290.193L454.325 291.178C457.628 292.105 461.236 292.382 465.133 292.041L464.858 291.015L464.583 289.989C460.898 290.311 457.582 290.04 454.62 289.209L454.473 290.193ZM464.858 291.015L465.133 292.041C469.029 291.7 472.304 290.821 474.923 289.373L474.261 288.462L473.599 287.551C471.262 288.843 468.268 289.666 464.583 289.989L464.858 291.015ZM474.261 288.462L474.916 289.377C477.559 287.945 479.414 285.95 480.436 283.39L479.404 282.896L478.372 282.401C477.505 284.571 475.932 286.287 473.606 287.547L474.261 288.462ZM479.404 282.896L480.436 283.39C481.466 280.812 481.495 277.739 480.609 274.229L479.547 274.306L478.484 274.384C479.296 277.597 479.23 280.25 478.372 282.401L479.404 282.896ZM479.547 274.306L480.609 274.229C479.72 270.711 478.133 267.768 475.79 265.473L475.064 266.121L474.338 266.77C476.274 268.665 477.675 271.179 478.484 274.384L479.547 274.306ZM475.064 266.121L475.79 265.473C473.472 263.203 470.628 261.608 467.305 260.675L467.157 261.659L467.009 262.644C469.95 263.47 472.378 264.85 474.338 266.77L475.064 266.121ZM467.157 261.659L467.296 260.673C464.003 259.772 460.401 259.507 456.507 259.848L456.782 260.874L457.056 261.901C460.744 261.578 464.059 261.837 467.017 262.646L467.157 261.659ZM456.782 260.874L456.507 259.848C452.613 260.189 449.337 261.055 446.713 262.476L447.368 263.391L448.024 264.305C450.369 263.035 453.368 262.223 457.056 261.901L456.782 260.874ZM447.368 263.391L446.706 262.48C444.074 263.936 442.224 265.941 441.203 268.499L442.235 268.994L443.268 269.488C444.135 267.316 445.707 265.587 448.03 264.302L447.368 263.391ZM442.235 268.994L441.203 268.499C440.174 271.078 440.144 274.15 441.03 277.661L442.093 277.583L443.155 277.506C442.344 274.293 442.409 271.639 443.268 269.488L442.235 268.994ZM441.578 308.386L441.303 307.36L440.245 307.453L440.52 308.479L441.578 308.386ZM496.167 303.61L497.225 303.518L496.95 302.491L495.892 302.584L496.167 303.61ZM498.885 313.755L499.693 314.564L500.092 314.218L499.943 313.663L498.885 313.755ZM468.658 339.949L467.85 339.14L465.372 341.287L468.933 340.975L468.658 339.949ZM505.051 336.765L506.109 336.672L505.834 335.646L504.776 335.739L505.051 336.765ZM507.769 346.91L508.044 347.936L509.102 347.844L508.827 346.817L507.769 346.91ZM453.18 351.686L452.122 351.778L452.397 352.805L453.455 352.712L453.18 351.686ZM450.462 341.541L449.653 340.732L449.255 341.078L449.404 341.633L450.462 341.541ZM480.689 315.347L481.497 316.156L483.975 314.009L480.414 314.321L480.689 315.347ZM444.296 318.531L443.238 318.624L443.513 319.65L444.571 319.557L444.296 318.531ZM441.578 308.386L441.853 309.412L496.442 304.636L496.167 303.61L495.892 302.584L441.303 307.36L441.578 308.386ZM496.167 303.61L495.108 303.703L497.827 313.848L498.885 313.755L499.943 313.663L497.225 303.518L496.167 303.61ZM498.885 313.755L498.077 312.946L467.85 339.14L468.658 339.949L469.467 340.758L499.693 314.564L498.885 313.755ZM468.658 339.949L468.933 340.975L505.326 337.791L505.051 336.765L504.776 335.739L468.383 338.923L468.658 339.949ZM505.051 336.765L503.992 336.858L506.711 347.003L507.769 346.91L508.827 346.817L506.109 336.672L505.051 336.765ZM507.769 346.91L507.494 345.884L452.905 350.66L453.18 351.686L453.455 352.712L508.044 347.936L507.769 346.91ZM453.18 351.686L454.239 351.593L451.52 341.448L450.462 341.541L449.404 341.633L452.122 351.778L453.18 351.686ZM450.462 341.541L451.27 342.35L481.497 316.156L480.689 315.347L479.88 314.538L449.653 340.732L450.462 341.541ZM480.689 315.347L480.414 314.321L444.021 317.505L444.296 318.531L444.571 319.557L480.964 316.373L480.689 315.347ZM444.296 318.531L445.355 318.438L442.636 308.294L441.578 308.386L440.52 308.479L443.238 318.624L444.296 318.531Z" fill="#0F1D40" fill-opacity="0.18" mask="url(#path-1-outside-1_82_11)"/>
<path d="M311.328 -416.245C309.91 -421.538 309.873 -426.212 311.218 -430.267C312.569 -434.298 315.101 -437.541 318.814 -439.998C322.534 -442.43 327.224 -443.894 332.885 -444.389C338.546 -444.884 343.788 -444.29 348.611 -442.605C353.44 -440.896 357.554 -438.234 360.954 -434.619C364.361 -430.979 366.773 -426.513 368.191 -421.22C369.82 -415.143 369.631 -409.91 367.626 -405.521C365.627 -401.108 362.2 -397.824 357.346 -395.669L351.766 -405.488C354.815 -406.758 356.936 -408.636 358.132 -411.123C359.353 -413.613 359.472 -416.695 358.487 -420.371C357.587 -423.728 356.065 -426.466 353.919 -428.586C351.78 -430.681 349.156 -432.169 346.049 -433.051C342.942 -433.933 339.493 -434.208 335.702 -433.876C331.911 -433.545 328.764 -432.693 326.261 -431.32C323.758 -429.947 322.034 -428.079 321.09 -425.714C320.152 -423.325 320.133 -420.451 321.033 -417.094C322.018 -413.418 323.744 -410.497 326.213 -408.331C328.682 -406.164 331.69 -404.735 335.238 -404.042L335.056 -393.718C329.295 -394.945 324.306 -397.493 320.088 -401.362C315.876 -405.207 312.956 -410.168 311.328 -416.245ZM325.237 -364.337C323.818 -369.63 323.782 -374.304 325.126 -378.36C326.478 -382.39 329.01 -385.634 332.723 -388.09C336.442 -390.522 341.133 -391.986 346.794 -392.481C352.455 -392.977 357.697 -392.382 362.519 -390.697C367.348 -388.988 371.463 -386.326 374.863 -382.711C378.269 -379.071 380.682 -374.605 382.1 -369.312C383.518 -364.019 383.552 -359.358 382.2 -355.327C380.856 -351.272 378.323 -348.028 374.604 -345.596C370.891 -343.14 366.204 -341.664 360.543 -341.168C354.882 -340.673 349.637 -341.28 344.808 -342.989C339.985 -344.674 335.87 -347.336 332.464 -350.976C329.064 -354.59 326.655 -359.044 325.237 -364.337ZM334.941 -365.186C335.79 -361.825 337.284 -359.097 339.424 -357.002C341.563 -354.906 344.195 -353.431 347.321 -352.576C350.454 -351.697 353.916 -351.423 357.706 -351.754C361.497 -352.086 364.632 -352.937 367.11 -354.308C369.594 -355.654 371.309 -357.509 372.253 -359.874C373.197 -362.239 373.244 -365.102 372.395 -368.463C371.546 -371.825 370.052 -374.553 367.913 -376.648C365.774 -378.743 363.138 -380.231 360.006 -381.11C356.88 -381.965 353.421 -382.227 349.63 -381.895C345.839 -381.564 342.702 -380.725 340.217 -379.379C337.739 -378.008 336.028 -376.141 335.084 -373.776C334.14 -371.411 334.092 -368.548 334.941 -365.186ZM334.427 -334.383L389.015 -339.159L391.734 -329.014L361.507 -302.821L397.899 -306.005L400.618 -295.86L346.029 -291.084L343.311 -301.229L373.538 -327.422L337.145 -324.239L334.427 -334.383ZM352.21 -263.673C351.159 -267.593 350.918 -271.196 351.486 -274.481C352.086 -277.744 353.441 -280.508 355.549 -282.774C357.69 -285.018 360.533 -286.571 364.078 -287.433L368.467 -277.133C365.531 -276.124 363.524 -274.393 362.448 -271.942C361.372 -269.49 361.228 -266.794 362.016 -263.853C362.456 -262.212 363.148 -260.642 364.092 -259.145C365.037 -257.647 366.158 -256.454 367.457 -255.564C368.763 -254.65 370.173 -254.26 371.69 -254.392C372.246 -254.441 372.753 -254.573 373.213 -254.789C373.704 -254.982 374.128 -255.283 374.485 -255.69C374.841 -256.098 375.129 -256.662 375.35 -257.383C375.577 -258.08 375.717 -258.958 375.77 -260.016L376.256 -274.128C376.284 -275.184 376.392 -276.422 376.58 -277.843C376.775 -279.239 377.22 -280.62 377.914 -281.985C378.609 -283.35 379.688 -284.535 381.152 -285.541C382.647 -286.524 384.696 -287.13 387.299 -287.358C390.964 -287.678 394.249 -287.05 397.154 -285.474C400.06 -283.897 402.507 -281.666 404.496 -278.78C406.485 -275.895 407.952 -272.637 408.899 -269.009C409.826 -265.353 410.055 -262.037 409.585 -259.062C409.115 -256.087 407.952 -253.527 406.095 -251.383C404.263 -249.242 401.756 -247.593 398.574 -246.437L393.783 -257.078C395.447 -257.624 396.745 -258.478 397.675 -259.638C398.606 -260.797 399.19 -262.14 399.428 -263.666C399.673 -265.167 399.607 -266.716 399.23 -268.313C398.861 -269.886 398.236 -271.348 397.356 -272.701C396.508 -274.031 395.499 -275.097 394.327 -275.897C393.162 -276.673 391.936 -277.004 390.647 -276.892C389.459 -276.788 388.581 -276.347 388.013 -275.57C387.471 -274.795 387.117 -273.849 386.951 -272.731C386.785 -271.613 386.701 -270.477 386.7 -269.323L386.584 -259.909C386.573 -258.503 386.474 -256.94 386.289 -255.218C386.129 -253.499 385.697 -251.831 384.992 -250.214C384.319 -248.575 383.216 -247.187 381.685 -246.05C380.159 -244.889 378.019 -244.187 375.265 -243.946C372.333 -243.69 369.607 -244.066 367.087 -245.074C364.598 -246.06 362.364 -247.495 360.385 -249.378C358.432 -251.264 356.76 -253.45 355.369 -255.936C353.985 -258.398 352.932 -260.977 352.21 -263.673ZM365.051 -215.749C363.908 -220.013 363.788 -223.839 364.691 -227.229C365.618 -230.62 367.457 -233.364 370.206 -235.461C372.955 -237.557 376.515 -238.797 380.887 -239.179L414.929 -242.157L417.724 -232.019L383.682 -229.041C381.887 -228.884 380.336 -228.447 379.028 -227.731C377.719 -227.014 376.672 -226.095 375.887 -224.973C375.108 -223.827 374.611 -222.542 374.398 -221.119C374.216 -219.673 374.335 -218.166 374.756 -216.598C375.189 -214.981 375.88 -213.511 376.829 -212.19C377.785 -210.844 378.931 -209.703 380.268 -208.767C381.605 -207.83 383.082 -207.145 384.699 -206.709C386.323 -206.249 388.019 -206.097 389.788 -206.252L423.83 -209.23L426.548 -199.085L392.43 -196.1C388.058 -195.717 384.012 -196.291 380.291 -197.822C376.57 -199.352 373.379 -201.656 370.718 -204.734C368.082 -207.813 366.193 -211.485 365.051 -215.749ZM374.118 -186.253L428.707 -191.029L431.386 -181.031L386.426 -177.097L392.532 -154.308L382.904 -153.466L374.118 -186.253ZM385.118 -145.202L430.078 -149.136L425.606 -165.823L435.235 -166.666L446.857 -123.293L437.228 -122.45L432.757 -139.138L387.797 -135.204L385.118 -145.202ZM391.693 -120.662L450.616 -109.265L454.614 -94.3413L404.359 -73.3923L401.601 -83.6843L445.885 -102.305L446.397 -100.394L394.451 -110.37L391.693 -120.662ZM405.666 -111.953L415.295 -112.795L422.78 -84.86L413.151 -84.0176L405.666 -111.953ZM407.453 -61.8472L452.413 -65.7807L447.941 -82.4683L457.57 -83.3108L469.192 -39.9375L459.563 -39.0951L455.091 -55.7828L410.132 -51.8493L407.453 -61.8472ZM415.595 -31.4601L470.184 -36.236L472.863 -26.2381L418.274 -21.4622L415.595 -31.4601ZM425.388 9.43218C423.97 4.13918 423.933 -0.534861 425.278 -4.58993C426.629 -8.6205 429.161 -11.8641 432.874 -14.3206C436.594 -16.7527 441.284 -18.2164 446.945 -18.7116C452.606 -19.2069 457.848 -18.6122 462.67 -16.9275C467.5 -15.2182 471.614 -12.5562 475.014 -8.9413C478.421 -5.30191 480.833 -0.835713 482.251 4.45729C483.669 9.75029 483.703 14.4121 482.352 18.4426C481.007 22.4977 478.475 25.7413 474.755 28.1733C471.042 30.6299 466.355 32.1058 460.694 32.6011C455.033 33.0964 449.788 32.4894 444.959 30.7802C440.136 29.0955 436.022 26.4334 432.615 22.794C429.215 19.1791 426.806 14.7252 425.388 9.43218ZM435.093 8.58313C435.942 11.9447 437.436 14.673 439.575 16.768C441.714 18.8631 444.347 20.3382 447.473 21.1932C450.605 22.0728 454.067 22.3468 457.858 22.0151C461.649 21.6834 464.783 20.8324 467.261 19.462C469.745 18.116 471.46 16.2607 472.404 13.8959C473.348 11.5311 473.396 8.6679 472.547 5.30634C471.698 1.94478 470.204 -0.783524 468.064 -2.87857C465.925 -4.97362 463.289 -6.46093 460.157 -7.34051C457.031 -8.19558 453.572 -8.45728 449.782 -8.12562C445.991 -7.79397 442.853 -6.95517 440.368 -5.60925C437.891 -4.23882 436.179 -2.3712 435.235 -0.00640362C434.291 2.35839 434.244 5.22157 435.093 8.58313ZM434.578 39.3861L489.167 34.6102L491.885 44.7551L461.658 70.9489L498.051 67.765L500.769 77.9099L446.18 82.6858L443.462 72.5409L473.689 46.3471L437.296 49.531L434.578 39.3861Z" fill="#0F1D40" fill-opacity="0.09"/>
<path d="M33 89L33.0308 247.844L93.847 101.103L33.0885 247.868L145.43 135.57L33.1321 247.912L179.897 187.153L33.1564 247.969L192 248L33.1564 248.031L179.897 308.847L33.1321 248.088L145.43 360.43L33.0885 248.132L93.847 394.897L33.0308 248.156L33 407L32.9692 248.156L-27.847 394.897L32.9115 248.132L-79.4299 360.43L32.8679 248.088L-113.897 308.847L32.8436 248.031L-126 248L32.8436 247.969L-113.897 187.153L32.8679 247.912L-79.4299 135.57L32.9115 247.868L-27.847 101.103L32.9692 247.844L33 89Z" stroke="#0F1D40" stroke-opacity="0.09"/>
</g>
<defs>
<clipPath id="clip0_82_11">
<rect width="495" height="268" fill="white"/>
</clipPath>
</defs>
</svg>
