<svg width="494" height="328" viewBox="0 0 494 328" fill="none" xmlns="http://www.w3.org/2000/svg">
<g clip-path="url(#clip0_83_13)">
<path d="M424.469 296.328C431.234 298.943 439.224 302.161 446.038 301.409C451.05 311.401 458.191 321.283 469.844 328.499H439.247C431.455 317.732 425.492 308.057 424.469 296.328Z" fill="#0F1D40" fill-opacity="0.09"/>
<path d="M404.258 159.021C411.624 160.557 419.082 162.395 426.459 164.116C431.887 169.648 432.202 172.365 434.94 179.979C433.968 183.282 433.079 186.096 431.636 189.056C429.772 189.158 427.746 189.225 426.092 189.211C428.299 185.523 429.082 182.229 427.802 176.465C426.248 183.348 423.16 187.302 420.141 188.87C419.045 188.75 417.988 188.612 416.97 188.456C419.23 184.721 420.039 181.421 418.745 175.598C417.337 181.837 414.667 185.669 411.931 187.499C410.248 187.122 408.576 186.689 406.898 186.223C408.892 182.721 409.558 179.469 408.333 173.953C407.12 179.328 404.97 182.918 402.648 184.979C400.978 184.464 399.309 183.94 397.644 183.408C397.891 181.319 397.793 179.005 397.259 176.502L396.578 173.322L390.218 174.681L390.897 177.861C392.211 184.007 390.419 186.686 388.258 188.22C386.098 189.753 382.951 189.47 382.466 189.159L379.728 187.403L376.216 192.877C377.609 193.722 379.07 194.842 380.487 195.428C373.749 205.429 368.859 217.637 371.543 229.23C372.397 232.654 373.721 235.822 375.775 238.259C371.178 242.642 368.11 246.217 364.562 250.725C365.962 249.823 367.37 248.935 368.787 248.062C372.905 245.529 377.399 242.925 381.427 240.906C387.212 238.088 392.76 234.328 398.673 233.49C406.821 232.418 415.391 235.224 425.165 241.101C422.321 244.251 420.366 246.691 417.826 249.876C420.348 248.309 423.12 246.599 426.194 244.734C437.957 238.418 449.822 227.309 462.485 226.672C473.528 226.277 484.148 232.075 494.889 240.607L496.496 241.886V328.499H484.947C468.621 322.199 455.937 307.667 449.888 294.347L449.797 294.143L449.68 293.954C446.261 288.443 445.652 283.228 443.613 277.792C441.574 272.356 437.504 267.054 428.479 263.788C426.907 263.008 426.647 263.277 425.359 264.292C414.351 272.967 404.659 275.862 395.283 275.981C383.5 275.419 374.166 272.41 364.323 268.979C365.756 270.253 367.492 271.584 369.377 272.867C374.914 276.638 381.741 280.068 386.108 281.828C391.425 282.553 396.355 282.701 401.271 282.051C404.87 286.419 410.513 289.407 414.768 291.688C391.671 296.755 372.897 292.017 354.286 283.415C357.727 282.759 361.154 282.081 364.401 281.457C352.971 279.859 340.921 280.096 330.182 280.182C328.706 280.174 327.575 280.018 327.038 279.861C321.919 261.408 328.518 244.49 339.43 227.391C350.365 210.255 365.51 193.387 376.247 175.706C383.871 169.471 393.808 164.34 404.258 159.021Z" fill="#0F1D40" fill-opacity="0.09"/>
<path d="M427.835 270.535C434.192 273.149 435.996 276.005 437.523 280.076C438.968 283.928 439.774 289.137 442.756 294.896C431.089 292.59 417.598 287.224 408.844 280.41C414.992 278.568 421.33 275.406 427.835 270.535Z" fill="#0F1D40" fill-opacity="0.09"/>
<path d="M415.196 194.897C419.445 195.31 424.081 195.751 427.864 195.705C427.001 197.429 426.498 200.065 424.789 201.067C420.749 201.488 417.345 201.789 413.981 200.437C412.018 199.275 413.325 194.996 415.196 194.897Z" fill="#0F1D40" fill-opacity="0.09"/>
<path d="M395.607 189.586C399.827 190.887 404.174 192.269 407.839 193.204C406.926 194.985 406.489 197.058 406.612 199.059C402.628 199.375 398.995 198.329 396.146 196.762C394.396 195.799 392.989 194.577 392.022 193.524C393.415 192.536 394.645 191.208 395.607 189.586Z" fill="#0F1D40" fill-opacity="0.09"/>
<path d="M139.935 286.219C72.663 286.129 18.0895 231.555 18.0001 164.284C17.9286 110.505 61.505 66.9286 115.284 67.0001C158.317 67.0573 193.252 101.992 193.309 145.025C193.355 179.48 165.49 207.344 131.035 207.298C103.472 207.261 81.13 184.92 81.094 157.356C81.065 135.334 98.919 117.48 120.941 117.509C138.578 117.533 152.885 131.84 152.908 149.477C152.927 163.596 141.522 175.002 127.402 174.983C116.126 174.968 106.958 165.8 106.943 154.524" stroke="#0F1D40" stroke-opacity="0.09" stroke-linecap="round"/>
</g>
<defs>
<clipPath id="clip0_83_13">
<rect width="494" height="328" fill="white"/>
</clipPath>
</defs>
</svg>
