<svg width="1533" height="706" viewBox="0 0 1533 706" fill="none" xmlns="http://www.w3.org/2000/svg">
<g clip-path="url(#clip0_66_34)">
<mask id="path-1-outside-1_66_34" maskUnits="userSpaceOnUse" x="-1113.39" y="552.122" width="1816.73" height="196.962" fill="black">
<rect fill="white" x="-1113.39" y="552.122" width="1816.73" height="196.962"/>
<path d="M-1108.14 741.205L-1076.25 560.333H-998.706C-996.92 560.333 -994.554 560.417 -991.607 560.584C-988.561 560.668 -985.885 560.919 -983.578 561.338C-972.904 563.013 -964.561 566.572 -958.549 572.014C-952.451 577.457 -948.475 584.324 -946.621 592.614C-944.751 600.82 -944.71 609.989 -946.497 620.121C-948.283 630.253 -951.608 639.464 -956.471 647.754C-961.234 655.961 -967.624 662.785 -975.641 668.228C-983.573 673.671 -993.129 677.23 -1004.31 678.904C-1006.75 679.239 -1009.51 679.491 -1012.6 679.658C-1015.69 679.826 -1018.09 679.909 -1019.79 679.909H-1062.64L-1073.45 741.205H-1108.14ZM-1057.02 648.006H-1015.7C-1013.91 648.006 -1011.94 647.922 -1009.78 647.754C-1007.63 647.587 -1005.61 647.252 -1003.74 646.75C-998.842 645.494 -994.859 643.4 -991.791 640.469C-988.709 637.455 -986.382 634.147 -984.812 630.546C-983.142 626.862 -982.019 623.387 -981.443 620.121C-980.868 616.856 -980.772 613.422 -981.158 609.822C-981.444 606.137 -982.603 602.83 -984.637 599.899C-986.657 596.884 -989.894 594.749 -994.349 593.493C-996.046 592.991 -997.943 592.656 -1000.04 592.488C-1002.14 592.321 -1004.08 592.237 -1005.86 592.237H-1047.19L-1057.02 648.006ZM-952.442 741.205L-920.55 560.333H-800.66L-806.285 592.237H-891.484L-898.305 630.923H-828.412L-834.037 662.827H-903.931L-912.125 709.301H-826.927L-832.552 741.205H-952.442ZM-812.185 741.205L-780.293 560.333H-702.747C-700.961 560.333 -698.595 560.417 -695.648 560.584C-692.602 560.668 -689.926 560.919 -687.619 561.338C-676.945 563.013 -668.602 566.572 -662.59 572.014C-656.492 577.457 -652.516 584.324 -650.662 592.614C-648.792 600.82 -648.751 609.989 -650.538 620.121C-653.21 635.278 -659.325 648.257 -668.882 659.059C-678.425 669.777 -691.58 676.392 -708.349 678.904L-723.831 679.909H-766.685L-777.493 741.205H-812.185ZM-708.62 741.205L-731.864 667.6L-694.956 660.817L-669.337 741.205H-708.62ZM-761.06 648.006H-719.736C-717.95 648.006 -715.98 647.922 -713.825 647.754C-711.67 647.587 -709.655 647.252 -707.781 646.75C-702.883 645.494 -698.9 643.4 -695.832 640.469C-692.75 637.455 -690.423 634.147 -688.853 630.546C-687.183 626.862 -686.06 623.387 -685.484 620.121C-684.909 616.856 -684.813 613.422 -685.199 609.822C-685.485 606.137 -686.644 602.83 -688.678 599.899C-690.698 596.884 -693.935 594.749 -698.39 593.493C-700.087 592.991 -701.984 592.656 -704.08 592.488C-706.176 592.321 -708.117 592.237 -709.903 592.237H-751.226L-761.06 648.006ZM-651.501 741.205L-619.609 560.333H-507.371L-513.395 594.498H-590.941L-597.851 633.687H-535.61L-541.634 667.851H-603.875L-616.809 741.205H-651.501ZM-448.282 744.973C-466.649 744.973 -481.812 741.037 -493.774 733.166C-505.65 725.295 -513.955 714.283 -518.687 700.132C-523.334 685.98 -524.004 669.526 -520.697 650.769C-517.389 632.012 -510.917 615.558 -501.279 601.406C-491.556 587.255 -479.369 576.243 -464.716 568.372C-449.979 560.501 -433.427 556.565 -415.061 556.565C-396.695 556.565 -381.573 560.501 -369.697 568.372C-357.735 576.243 -349.431 587.255 -344.784 601.406C-340.052 615.558 -339.339 632.012 -342.647 650.769C-345.954 669.526 -352.469 685.98 -362.192 700.132C-371.83 714.283 -384.017 725.295 -398.755 733.166C-413.407 741.037 -429.916 744.973 -448.282 744.973ZM-442.613 712.818C-430.993 712.985 -420.864 710.515 -412.226 705.407C-403.588 700.299 -396.529 693.056 -391.049 683.677C-385.484 674.299 -381.594 663.329 -379.379 650.769C-377.164 638.208 -377.201 627.323 -379.488 618.112C-381.69 608.901 -386.209 601.741 -393.046 596.633C-399.883 591.525 -409.111 588.887 -420.731 588.72C-432.35 588.553 -442.479 591.023 -451.117 596.131C-459.756 601.239 -466.857 608.482 -472.422 617.86C-477.902 627.239 -481.749 638.208 -483.964 650.769C-486.179 663.329 -486.185 674.215 -483.983 683.426C-481.696 692.637 -477.134 699.797 -470.297 704.905C-463.46 710.013 -454.232 712.65 -442.613 712.818ZM-343.336 741.205L-311.443 560.333H-233.897C-232.112 560.333 -229.746 560.417 -226.799 560.584C-223.753 560.668 -221.076 560.919 -218.769 561.338C-208.096 563.013 -199.753 566.572 -193.74 572.014C-187.643 577.457 -183.667 584.324 -181.812 592.614C-179.943 600.82 -179.902 609.989 -181.688 620.121C-184.361 635.278 -190.476 648.257 -200.033 659.059C-209.576 669.777 -222.731 676.392 -239.499 678.904L-254.982 679.909H-297.836L-308.644 741.205H-343.336ZM-239.771 741.205L-263.015 667.6L-226.107 660.817L-200.488 741.205H-239.771ZM-292.211 648.006H-250.887C-249.101 648.006 -247.131 647.922 -244.975 647.754C-242.82 647.587 -240.806 647.252 -238.931 646.75C-234.033 645.494 -230.05 643.4 -226.983 640.469C-223.9 637.455 -221.574 634.147 -220.004 630.546C-218.334 626.862 -217.211 623.387 -216.635 620.121C-216.059 616.856 -215.964 613.422 -216.35 609.822C-216.635 606.137 -217.795 602.83 -219.829 599.899C-221.848 596.884 -225.086 594.749 -229.541 593.493C-231.238 592.991 -233.134 592.656 -235.231 592.488C-237.327 592.321 -239.268 592.237 -241.053 592.237H-282.377L-292.211 648.006ZM-182.652 741.205L-150.759 560.333H-119.639L-80.1015 680.412L1.78197 560.333H32.9024L1.0099 741.205H-31.386L-12.3391 633.184L-84.6989 741.205H-96.943L-131.209 633.184L-150.256 741.205H-182.652ZM13.8538 741.205L101.865 560.333H153.648L177.874 741.205H142.162L120.293 581.686H126.925L49.5658 741.205H13.8538ZM54.1694 703.523L59.7949 671.619H156.727L151.102 703.523H54.1694ZM190.53 741.205L222.423 560.333H257.625L316.205 680.914L337.467 560.333H372.668L340.776 741.205H305.574L246.994 620.624L225.732 741.205H190.53ZM444.318 744.973C425.952 744.973 410.788 741.037 398.826 733.166C386.95 725.295 378.646 714.283 373.913 700.132C369.266 685.98 368.596 669.526 371.904 650.769C375.211 632.012 381.684 615.558 391.321 601.406C401.044 587.255 413.232 576.243 427.884 568.372C442.621 560.501 459.173 556.565 477.539 556.565C498.626 556.565 515.404 561.715 527.873 572.014C540.427 582.314 548.087 596.256 550.853 613.841L514.223 623.387C512.756 612.417 508.515 603.918 501.501 597.889C494.501 591.776 484.624 588.72 471.87 588.72C460.221 588.72 450.035 591.274 441.311 596.382C432.673 601.49 425.579 608.691 420.029 617.986C414.478 627.281 410.596 638.208 408.381 650.769C406.166 663.329 406.195 674.257 408.467 683.552C410.74 692.847 415.295 700.048 422.131 705.156C429.053 710.264 438.339 712.818 449.988 712.818C462.742 712.818 473.697 709.761 482.853 703.649C492.008 697.536 499.246 689.037 504.567 678.151L537.83 687.697C528.863 705.282 516.286 719.224 500.1 729.523C483.999 739.823 465.405 744.973 444.318 744.973ZM546.275 741.205L578.168 560.333H698.058L692.432 592.237H607.234L600.412 630.923H670.306L664.68 662.827H594.787L586.592 709.301H671.791L666.165 741.205H546.275Z"/>
</mask>
<path d="M-1108.14 741.205H-1111.7L-1112.32 744.711H-1108.76L-1108.14 741.205ZM-1076.25 560.333L-1075.63 556.827H-1079.19L-1079.81 560.333H-1076.25ZM-991.607 560.584L-992.428 564.085L-992.376 564.088L-992.324 564.09L-991.607 560.584ZM-983.578 561.338L-984.812 564.79L-984.773 564.797L-984.734 564.803L-983.578 561.338ZM-958.549 572.014L-961.245 574.763L-961.238 574.769L-961.231 574.775L-958.549 572.014ZM-946.621 592.614L-950.16 593.899L-950.158 593.91L-946.621 592.614ZM-956.471 647.754L-959.541 646.441L-959.546 646.449L-959.551 646.458L-956.471 647.754ZM-975.641 668.228L-977.35 665.467L-977.359 665.474L-977.369 665.48L-975.641 668.228ZM-1004.31 678.904L-1004.42 682.376L-1004.39 682.373L-1004.37 682.369L-1004.31 678.904ZM-1012.6 679.658L-1013.02 683.159L-1013.02 683.159L-1012.6 679.658ZM-1062.64 679.909L-1062.03 676.403H-1065.59L-1066.21 679.909H-1062.64ZM-1073.45 741.205L-1074.07 744.711H-1070.51L-1069.89 741.205H-1073.45ZM-1057.02 648.006H-1060.58L-1061.2 651.512H-1057.64L-1057.02 648.006ZM-1009.78 647.754L-1010.12 651.25L-1010.12 651.25L-1009.78 647.754ZM-1003.74 646.75L-1004.08 643.366L-1004.1 643.372L-1004.12 643.378L-1003.74 646.75ZM-991.791 640.469L-989.49 642.751L-989.471 642.733L-989.452 642.714L-991.791 640.469ZM-984.812 630.546L-988.085 629.624L-988.097 629.651L-988.109 629.677L-984.812 630.546ZM-981.158 609.822L-984.762 610.672L-984.759 610.718L-984.754 610.764L-981.158 609.822ZM-984.637 599.899L-987.769 602.144L-987.756 602.162L-987.743 602.181L-984.637 599.899ZM-994.349 593.493L-995.922 596.865L-995.902 596.871L-995.883 596.876L-994.349 593.493ZM-1000.04 592.488L-1000.94 595.984L-1000.94 595.984L-1000.04 592.488ZM-1047.19 592.237L-1046.57 588.73H-1050.13L-1050.75 592.237H-1047.19ZM-1108.14 741.205H-1104.58L-1072.69 560.333H-1076.25H-1079.81L-1111.7 741.205H-1108.14ZM-1076.25 560.333L-1076.87 563.84H-999.324L-998.706 560.333L-998.087 556.827H-1075.63L-1076.25 560.333ZM-998.706 560.333L-999.324 563.84C-997.636 563.84 -995.345 563.92 -992.428 564.085L-991.607 560.584L-990.787 557.083C-993.763 556.914 -996.204 556.827 -998.087 556.827L-998.706 560.333ZM-991.607 560.584L-992.324 564.09C-989.41 564.17 -986.913 564.409 -984.812 564.79L-983.578 561.338L-982.343 557.886C-984.856 557.43 -987.712 557.166 -990.891 557.079L-991.607 560.584ZM-983.578 561.338L-984.734 564.803C-974.509 566.408 -966.75 569.779 -961.245 574.763L-958.549 572.014L-955.852 569.266C-962.373 563.364 -971.3 559.618 -982.421 557.873L-983.578 561.338ZM-958.549 572.014L-961.231 574.775C-955.569 579.829 -951.886 586.184 -950.16 593.899L-946.621 592.614L-943.081 591.328C-945.064 582.463 -949.333 575.085 -955.866 569.254L-958.549 572.014ZM-946.621 592.614L-950.158 593.91C-948.395 601.648 -948.338 610.368 -950.058 620.121H-946.497H-942.936C-941.083 609.61 -941.108 599.992 -943.084 591.317L-946.621 592.614ZM-946.497 620.121H-950.058C-951.775 629.863 -954.953 638.62 -959.541 646.441L-956.471 647.754L-953.401 649.068C-948.263 640.309 -944.791 630.644 -942.936 620.121H-946.497ZM-956.471 647.754L-959.551 646.458C-963.979 654.088 -969.896 660.407 -977.35 665.467L-975.641 668.228L-973.933 670.989C-965.352 665.163 -958.489 657.833 -953.391 649.051L-956.471 647.754ZM-975.641 668.228L-977.369 665.48C-984.636 670.467 -993.545 673.837 -1004.25 675.44L-1004.31 678.904L-1004.37 682.369C-992.713 680.623 -982.51 676.875 -973.914 670.976L-975.641 668.228ZM-1004.31 678.904L-1004.2 675.433C-1006.51 675.75 -1009.17 675.994 -1012.18 676.157L-1012.6 679.658L-1013.02 683.159C-1009.86 682.988 -1006.98 682.728 -1004.42 682.376L-1004.31 678.904ZM-1012.6 679.658L-1012.18 676.157C-1015.25 676.323 -1017.57 676.403 -1019.17 676.403L-1019.79 679.909L-1020.41 683.416C-1018.61 683.416 -1016.14 683.328 -1013.02 683.159L-1012.6 679.658ZM-1019.79 679.909L-1019.17 676.403H-1062.03L-1062.64 679.909L-1063.26 683.416H-1020.41L-1019.79 679.909ZM-1062.64 679.909H-1066.21L-1077.01 741.205H-1073.45H-1069.89L-1059.08 679.909H-1062.64ZM-1073.45 741.205L-1072.83 737.698H-1107.53L-1108.14 741.205L-1108.76 744.711H-1074.07L-1073.45 741.205ZM-1057.02 648.006L-1057.64 651.512H-1016.31L-1015.7 648.006L-1015.08 644.499H-1056.4L-1057.02 648.006ZM-1015.7 648.006L-1016.31 651.512C-1014.42 651.512 -1012.35 651.423 -1010.12 651.25L-1009.78 647.754L-1009.45 644.259C-1011.53 644.42 -1013.4 644.499 -1015.08 644.499L-1015.7 648.006ZM-1009.78 647.754L-1010.12 651.25C-1007.76 651.067 -1005.5 650.696 -1003.36 650.121L-1003.74 646.75L-1004.12 643.378C-1005.73 643.808 -1007.5 644.107 -1009.45 644.259L-1009.78 647.754ZM-1003.74 646.75L-1003.4 650.133C-997.953 648.736 -993.235 646.329 -989.49 642.751L-991.791 640.469L-994.092 638.187C-996.483 640.471 -999.73 642.251 -1004.08 643.366L-1003.74 646.75ZM-991.791 640.469L-989.452 642.714C-985.983 639.322 -983.319 635.55 -981.516 631.416L-984.812 630.546L-988.109 629.677C-989.446 632.745 -991.435 635.588 -994.131 638.224L-991.791 640.469ZM-984.812 630.546L-981.54 631.469C-979.756 627.533 -978.522 623.746 -977.883 620.121H-981.443H-985.004C-985.517 623.028 -986.529 626.191 -988.085 629.624L-984.812 630.546ZM-981.443 620.121H-977.883C-977.243 616.495 -977.148 612.743 -977.562 608.879L-981.158 609.822L-984.754 610.764C-984.397 614.101 -984.492 617.216 -985.004 620.121H-981.443ZM-981.158 609.822L-977.553 608.971C-977.881 604.75 -979.215 600.954 -981.532 597.617L-984.637 599.899L-987.743 602.181C-985.991 604.705 -985.006 607.525 -984.762 610.672L-981.158 609.822ZM-984.637 599.899L-981.506 597.654C-983.969 593.977 -987.838 591.513 -992.816 590.11L-994.349 593.493L-995.883 596.876C-991.95 597.985 -989.345 599.791 -987.769 602.144L-984.637 599.899ZM-994.349 593.493L-992.776 590.121C-994.718 589.546 -996.844 589.176 -999.139 588.993L-1000.04 592.488L-1000.94 595.984C-999.041 596.135 -997.374 596.435 -995.922 596.865L-994.349 593.493ZM-1000.04 592.488L-999.139 588.993C-1001.31 588.819 -1003.35 588.73 -1005.24 588.73L-1005.86 592.237L-1006.48 595.744C-1004.81 595.744 -1002.96 595.822 -1000.94 595.984L-1000.04 592.488ZM-1005.86 592.237L-1005.24 588.73H-1046.57L-1047.19 592.237L-1047.8 595.744H-1006.48L-1005.86 592.237ZM-1047.19 592.237H-1050.75L-1060.58 648.006H-1057.02H-1053.46L-1043.62 592.237H-1047.19ZM-952.442 741.205H-956.003L-956.621 744.711H-953.061L-952.442 741.205ZM-920.55 560.333L-919.931 556.827H-923.492L-924.111 560.333H-920.55ZM-800.66 560.333H-797.099L-796.48 556.827H-800.041L-800.66 560.333ZM-806.285 592.237L-806.903 595.744H-803.343L-802.724 592.237H-806.285ZM-891.484 592.237L-890.865 588.73H-894.426L-895.044 592.237H-891.484ZM-898.305 630.923H-901.866L-902.484 634.43H-898.923L-898.305 630.923ZM-828.412 630.923H-824.851L-824.233 627.417H-827.793L-828.412 630.923ZM-834.037 662.827L-834.655 666.334H-831.095L-830.476 662.827H-834.037ZM-903.931 662.827L-903.312 659.32H-906.873L-907.491 662.827H-903.931ZM-912.125 709.301H-915.686L-916.304 712.808H-912.743L-912.125 709.301ZM-826.927 709.301H-823.366L-822.747 705.794H-826.308L-826.927 709.301ZM-832.552 741.205L-833.17 744.711H-829.61L-828.991 741.205H-832.552ZM-952.442 741.205H-948.881L-916.989 560.333H-920.55H-924.111L-956.003 741.205H-952.442ZM-920.55 560.333L-921.168 563.84H-801.278L-800.66 560.333L-800.041 556.827H-919.931L-920.55 560.333ZM-800.66 560.333H-804.22L-809.846 592.237H-806.285H-802.724L-797.099 560.333H-800.66ZM-806.285 592.237L-805.667 588.73H-890.865L-891.484 592.237L-892.102 595.744H-806.903L-806.285 592.237ZM-891.484 592.237H-895.044L-901.866 630.923H-898.305H-894.744L-887.923 592.237H-891.484ZM-898.305 630.923L-898.923 634.43H-829.03L-828.412 630.923L-827.793 627.417H-897.687L-898.305 630.923ZM-828.412 630.923H-831.972L-837.598 662.827H-834.037H-830.476L-824.851 630.923H-828.412ZM-834.037 662.827L-833.419 659.32H-903.312L-903.931 662.827L-904.549 666.334H-834.655L-834.037 662.827ZM-903.931 662.827H-907.491L-915.686 709.301H-912.125H-908.564L-900.37 662.827H-903.931ZM-912.125 709.301L-912.743 712.808H-827.545L-826.927 709.301L-826.308 705.794H-911.507L-912.125 709.301ZM-826.927 709.301H-830.487L-836.113 741.205H-832.552H-828.991L-823.366 709.301H-826.927ZM-832.552 741.205L-831.934 737.698H-951.824L-952.442 741.205L-953.061 744.711H-833.17L-832.552 741.205ZM-812.185 741.205H-815.746L-816.364 744.711H-812.803L-812.185 741.205ZM-780.293 560.333L-779.674 556.827H-783.235L-783.853 560.333H-780.293ZM-695.648 560.584L-696.469 564.085L-696.417 564.088L-696.365 564.09L-695.648 560.584ZM-687.619 561.338L-688.853 564.79L-688.814 564.797L-688.775 564.803L-687.619 561.338ZM-662.59 572.014L-665.286 574.763L-665.279 574.769L-665.272 574.775L-662.59 572.014ZM-650.662 592.614L-654.201 593.899L-654.199 593.91L-650.662 592.614ZM-668.882 659.059L-666.325 661.076L-666.316 661.065L-668.882 659.059ZM-708.349 678.904L-708.729 682.403L-708.57 682.393L-708.41 682.369L-708.349 678.904ZM-723.831 679.909L-724.449 683.416H-724.331L-724.211 683.408L-723.831 679.909ZM-766.685 679.909L-766.067 676.403H-769.628L-770.246 679.909H-766.685ZM-777.493 741.205L-778.112 744.711H-774.551L-773.933 741.205H-777.493ZM-708.62 741.205L-712.094 742.734L-711.47 744.711H-709.239L-708.62 741.205ZM-731.864 667.6L-731.931 664.157L-736.635 665.021L-735.338 669.129L-731.864 667.6ZM-694.956 660.817L-691.484 659.281L-692.254 656.865L-695.023 657.374L-694.956 660.817ZM-669.337 741.205L-669.955 744.711H-664.258L-665.865 739.668L-669.337 741.205ZM-761.06 648.006H-764.621L-765.239 651.512H-761.678L-761.06 648.006ZM-713.825 647.754L-714.157 651.25L-714.157 651.25L-713.825 647.754ZM-707.781 646.75L-708.121 643.366L-708.143 643.372L-708.164 643.378L-707.781 646.75ZM-695.832 640.469L-693.531 642.751L-693.512 642.733L-693.492 642.714L-695.832 640.469ZM-688.853 630.546L-692.126 629.624L-692.138 629.651L-692.15 629.677L-688.853 630.546ZM-685.199 609.822L-688.803 610.672L-688.8 610.718L-688.795 610.764L-685.199 609.822ZM-688.678 599.899L-691.81 602.144L-691.797 602.162L-691.784 602.181L-688.678 599.899ZM-698.39 593.493L-699.963 596.865L-699.943 596.871L-699.923 596.876L-698.39 593.493ZM-704.08 592.488L-704.98 595.984L-704.98 595.984L-704.08 592.488ZM-751.226 592.237L-750.608 588.73H-754.169L-754.787 592.237H-751.226ZM-812.185 741.205H-808.624L-776.732 560.333H-780.293H-783.853L-815.746 741.205H-812.185ZM-780.293 560.333L-780.911 563.84H-703.365L-702.747 560.333L-702.128 556.827H-779.674L-780.293 560.333ZM-702.747 560.333L-703.365 563.84C-701.677 563.84 -699.386 563.92 -696.469 564.085L-695.648 560.584L-694.828 557.083C-697.804 556.914 -700.245 556.827 -702.128 556.827L-702.747 560.333ZM-695.648 560.584L-696.365 564.09C-693.451 564.17 -690.954 564.409 -688.853 564.79L-687.619 561.338L-686.384 557.886C-688.897 557.43 -691.753 557.166 -694.931 557.079L-695.648 560.584ZM-687.619 561.338L-688.775 564.803C-678.55 566.408 -670.791 569.779 -665.286 574.763L-662.59 572.014L-659.893 569.266C-666.413 563.364 -675.341 559.618 -686.462 557.873L-687.619 561.338ZM-662.59 572.014L-665.272 574.775C-659.61 579.829 -655.927 586.184 -654.201 593.899L-650.662 592.614L-647.122 591.328C-649.105 582.463 -653.374 575.085 -659.907 569.254L-662.59 572.014ZM-650.662 592.614L-654.199 593.91C-652.436 601.648 -652.379 610.368 -654.098 620.121H-650.538H-646.977C-645.123 609.61 -645.149 599.992 -647.125 591.317L-650.662 592.614ZM-650.538 620.121H-654.098C-656.664 634.672 -662.488 646.924 -671.449 657.052L-668.882 659.059L-666.316 661.065C-656.162 649.589 -649.756 635.883 -646.977 620.121H-650.538ZM-668.882 659.059L-671.439 657.042C-680.129 666.802 -692.247 673.037 -708.287 675.44L-708.349 678.904L-708.41 682.369C-690.914 679.748 -676.721 672.752 -666.325 661.076L-668.882 659.059ZM-708.349 678.904L-707.969 675.406L-723.451 676.41L-723.831 679.909L-724.211 683.408L-708.729 682.403L-708.349 678.904ZM-723.831 679.909L-723.213 676.403H-766.067L-766.685 679.909L-767.304 683.416H-724.449L-723.831 679.909ZM-766.685 679.909H-770.246L-781.054 741.205H-777.493H-773.933L-763.125 679.909H-766.685ZM-777.493 741.205L-776.875 737.698H-811.567L-812.185 741.205L-812.803 744.711H-778.112L-777.493 741.205ZM-708.62 741.205L-705.146 739.675L-728.39 666.071L-731.864 667.6L-735.338 669.129L-712.094 742.734L-708.62 741.205ZM-731.864 667.6L-731.797 671.043L-694.889 664.261L-694.956 660.817L-695.023 657.374L-731.931 664.157L-731.864 667.6ZM-694.956 660.817L-698.428 662.354L-672.809 742.741L-669.337 741.205L-665.865 739.668L-691.484 659.281L-694.956 660.817ZM-669.337 741.205L-668.719 737.698H-708.002L-708.62 741.205L-709.239 744.711H-669.955L-669.337 741.205ZM-761.06 648.006L-761.678 651.512H-720.354L-719.736 648.006L-719.118 644.499H-760.442L-761.06 648.006ZM-719.736 648.006L-720.354 651.512C-718.458 651.512 -716.39 651.423 -714.157 651.25L-713.825 647.754L-713.492 644.259C-715.57 644.42 -717.443 644.499 -719.118 644.499L-719.736 648.006ZM-713.825 647.754L-714.157 651.25C-711.798 651.067 -709.541 650.696 -707.397 650.121L-707.781 646.75L-708.164 643.378C-709.769 643.808 -711.541 644.107 -713.492 644.259L-713.825 647.754ZM-707.781 646.75L-707.44 650.133C-701.994 648.736 -697.276 646.329 -693.531 642.751L-695.832 640.469L-698.133 638.187C-700.524 640.471 -703.771 642.251 -708.121 643.366L-707.781 646.75ZM-695.832 640.469L-693.492 642.714C-690.024 639.322 -687.36 635.55 -685.557 631.416L-688.853 630.546L-692.15 629.677C-693.487 632.745 -695.476 635.588 -698.172 638.224L-695.832 640.469ZM-688.853 630.546L-685.581 631.469C-683.797 627.533 -682.563 623.746 -681.924 620.121H-685.484H-689.045C-689.558 623.028 -690.57 626.191 -692.126 629.624L-688.853 630.546ZM-685.484 620.121H-681.924C-681.284 616.495 -681.189 612.743 -681.603 608.879L-685.199 609.822L-688.795 610.764C-688.438 614.101 -688.533 617.216 -689.045 620.121H-685.484ZM-685.199 609.822L-681.594 608.971C-681.922 604.75 -683.256 600.954 -685.573 597.617L-688.678 599.899L-691.784 602.181C-690.032 604.705 -689.047 607.525 -688.803 610.672L-685.199 609.822ZM-688.678 599.899L-685.547 597.654C-688.01 593.977 -691.879 591.513 -696.857 590.11L-698.39 593.493L-699.923 596.876C-695.991 597.985 -693.386 599.791 -691.81 602.144L-688.678 599.899ZM-698.39 593.493L-696.817 590.121C-698.759 589.546 -700.885 589.176 -703.18 588.993L-704.08 592.488L-704.98 595.984C-703.082 596.135 -701.415 596.435 -699.963 596.865L-698.39 593.493ZM-704.08 592.488L-703.18 588.993C-705.352 588.819 -707.388 588.73 -709.284 588.73L-709.903 592.237L-710.521 595.744C-708.846 595.744 -707 595.822 -704.98 595.984L-704.08 592.488ZM-709.903 592.237L-709.284 588.73H-750.608L-751.226 592.237L-751.845 595.744H-710.521L-709.903 592.237ZM-751.226 592.237H-754.787L-764.621 648.006H-761.06H-757.499L-747.666 592.237H-751.226ZM-651.501 741.205H-655.062L-655.68 744.711H-652.119L-651.501 741.205ZM-619.609 560.333L-618.99 556.827H-622.551L-623.169 560.333H-619.609ZM-507.371 560.333H-503.81L-503.192 556.827H-506.753L-507.371 560.333ZM-513.395 594.498L-514.013 598.004H-510.453L-509.834 594.498H-513.395ZM-590.941 594.498L-590.323 590.991H-593.883L-594.502 594.498H-590.941ZM-597.851 633.687H-601.412L-602.03 637.193H-598.469L-597.851 633.687ZM-535.61 633.687H-532.049L-531.431 630.18H-534.992L-535.61 633.687ZM-541.634 667.851L-542.253 671.358H-538.692L-538.074 667.851H-541.634ZM-603.875 667.851L-603.257 664.345H-606.818L-607.436 667.851H-603.875ZM-616.809 741.205L-617.428 744.711H-613.867L-613.249 741.205H-616.809ZM-651.501 741.205H-647.94L-616.048 560.333H-619.609H-623.169L-655.062 741.205H-651.501ZM-619.609 560.333L-620.227 563.84H-507.989L-507.371 560.333L-506.753 556.827H-618.99L-619.609 560.333ZM-507.371 560.333H-510.932L-516.956 594.498H-513.395H-509.834L-503.81 560.333H-507.371ZM-513.395 594.498L-512.777 590.991H-590.323L-590.941 594.498L-591.559 598.004H-514.013L-513.395 594.498ZM-590.941 594.498H-594.502L-601.412 633.687H-597.851H-594.29L-587.38 594.498H-590.941ZM-597.851 633.687L-598.469 637.193H-536.229L-535.61 633.687L-534.992 630.18H-597.233L-597.851 633.687ZM-535.61 633.687H-539.171L-545.195 667.851H-541.634H-538.074L-532.049 633.687H-535.61ZM-541.634 667.851L-541.016 664.345H-603.257L-603.875 667.851L-604.494 671.358H-542.253L-541.634 667.851ZM-603.875 667.851H-607.436L-620.37 741.205H-616.809H-613.249L-600.314 667.851H-603.875ZM-616.809 741.205L-616.191 737.698H-650.883L-651.501 741.205L-652.119 744.711H-617.428L-616.809 741.205ZM-493.774 733.166L-496.141 736.169L-496.134 736.175L-493.774 733.166ZM-518.687 700.132L-522.151 701.693L-522.148 701.7L-522.146 701.707L-518.687 700.132ZM-501.279 601.406L-504.182 599.83L-504.187 599.838L-504.192 599.845L-501.279 601.406ZM-464.716 568.372L-466.015 565.363L-466.024 565.368L-464.716 568.372ZM-369.697 568.372L-372.064 571.376L-372.057 571.381L-369.697 568.372ZM-344.784 601.406L-348.248 602.967L-348.245 602.974L-348.243 602.982L-344.784 601.406ZM-362.192 700.132L-365.095 698.556L-365.1 698.564L-365.105 698.571L-362.192 700.132ZM-398.755 733.166L-400.053 730.157L-400.063 730.162L-398.755 733.166ZM-442.613 712.818L-443.283 716.324L-442.613 712.818ZM-412.226 705.407L-410.757 708.32L-410.757 708.32L-412.226 705.407ZM-391.049 683.677L-394.108 682.345L-394.115 682.358L-394.122 682.37L-391.049 683.677ZM-379.488 618.112L-383.018 619.439L-383.014 619.452L-383.011 619.464L-379.488 618.112ZM-393.046 596.633L-390.55 593.72L-390.55 593.72L-393.046 596.633ZM-420.731 588.72L-420.061 585.214L-420.061 585.214L-420.731 588.72ZM-472.422 617.86L-475.481 616.528L-475.488 616.541L-475.496 616.553L-472.422 617.86ZM-483.983 683.426L-487.513 684.754L-487.51 684.767L-487.507 684.779L-483.983 683.426ZM-470.297 704.905L-472.793 707.818L-472.793 707.818L-470.297 704.905ZM-448.282 744.973L-447.664 741.466C-465.503 741.466 -480.031 737.648 -491.414 730.157L-493.774 733.166L-496.134 736.175C-483.594 744.426 -467.794 748.479 -448.901 748.479L-448.282 744.973ZM-493.774 733.166L-491.407 730.162C-502.747 722.646 -510.686 712.14 -515.228 698.556L-518.687 700.132L-522.146 701.707C-517.224 716.426 -508.554 727.943 -496.141 736.169L-493.774 733.166ZM-518.687 700.132L-515.223 698.571C-519.684 684.987 -520.365 669.085 -517.136 650.769H-520.697H-524.257C-527.642 669.967 -526.984 686.973 -522.151 701.693L-518.687 700.132ZM-520.697 650.769H-517.136C-513.906 632.453 -507.617 616.551 -498.366 602.967L-501.279 601.406L-504.192 599.845C-514.217 614.564 -520.872 631.571 -524.257 650.769H-520.697ZM-501.279 601.406L-498.376 602.982C-489.043 589.397 -477.399 578.892 -463.408 571.376L-464.716 568.372L-466.024 565.368C-481.338 573.595 -494.07 585.112 -504.182 599.83L-501.279 601.406ZM-464.716 568.372L-463.418 571.381C-449.393 563.89 -433.519 560.072 -415.679 560.072L-415.061 556.565L-414.443 553.058C-433.336 553.058 -450.565 557.112 -466.015 565.363L-464.716 568.372ZM-415.061 556.565L-415.679 560.072C-397.839 560.072 -383.359 563.89 -372.064 571.376L-369.697 568.372L-367.33 565.368C-379.788 557.111 -395.55 553.058 -414.443 553.058L-415.061 556.565ZM-369.697 568.372L-372.057 571.381C-360.636 578.896 -352.704 589.396 -348.248 602.967L-344.784 601.406L-341.32 599.845C-346.158 585.113 -354.835 573.59 -367.337 565.363L-369.697 568.372ZM-344.784 601.406L-348.243 602.982C-343.702 616.562 -342.979 632.459 -346.208 650.769H-342.647H-339.086C-335.7 631.565 -336.402 614.553 -341.325 599.83L-344.784 601.406ZM-342.647 650.769H-346.208C-349.436 669.079 -355.765 684.976 -365.095 698.556L-362.192 700.132L-359.289 701.707C-349.174 686.985 -342.472 669.973 -339.086 650.769H-342.647ZM-362.192 700.132L-365.105 698.571C-374.347 712.142 -385.982 722.642 -400.053 730.157L-398.755 733.166L-397.456 736.175C-382.052 727.947 -369.312 716.425 -359.279 701.693L-362.192 700.132ZM-398.755 733.166L-400.063 730.162C-413.997 737.648 -429.824 741.466 -447.664 741.466L-448.282 744.973L-448.901 748.479C-430.008 748.479 -412.817 744.427 -397.446 736.169L-398.755 733.166ZM-442.613 712.818L-443.283 716.324C-431.124 716.499 -420.218 713.914 -410.757 708.32L-412.226 705.407L-413.695 702.494C-421.511 707.116 -430.863 709.471 -441.942 709.312L-442.613 712.818ZM-412.226 705.407L-410.757 708.32C-401.388 702.78 -393.797 694.948 -387.975 684.985L-391.049 683.677L-394.122 682.37C-399.261 691.164 -405.787 697.818 -413.695 702.494L-412.226 705.407ZM-391.049 683.677L-387.99 685.01C-382.122 675.121 -378.095 663.681 -375.818 650.769H-379.379H-382.94C-385.093 662.978 -388.846 673.477 -394.108 682.345L-391.049 683.677ZM-379.379 650.769H-375.818C-373.542 637.859 -373.547 626.493 -375.964 616.759L-379.488 618.112L-383.011 619.464C-380.854 628.152 -380.787 638.557 -382.94 650.769H-379.379ZM-379.488 618.112L-375.958 616.784C-378.301 606.985 -383.149 599.249 -390.55 593.72L-393.046 596.633L-395.543 599.546C-389.269 604.233 -385.079 610.816 -383.018 619.439L-379.488 618.112ZM-393.046 596.633L-390.55 593.72C-398.005 588.15 -407.927 585.389 -420.061 585.214L-420.731 588.72L-421.401 592.226C-410.296 592.386 -401.761 594.9 -395.543 599.546L-393.046 596.633ZM-420.731 588.72L-420.061 585.214C-432.22 585.038 -443.126 587.624 -452.586 593.218L-451.117 596.131L-449.648 599.043C-441.832 594.422 -432.48 592.067 -421.401 592.226L-420.731 588.72ZM-451.117 596.131L-452.586 593.218C-461.948 598.753 -469.576 606.577 -475.481 616.528L-472.422 617.86L-469.363 619.193C-464.138 610.387 -457.564 603.724 -449.648 599.043L-451.117 596.131ZM-472.422 617.86L-475.496 616.553C-481.27 626.435 -485.25 637.866 -487.525 650.769H-483.964H-480.403C-478.249 638.551 -474.535 628.043 -469.349 619.168L-472.422 617.86ZM-483.964 650.769H-487.525C-489.8 663.67 -489.838 675.027 -487.513 684.754L-483.983 683.426L-480.453 682.099C-482.532 673.404 -482.558 662.989 -480.403 650.769H-483.964ZM-483.983 683.426L-487.507 684.779C-485.077 694.566 -480.188 702.293 -472.793 707.818L-470.297 704.905L-467.801 701.992C-474.08 697.301 -478.315 690.708 -480.46 682.073L-483.983 683.426ZM-470.297 704.905L-472.793 707.818C-465.338 713.387 -455.417 716.149 -443.283 716.324L-442.613 712.818L-441.942 709.312C-453.047 709.152 -461.582 706.638 -467.801 701.992L-470.297 704.905ZM-343.336 741.205H-346.897L-347.515 744.711H-343.954L-343.336 741.205ZM-311.443 560.333L-310.825 556.827H-314.386L-315.004 560.333H-311.443ZM-226.799 560.584L-227.62 564.085L-227.568 564.088L-227.516 564.09L-226.799 560.584ZM-218.769 561.338L-220.004 564.79L-219.965 564.797L-219.926 564.803L-218.769 561.338ZM-193.74 572.014L-196.437 574.763L-196.43 574.769L-196.423 574.775L-193.74 572.014ZM-181.812 592.614L-185.352 593.899L-185.349 593.91L-181.812 592.614ZM-200.033 659.059L-197.476 661.076L-197.467 661.065L-200.033 659.059ZM-239.499 678.904L-239.879 682.403L-239.72 682.393L-239.561 682.369L-239.499 678.904ZM-254.982 679.909L-255.6 683.416H-255.481L-255.362 683.408L-254.982 679.909ZM-297.836 679.909L-297.218 676.403H-300.779L-301.397 679.909H-297.836ZM-308.644 741.205L-309.262 744.711H-305.702L-305.083 741.205H-308.644ZM-239.771 741.205L-243.245 742.734L-242.621 744.711H-240.389L-239.771 741.205ZM-263.015 667.6L-263.082 664.157L-267.786 665.021L-266.489 669.129L-263.015 667.6ZM-226.107 660.817L-222.635 659.281L-223.405 656.865L-226.174 657.374L-226.107 660.817ZM-200.488 741.205L-201.106 744.711H-195.409L-197.016 739.668L-200.488 741.205ZM-292.211 648.006H-295.771L-296.39 651.512H-292.829L-292.211 648.006ZM-244.975 647.754L-245.308 651.25L-245.308 651.25L-244.975 647.754ZM-238.931 646.75L-239.272 643.366L-239.293 643.372L-239.315 643.378L-238.931 646.75ZM-226.983 640.469L-224.682 642.751L-224.662 642.733L-224.643 642.714L-226.983 640.469ZM-220.004 630.546L-223.277 629.624L-223.289 629.651L-223.3 629.677L-220.004 630.546ZM-216.35 609.822L-219.954 610.672L-219.95 610.718L-219.945 610.764L-216.35 609.822ZM-219.829 599.899L-222.96 602.144L-222.948 602.162L-222.935 602.181L-219.829 599.899ZM-229.541 593.493L-231.114 596.865L-231.094 596.871L-231.074 596.876L-229.541 593.493ZM-235.231 592.488L-236.131 595.984L-236.131 595.984L-235.231 592.488ZM-282.377 592.237L-281.759 588.73H-285.32L-285.938 592.237H-282.377ZM-343.336 741.205H-339.775L-307.882 560.333H-311.443H-315.004L-346.897 741.205H-343.336ZM-311.443 560.333L-312.062 563.84H-234.516L-233.897 560.333L-233.279 556.827H-310.825L-311.443 560.333ZM-233.897 560.333L-234.516 563.84C-232.827 563.84 -230.537 563.92 -227.62 564.085L-226.799 560.584L-225.979 557.083C-228.954 556.914 -231.396 556.827 -233.279 556.827L-233.897 560.333ZM-226.799 560.584L-227.516 564.09C-224.602 564.17 -222.105 564.409 -220.004 564.79L-218.769 561.338L-217.535 557.886C-220.048 557.43 -222.904 557.166 -226.082 557.079L-226.799 560.584ZM-218.769 561.338L-219.926 564.803C-209.7 566.408 -201.942 569.779 -196.437 574.763L-193.74 572.014L-191.044 569.266C-197.564 563.364 -206.491 559.618 -217.613 557.873L-218.769 561.338ZM-193.74 572.014L-196.423 574.775C-190.76 579.829 -187.078 586.184 -185.352 593.899L-181.812 592.614L-178.273 591.328C-180.256 582.463 -184.525 575.085 -191.058 569.254L-193.74 572.014ZM-181.812 592.614L-185.349 593.91C-183.587 601.648 -183.53 610.368 -185.249 620.121H-181.688H-178.128C-176.274 609.61 -176.299 599.992 -178.275 591.317L-181.812 592.614ZM-181.688 620.121H-185.249C-187.815 634.672 -193.639 646.924 -202.599 657.052L-200.033 659.059L-197.467 661.065C-187.313 649.589 -180.907 635.883 -178.128 620.121H-181.688ZM-200.033 659.059L-202.59 657.042C-211.28 666.802 -223.398 673.037 -239.438 675.44L-239.499 678.904L-239.561 682.369C-222.064 679.748 -207.871 672.752 -197.476 661.076L-200.033 659.059ZM-239.499 678.904L-239.119 675.406L-254.602 676.41L-254.982 679.909L-255.362 683.408L-239.879 682.403L-239.499 678.904ZM-254.982 679.909L-254.363 676.403H-297.218L-297.836 679.909L-298.454 683.416H-255.6L-254.982 679.909ZM-297.836 679.909H-301.397L-312.205 741.205H-308.644H-305.083L-294.275 679.909H-297.836ZM-308.644 741.205L-308.026 737.698H-342.717L-343.336 741.205L-343.954 744.711H-309.262L-308.644 741.205ZM-239.771 741.205L-236.297 739.675L-259.541 666.071L-263.015 667.6L-266.489 669.129L-243.245 742.734L-239.771 741.205ZM-263.015 667.6L-262.948 671.043L-226.04 664.261L-226.107 660.817L-226.174 657.374L-263.082 664.157L-263.015 667.6ZM-226.107 660.817L-229.578 662.354L-203.959 742.741L-200.488 741.205L-197.016 739.668L-222.635 659.281L-226.107 660.817ZM-200.488 741.205L-199.869 737.698H-239.153L-239.771 741.205L-240.389 744.711H-201.106L-200.488 741.205ZM-292.211 648.006L-292.829 651.512H-251.505L-250.887 648.006L-250.268 644.499H-291.592L-292.211 648.006ZM-250.887 648.006L-251.505 651.512C-249.609 651.512 -247.541 651.423 -245.308 651.25L-244.975 647.754L-244.643 644.259C-246.72 644.42 -248.594 644.499 -250.268 644.499L-250.887 648.006ZM-244.975 647.754L-245.308 651.25C-242.949 651.067 -240.692 650.696 -238.548 650.121L-238.931 646.75L-239.315 643.378C-240.919 643.808 -242.692 644.107 -244.643 644.259L-244.975 647.754ZM-238.931 646.75L-238.591 650.133C-233.145 648.736 -228.427 646.329 -224.682 642.751L-226.983 640.469L-229.284 638.187C-231.674 640.471 -234.922 642.251 -239.272 643.366L-238.931 646.75ZM-226.983 640.469L-224.643 642.714C-221.175 639.322 -218.51 635.55 -216.707 631.416L-220.004 630.546L-223.3 629.677C-224.638 632.745 -226.626 635.588 -229.322 638.224L-226.983 640.469ZM-220.004 630.546L-216.731 631.469C-214.947 627.533 -213.714 623.746 -213.074 620.121H-216.635H-220.196C-220.708 623.028 -221.72 626.191 -223.277 629.624L-220.004 630.546ZM-216.635 620.121H-213.074C-212.435 616.495 -212.34 612.743 -212.754 608.879L-216.35 609.822L-219.945 610.764C-219.588 614.101 -219.684 617.216 -220.196 620.121H-216.635ZM-216.35 609.822L-212.745 608.971C-213.072 604.75 -214.407 600.954 -216.723 597.617L-219.829 599.899L-222.935 602.181C-221.183 604.705 -220.198 607.525 -219.954 610.672L-216.35 609.822ZM-219.829 599.899L-216.698 597.654C-219.161 593.977 -223.029 591.513 -228.007 590.11L-229.541 593.493L-231.074 596.876C-227.142 597.985 -224.536 599.791 -222.96 602.144L-219.829 599.899ZM-229.541 593.493L-227.968 590.121C-229.909 589.546 -232.036 589.176 -234.33 588.993L-235.231 592.488L-236.131 595.984C-234.233 596.135 -232.566 596.435 -231.114 596.865L-229.541 593.493ZM-235.231 592.488L-234.33 588.993C-236.502 588.819 -238.538 588.73 -240.435 588.73L-241.053 592.237L-241.672 595.744C-239.997 595.744 -238.151 595.822 -236.131 595.984L-235.231 592.488ZM-241.053 592.237L-240.435 588.73H-281.759L-282.377 592.237L-282.995 595.744H-241.672L-241.053 592.237ZM-282.377 592.237H-285.938L-295.771 648.006H-292.211H-288.65L-278.816 592.237H-282.377ZM-182.652 741.205H-186.212L-186.831 744.711H-183.27L-182.652 741.205ZM-150.759 560.333L-150.141 556.827H-153.702L-154.32 560.333H-150.759ZM-119.639 560.333L-116.176 558.77L-116.816 556.827H-119.02L-119.639 560.333ZM-80.1015 680.412L-83.5646 681.975L-81.4887 688.279L-77.1896 681.975L-80.1015 680.412ZM1.78197 560.333L2.40029 556.827H0.19549L-1.12995 558.77L1.78197 560.333ZM32.9024 560.333H36.4632L37.0815 556.827H33.5207L32.9024 560.333ZM1.0099 741.205L0.391578 744.711H3.95235L4.57067 741.205H1.0099ZM-31.386 741.205H-34.9467L-35.5651 744.711H-32.0043L-31.386 741.205ZM-12.3391 633.184H-8.77828L-15.2713 631.651L-12.3391 633.184ZM-84.6989 741.205L-85.3172 744.711H-83.0888L-81.7666 742.738L-84.6989 741.205ZM-96.943 741.205L-100.416 742.738L-99.7897 744.711H-97.5613L-96.943 741.205ZM-131.209 633.184L-127.736 631.651L-134.77 633.184H-131.209ZM-150.256 741.205L-150.874 744.711H-147.313L-146.695 741.205H-150.256ZM-182.652 741.205H-179.091L-147.198 560.333H-150.759H-154.32L-186.212 741.205H-182.652ZM-150.759 560.333L-151.378 563.84H-120.257L-119.639 560.333L-119.02 556.827H-150.141L-150.759 560.333ZM-119.639 560.333L-123.102 561.896L-83.5646 681.975L-80.1015 680.412L-76.6384 678.849L-116.176 558.77L-119.639 560.333ZM-80.1015 680.412L-77.1896 681.975L4.69388 561.896L1.78197 560.333L-1.12995 558.77L-83.0134 678.849L-80.1015 680.412ZM1.78197 560.333L1.16365 563.84H32.2841L32.9024 560.333L33.5207 556.827H2.40029L1.78197 560.333ZM32.9024 560.333H29.3416L-2.55087 741.205H1.0099H4.57067L36.4632 560.333H32.9024ZM1.0099 741.205L1.62822 737.698H-30.7676L-31.386 741.205L-32.0043 744.711H0.391578L1.0099 741.205ZM-31.386 741.205H-27.8252L-8.77828 633.184H-12.3391H-15.8998L-34.9467 741.205H-31.386ZM-12.3391 633.184L-15.2713 631.651L-87.6311 739.672L-84.6989 741.205L-81.7666 742.738L-9.40683 634.717L-12.3391 633.184ZM-84.6989 741.205L-84.0805 737.698H-96.3246L-96.943 741.205L-97.5613 744.711H-85.3172L-84.6989 741.205ZM-96.943 741.205L-93.4701 739.672L-127.736 631.651L-131.209 633.184L-134.682 634.717L-100.416 742.738L-96.943 741.205ZM-131.209 633.184H-134.77L-153.817 741.205H-150.256H-146.695L-127.648 633.184H-131.209ZM-150.256 741.205L-149.638 737.698H-182.033L-182.652 741.205L-183.27 744.711H-150.874L-150.256 741.205ZM13.8538 741.205L10.6292 740.18L8.4242 744.711H13.2355L13.8538 741.205ZM101.865 560.333L102.483 556.827H99.8482L98.6405 559.309L101.865 560.333ZM153.648 560.333L157.234 559.309L156.901 556.827H154.266L153.648 560.333ZM177.874 741.205L177.256 744.711H182.067L181.46 740.18L177.874 741.205ZM142.162 741.205L138.577 742.239L138.916 744.711H141.544L142.162 741.205ZM120.293 581.686L120.911 578.179H116.085L116.708 582.72L120.293 581.686ZM126.925 581.686L130.152 582.706L132.347 578.179H127.543L126.925 581.686ZM49.5658 741.205L48.9475 744.711H51.5868L52.7929 742.224L49.5658 741.205ZM54.1694 703.523H50.6086L49.9903 707.03H53.5511L54.1694 703.523ZM59.7949 671.619L60.4132 668.113H56.8524L56.2341 671.619H59.7949ZM156.727 671.619H160.288L160.906 668.113H157.346L156.727 671.619ZM151.102 703.523L150.484 707.03H154.044L154.663 703.523H151.102ZM13.8538 741.205L17.0785 742.229L105.09 561.358L101.865 560.333L98.6405 559.309L10.6292 740.18L13.8538 741.205ZM101.865 560.333L101.247 563.84H153.029L153.648 560.333L154.266 556.827H102.483L101.865 560.333ZM153.648 560.333L150.062 561.358L174.288 742.229L177.874 741.205L181.46 740.18L157.234 559.309L153.648 560.333ZM177.874 741.205L178.492 737.698H142.78L142.162 741.205L141.544 744.711H177.256L177.874 741.205ZM142.162 741.205L145.747 740.17L123.877 580.652L120.293 581.686L116.708 582.72L138.577 742.239L142.162 741.205ZM120.293 581.686L119.674 585.193H126.306L126.925 581.686L127.543 578.179H120.911L120.293 581.686ZM126.925 581.686L123.698 580.666L46.3387 740.185L49.5658 741.205L52.7929 742.224L130.152 582.706L126.925 581.686ZM49.5658 741.205L50.1841 737.698H14.4721L13.8538 741.205L13.2355 744.711H48.9475L49.5658 741.205ZM54.1694 703.523H57.7302L63.3556 671.619H59.7949H56.2341L50.6086 703.523H54.1694ZM59.7949 671.619L59.1766 675.126H156.109L156.727 671.619L157.346 668.113H60.4132L59.7949 671.619ZM156.727 671.619H153.167L147.541 703.523H151.102H154.663L160.288 671.619H156.727ZM151.102 703.523L151.72 700.016H54.7877L54.1694 703.523L53.5511 707.03H150.484L151.102 703.523ZM190.53 741.205H186.97L186.351 744.711H189.912L190.53 741.205ZM222.423 560.333L223.041 556.827H219.481L218.862 560.333H222.423ZM257.625 560.333L260.945 558.418L260.172 556.827H258.243L257.625 560.333ZM316.205 680.914L312.885 682.83L317.685 692.712L319.766 680.914H316.205ZM337.467 560.333L338.085 556.827H334.524L333.906 560.333H337.467ZM372.668 560.333H376.229L376.847 556.827H373.287L372.668 560.333ZM340.776 741.205L340.158 744.711H343.718L344.337 741.205H340.776ZM305.574 741.205L302.254 743.12L303.027 744.711H304.956L305.574 741.205ZM246.994 620.624L250.314 618.708L245.513 608.826L243.433 620.624H246.994ZM225.732 741.205L225.114 744.711H228.675L229.293 741.205H225.732ZM190.53 741.205H194.091L225.984 560.333H222.423H218.862L186.97 741.205H190.53ZM222.423 560.333L221.805 563.84H257.006L257.625 560.333L258.243 556.827H223.041L222.423 560.333ZM257.625 560.333L254.304 562.249L312.885 682.83L316.205 680.914L319.525 678.999L260.945 558.418L257.625 560.333ZM316.205 680.914H319.766L341.027 560.333H337.467H333.906L312.644 680.914H316.205ZM337.467 560.333L336.848 563.84H372.05L372.668 560.333L373.287 556.827H338.085L337.467 560.333ZM372.668 560.333H369.108L337.215 741.205H340.776H344.337L376.229 560.333H372.668ZM340.776 741.205L341.394 737.698H306.192L305.574 741.205L304.956 744.711H340.158L340.776 741.205ZM305.574 741.205L308.894 739.289L250.314 618.708L246.994 620.624L243.674 622.539L302.254 743.12L305.574 741.205ZM246.994 620.624H243.433L222.172 741.205H225.732H229.293L250.555 620.624H246.994ZM225.732 741.205L226.351 737.698H191.149L190.53 741.205L189.912 744.711H225.114L225.732 741.205ZM398.826 733.166L396.459 736.169L396.467 736.175L398.826 733.166ZM373.913 700.132L370.45 701.693L370.452 701.7L370.454 701.707L373.913 700.132ZM391.321 601.406L388.418 599.83L388.413 599.838L388.408 599.845L391.321 601.406ZM427.884 568.372L426.585 565.363L426.576 565.368L427.884 568.372ZM527.873 572.014L525.271 574.844L525.278 574.85L527.873 572.014ZM550.853 613.841L551.209 617.22L554.978 616.238L554.429 612.746L550.853 613.841ZM514.223 623.387L510.637 624.411L511.074 627.68L514.579 626.766L514.223 623.387ZM501.501 597.889L498.841 600.67L498.849 600.677L498.857 600.684L501.501 597.889ZM441.311 596.382L439.859 593.459L439.851 593.464L439.842 593.469L441.311 596.382ZM420.029 617.986L416.976 616.643L416.976 616.643L420.029 617.986ZM408.467 683.552L404.941 684.894L404.941 684.894L408.467 683.552ZM422.131 705.156L419.635 708.069L419.642 708.074L419.648 708.079L422.131 705.156ZM482.853 703.649L481.173 700.868L481.173 700.868L482.853 703.649ZM504.567 678.151L506.114 674.772L502.938 673.86L501.345 677.12L504.567 678.151ZM537.83 687.697L541.02 688.791L542.801 685.3L539.378 684.318L537.83 687.697ZM500.1 729.523L498.504 726.688L498.495 726.694L500.1 729.523ZM444.318 744.973L444.936 741.466C427.097 741.466 412.569 737.648 401.186 730.157L398.826 733.166L396.467 736.175C409.007 744.426 424.807 748.479 443.7 748.479L444.318 744.973ZM398.826 733.166L401.194 730.162C389.853 722.646 381.915 712.14 377.372 698.556L373.913 700.132L370.454 701.707C375.376 716.426 384.047 727.943 396.459 736.169L398.826 733.166ZM373.913 700.132L377.377 698.571C372.916 684.987 372.235 669.085 375.465 650.769H371.904H368.343C364.958 669.967 365.616 686.973 370.45 701.693L373.913 700.132ZM371.904 650.769H375.465C378.694 632.453 384.984 616.551 394.235 602.967L391.321 601.406L388.408 599.845C378.384 614.564 371.728 631.571 368.343 650.769H371.904ZM391.321 601.406L394.225 602.982C403.558 589.397 415.201 578.892 429.192 571.376L427.884 568.372L426.576 565.368C411.262 573.595 398.531 585.112 388.418 599.83L391.321 601.406ZM427.884 568.372L429.183 571.381C443.208 563.89 459.082 560.072 476.921 560.072L477.539 556.565L478.158 553.058C459.265 553.058 442.035 557.112 426.585 565.363L427.884 568.372ZM477.539 556.565L476.921 560.072C497.4 560.072 513.431 565.064 525.271 574.844L527.873 572.014L530.475 569.185C517.378 558.366 499.853 553.058 478.158 553.058L477.539 556.565ZM527.873 572.014L525.278 574.85C537.272 584.691 544.614 598.007 547.277 614.936L550.853 613.841L554.429 612.746C551.559 594.506 543.581 579.937 530.468 569.179L527.873 572.014ZM550.853 613.841L550.497 610.462L513.867 620.008L514.223 623.387L514.579 626.766L551.209 617.22L550.853 613.841ZM514.223 623.387L517.809 622.363C516.263 610.797 511.752 601.633 504.144 595.094L501.501 597.889L498.857 600.684C505.279 606.203 509.25 614.038 510.637 624.411L514.223 623.387ZM501.501 597.889L504.161 595.109C496.498 588.417 485.826 585.213 472.488 585.213L471.87 588.72L471.251 592.227C483.422 592.227 492.504 595.136 498.841 600.67L501.501 597.889ZM471.87 588.72L472.488 585.213C460.308 585.213 449.374 587.888 439.859 593.459L441.311 596.382L442.764 599.305C450.695 594.66 460.133 592.227 471.251 592.227L471.87 588.72ZM441.311 596.382L439.842 593.469C430.49 598.999 422.869 606.774 416.976 616.643L420.029 617.986L423.081 619.328C428.288 610.608 434.856 603.98 442.78 599.295L441.311 596.382ZM420.029 617.986L416.976 616.643C411.117 626.455 407.097 637.858 404.82 650.769H408.381H411.942C414.095 638.559 417.84 628.106 423.081 619.328L420.029 617.986ZM408.381 650.769H404.82C402.544 663.68 402.542 675.083 404.941 684.894L408.467 683.552L411.994 682.209C409.848 673.432 409.789 662.979 411.942 650.769H408.381ZM408.467 683.552L404.941 684.894C407.354 694.764 412.233 702.539 419.635 708.069L422.131 705.156L424.628 702.243C418.356 697.557 414.126 690.93 411.994 682.209L408.467 683.552ZM422.131 705.156L419.648 708.079C427.199 713.65 437.19 716.325 449.369 716.325L449.988 712.818L450.606 709.311C439.488 709.311 430.908 706.878 424.615 702.233L422.131 705.156ZM449.988 712.818L449.369 716.325C462.707 716.325 474.509 713.121 484.532 706.429L482.853 703.649L481.173 700.868C472.885 706.402 462.777 709.311 450.606 709.311L449.988 712.818ZM482.853 703.649L484.532 706.429C494.439 699.815 502.176 690.665 507.788 679.182L504.567 678.151L501.345 677.12C496.317 687.408 489.578 695.257 481.173 700.868L482.853 703.649ZM504.567 678.151L503.019 681.53L536.283 691.076L537.83 687.697L539.378 684.318L506.114 674.772L504.567 678.151ZM537.83 687.697L534.64 686.602C526.007 703.531 513.97 716.847 498.505 726.688L500.1 729.523L501.695 732.359C518.602 721.6 531.718 707.032 541.02 688.791L537.83 687.697ZM500.1 729.523L498.495 726.694C483.206 736.474 465.416 741.466 444.936 741.466L444.318 744.973L443.7 748.479C465.395 748.479 484.792 743.172 501.705 732.353L500.1 729.523ZM546.275 741.205H542.714L542.096 744.711H545.657L546.275 741.205ZM578.168 560.333L578.786 556.827H575.225L574.607 560.333H578.168ZM698.058 560.333H701.619L702.237 556.827H698.676L698.058 560.333ZM692.432 592.237L691.814 595.744H695.375L695.993 592.237H692.432ZM607.234 592.237L607.852 588.73H604.291L603.673 592.237H607.234ZM600.412 630.923H596.852L596.233 634.43H599.794L600.412 630.923ZM670.306 630.923H673.867L674.485 627.417H670.924L670.306 630.923ZM664.68 662.827L664.062 666.334H667.623L668.241 662.827H664.68ZM594.787 662.827L595.405 659.32H591.844L591.226 662.827H594.787ZM586.592 709.301H583.032L582.413 712.808H585.974L586.592 709.301ZM671.791 709.301H675.352L675.97 705.794H672.409L671.791 709.301ZM666.165 741.205L665.547 744.711H669.108L669.726 741.205H666.165ZM546.275 741.205H549.836L581.728 560.333H578.168H574.607L542.714 741.205H546.275ZM578.168 560.333L577.549 563.84H697.44L698.058 560.333L698.676 556.827H578.786L578.168 560.333ZM698.058 560.333H694.497L688.872 592.237H692.432H695.993L701.619 560.333H698.058ZM692.432 592.237L693.051 588.73H607.852L607.234 592.237L606.616 595.744H691.814L692.432 592.237ZM607.234 592.237H603.673L596.852 630.923H600.412H603.973L610.795 592.237H607.234ZM600.412 630.923L599.794 634.43H669.688L670.306 630.923L670.924 627.417H601.031L600.412 630.923ZM670.306 630.923H666.745L661.12 662.827H664.68H668.241L673.867 630.923H670.306ZM664.68 662.827L665.299 659.32H595.405L594.787 662.827L594.169 666.334H664.062L664.68 662.827ZM594.787 662.827H591.226L583.032 709.301H586.592H590.153L598.348 662.827H594.787ZM586.592 709.301L585.974 712.808H671.173L671.791 709.301L672.409 705.794H587.211L586.592 709.301ZM671.791 709.301H668.23L662.605 741.205H666.165H669.726L675.352 709.301H671.791ZM666.165 741.205L666.784 737.698H546.894L546.275 741.205L545.657 744.711H665.547L666.165 741.205Z" fill="#0F1D40" fill-opacity="0.09" mask="url(#path-1-outside-1_66_34)"/>
<path d="M748.797 741.205L780.689 560.333H858.235C860.021 560.333 862.387 560.417 865.333 560.584C868.379 560.668 871.056 560.919 873.363 561.338C884.036 563.013 892.379 566.572 898.392 572.014C904.49 577.457 908.466 584.324 910.32 592.614C912.189 600.82 912.23 609.989 910.444 620.121C908.657 630.253 905.333 639.464 900.47 647.754C895.707 655.961 889.317 662.785 881.299 668.228C873.367 673.671 863.812 677.23 852.633 678.904C850.193 679.239 847.428 679.491 844.337 679.658C841.247 679.826 838.851 679.909 837.151 679.909H794.296L783.488 741.205H748.797ZM799.922 648.006H841.246C843.031 648.006 845.002 647.922 847.157 647.754C849.312 647.587 851.327 647.252 853.201 646.75C858.099 645.494 862.082 643.4 865.15 640.469C868.232 637.455 870.558 634.147 872.128 630.546C873.798 626.862 874.921 623.387 875.497 620.121C876.073 616.856 876.168 613.422 875.783 609.822C875.497 606.137 874.337 602.83 872.303 599.899C870.284 596.884 867.047 594.749 862.592 593.493C860.895 592.991 858.998 592.656 856.902 592.488C854.806 592.321 852.865 592.237 851.079 592.237H809.755L799.922 648.006ZM904.498 741.205L936.391 560.333H1056.28L1050.66 592.237H965.457L958.636 630.923H1028.53L1022.9 662.827H953.01L944.816 709.301H1030.01L1024.39 741.205H904.498ZM1044.76 741.205L1076.65 560.333H1154.19C1155.98 560.333 1158.35 560.417 1161.29 560.584C1164.34 560.668 1167.02 560.919 1169.32 561.338C1180 563.013 1188.34 566.572 1194.35 572.014C1200.45 577.457 1204.42 584.324 1206.28 592.614C1208.15 600.82 1208.19 609.989 1206.4 620.121C1203.73 635.278 1197.62 648.257 1188.06 659.059C1178.52 669.777 1165.36 676.392 1148.59 678.904L1133.11 679.909H1090.26L1079.45 741.205H1044.76ZM1148.32 741.205L1125.08 667.6L1161.98 660.817L1187.6 741.205H1148.32ZM1095.88 648.006H1137.2C1138.99 648.006 1140.96 647.922 1143.12 647.754C1145.27 647.587 1147.29 647.252 1149.16 646.75C1154.06 645.494 1158.04 643.4 1161.11 640.469C1164.19 637.455 1166.52 634.147 1168.09 630.546C1169.76 626.862 1170.88 623.387 1171.46 620.121C1172.03 616.856 1172.13 613.422 1171.74 609.822C1171.46 606.137 1170.3 602.83 1168.26 599.899C1166.24 596.884 1163.01 594.749 1158.55 593.493C1156.85 592.991 1154.96 592.656 1152.86 592.488C1150.76 592.321 1148.82 592.237 1147.04 592.237H1105.71L1095.88 648.006ZM1205.44 741.205L1237.33 560.333H1349.57L1343.55 594.498H1266L1259.09 633.687H1321.33L1315.31 667.851H1253.07L1240.13 741.205H1205.44ZM1408.66 744.973C1390.29 744.973 1375.13 741.037 1363.17 733.166C1351.29 725.295 1342.99 714.283 1338.25 700.132C1333.61 685.98 1332.94 669.526 1336.24 650.769C1339.55 632.012 1346.02 615.558 1355.66 601.406C1365.38 587.255 1377.57 576.243 1392.22 568.372C1406.96 560.501 1423.51 556.565 1441.88 556.565C1460.25 556.565 1475.37 560.501 1487.24 568.372C1499.21 576.243 1507.51 587.255 1512.16 601.406C1516.89 615.558 1517.6 632.012 1514.29 650.769C1510.99 669.526 1504.47 685.98 1494.75 700.132C1485.11 714.283 1472.92 725.295 1458.19 733.166C1443.53 741.037 1427.02 744.973 1408.66 744.973ZM1414.33 712.818C1425.95 712.985 1436.08 710.515 1444.71 705.407C1453.35 700.299 1460.41 693.056 1465.89 683.677C1471.46 674.299 1475.35 663.329 1477.56 650.769C1479.78 638.208 1479.74 627.323 1477.45 618.112C1475.25 608.901 1470.73 601.741 1463.89 596.633C1457.06 591.525 1447.83 588.887 1436.21 588.72C1424.59 588.553 1414.46 591.023 1405.82 596.131C1397.19 601.239 1390.08 608.482 1384.52 617.86C1379.04 627.239 1375.19 638.208 1372.98 650.769C1370.76 663.329 1370.76 674.215 1372.96 683.426C1375.24 692.637 1379.81 699.797 1386.64 704.905C1393.48 710.013 1402.71 712.65 1414.33 712.818ZM1513.6 741.205L1545.5 560.333H1623.04C1624.83 560.333 1627.2 560.417 1630.14 560.584C1633.19 560.668 1635.86 560.919 1638.17 561.338C1648.84 563.013 1657.19 566.572 1663.2 572.014C1669.3 577.457 1673.27 584.324 1675.13 592.614C1677 600.82 1677.04 609.989 1675.25 620.121C1672.58 635.278 1666.46 648.257 1656.91 659.059C1647.37 669.777 1634.21 676.392 1617.44 678.904L1601.96 679.909H1559.1L1548.3 741.205H1513.6ZM1617.17 741.205L1593.93 667.6L1630.83 660.817L1656.45 741.205H1617.17ZM1564.73 648.006H1606.05C1607.84 648.006 1609.81 647.922 1611.97 647.754C1614.12 647.587 1616.14 647.252 1618.01 646.75C1622.91 645.494 1626.89 643.4 1629.96 640.469C1633.04 637.455 1635.37 634.147 1636.94 630.546C1638.61 626.862 1639.73 623.387 1640.31 620.121C1640.88 616.856 1640.98 613.422 1640.59 609.822C1640.31 606.137 1639.15 602.83 1637.11 599.899C1635.09 596.884 1631.86 594.749 1627.4 593.493C1625.7 592.991 1623.81 592.656 1621.71 592.488C1619.61 592.321 1617.67 592.237 1615.89 592.237H1574.56L1564.73 648.006ZM1674.29 741.205L1706.18 560.333H1737.3L1776.84 680.412L1858.72 560.333H1889.84L1857.95 741.205H1825.55L1844.6 633.184L1772.24 741.205H1760L1725.73 633.184L1706.68 741.205H1674.29ZM1870.79 741.205L1958.81 560.333H2010.59L2034.81 741.205H1999.1L1977.23 581.686H1983.87L1906.51 741.205H1870.79ZM1911.11 703.523L1916.74 671.619H2013.67L2008.04 703.523H1911.11ZM2047.47 741.205L2079.36 560.333H2114.57L2173.15 680.914L2194.41 560.333H2229.61L2197.72 741.205H2162.51L2103.93 620.624L2082.67 741.205H2047.47ZM2301.26 744.973C2282.89 744.973 2267.73 741.037 2255.77 733.166C2243.89 725.295 2235.59 714.283 2230.85 700.132C2226.21 685.98 2225.54 669.526 2228.84 650.769C2232.15 632.012 2238.62 615.558 2248.26 601.406C2257.98 587.255 2270.17 576.243 2284.82 568.372C2299.56 560.501 2316.11 556.565 2334.48 556.565C2355.57 556.565 2372.34 561.715 2384.81 572.014C2397.37 582.314 2405.03 596.256 2407.79 613.841L2371.16 623.387C2369.7 612.417 2365.46 603.918 2358.44 597.889C2351.44 591.776 2341.56 588.72 2328.81 588.72C2317.16 588.72 2306.98 591.274 2298.25 596.382C2289.61 601.49 2282.52 608.691 2276.97 617.986C2271.42 627.281 2267.54 638.208 2265.32 650.769C2263.11 663.329 2263.14 674.257 2265.41 683.552C2267.68 692.847 2272.24 700.048 2279.07 705.156C2285.99 710.264 2295.28 712.818 2306.93 712.818C2319.68 712.818 2330.64 709.761 2339.79 703.649C2348.95 697.536 2356.19 689.037 2361.51 678.151L2394.77 687.697C2385.8 705.282 2373.23 719.224 2357.04 729.523C2340.94 739.823 2322.35 744.973 2301.26 744.973ZM2403.22 741.205L2435.11 560.333H2555L2549.37 592.237H2464.17L2457.35 630.923H2527.25L2521.62 662.827H2451.73L2443.53 709.301H2528.73L2523.11 741.205H2403.22Z" fill="#0F1D40" fill-opacity="0.04"/>
</g>
<defs>
<clipPath id="clip0_66_34">
<rect width="1533" height="706" fill="white"/>
</clipPath>
</defs>
</svg>
