<svg width="1860" height="950" viewBox="0 0 1860 950" fill="none" xmlns="http://www.w3.org/2000/svg">
<g clip-path="url(#clip0_31_118)">
<path d="M992.867 -224.672C1006.14 -377.397 1047.6 -437.356 1162.1 -469.392C1400.93 -536.22 1643.35 -270.656 1817.87 -137.889C1952.65 -35.3402 2102.07 100.181 2045.83 287.741C1982.58 498.81 1687.5 593.221 1520.97 455.446C1401.56 356.619 1356.01 352.922 1205.86 429.869C1039.04 515.36 948.892 507.779 875.112 402.052C816.812 318.556 829.31 218.306 874.726 133.147C977.766 -60.0715 978.855 -63.3432 992.867 -224.672Z" fill="#0E3FDF"/>
<path d="M432.933 57.7604C306.767 -1.87441 266.336 -142.52 357.375 -220.715C513.306 -354.652 748.334 -257.357 914.183 -321.316C1007.36 -357.248 1123.15 -385.552 1217.52 -337.075C1289.29 -300.19 1351.88 -220.715 1317.26 -111.735C1282.64 -2.75531 1209.24 20.2209 1239.55 144.041C1262.35 237.254 1264.23 274.732 1228.74 311.04C1151.85 389.678 976.425 257.11 910.34 204.568C773.591 95.8655 584.372 129.381 432.933 57.7604Z" fill="#CC1242"/>
</g>
<defs>
<clipPath id="clip0_31_118">
<rect width="1860" height="950" fill="white"/>
</clipPath>
</defs>
</svg>
