<svg width="1920" height="1080" viewBox="0 0 1920 1080" fill="none" xmlns="http://www.w3.org/2000/svg">
<g opacity="0.4" clip-path="url(#clip0_47_1334)">
<path d="M872.615 -265.976L948.708 18.0066" stroke="white"/>
<path d="M1800.9 -210.336L1876.99 73.6458" stroke="white"/>
<path d="M1896.04 -235.83L1972.13 48.1521" stroke="white"/>
<path d="M2100.65 -37.272L1816.67 38.8208" stroke="white"/>
<path d="M1232.93 -58.1509L1309.02 225.831" stroke="white"/>
<path d="M1482.09 -73.9248L1198.11 2.16799" stroke="white"/>
<path d="M1328.08 -83.6445L1404.17 200.338" stroke="white"/>
<path d="M1507.58 21.2188L1223.6 97.3115" stroke="white"/>
<path d="M1421.77 -108.75L1497.86 175.232" stroke="white"/>
<path d="M1532.69 114.914L1248.71 191.006" stroke="white"/>
<path d="M1516.67 -134.179L1592.77 149.803" stroke="white"/>
<path d="M1611.82 -159.673L1687.91 124.309" stroke="white"/>
<path d="M1791.32 -54.8096L1507.34 21.2832" stroke="white"/>
<path d="M1705.51 -184.778L1781.6 99.2039" stroke="white"/>
<path d="M1816.43 38.8853L1532.45 114.978" stroke="white"/>
<path d="M948.708 18.0068L1024.8 301.989" stroke="white"/>
<path d="M1197.87 2.23291L913.883 78.3257" stroke="white"/>
<path d="M1043.85 -7.48682L1119.94 276.495" stroke="white"/>
<path d="M1223.36 97.3765L939.376 173.469" stroke="white"/>
<path d="M1137.55 -32.5923L1213.64 251.39" stroke="white"/>
<path d="M1248.46 191.071L964.482 267.164" stroke="white"/>
<path d="M1876.99 73.6455L1953.08 357.628" stroke="white"/>
<path d="M2126.15 57.8716L1842.16 133.964" stroke="white"/>
<path d="M2151.64 153.015L1867.66 229.108" stroke="white"/>
<path d="M2176.75 246.71L1892.76 322.803" stroke="white"/>
<path d="M1309.02 225.831L1385.12 509.813" stroke="white"/>
<path d="M1558.18 210.057L1274.2 286.15" stroke="white"/>
<path d="M1404.17 200.337L1480.26 484.32" stroke="white"/>
<path d="M1583.67 305.201L1299.69 381.293" stroke="white"/>
<path d="M1497.86 175.232L1573.96 459.214" stroke="white"/>
<path d="M1608.78 398.896L1324.8 474.988" stroke="white"/>
<path d="M1461.21 793.795L1537.3 1077.78" stroke="white"/>
<path d="M1710.37 778.021L1426.38 854.114" stroke="white"/>
<path d="M1556.35 768.302L1632.45 1052.28" stroke="white"/>
<path d="M1735.86 873.165L1451.88 949.258" stroke="white"/>
<path d="M1650.05 743.196L1726.14 1027.18" stroke="white"/>
<path d="M1760.97 966.86L1476.98 1042.95" stroke="white"/>
<path d="M1592.77 149.803L1668.86 433.785" stroke="white"/>
<path d="M1841.92 134.029L1557.94 210.122" stroke="white"/>
<path d="M1687.91 124.309L1764 408.291" stroke="white"/>
<path d="M1867.42 229.172L1583.43 305.265" stroke="white"/>
<path d="M1781.6 99.2036L1857.7 383.186" stroke="white"/>
<path d="M1892.52 322.867L1608.54 398.96" stroke="white"/>
<path d="M1744.95 717.768L1821.04 1001.75" stroke="white"/>
<path d="M1994.11 701.994L1710.13 778.086" stroke="white"/>
<path d="M1840.09 692.274L1916.19 976.256" stroke="white"/>
<path d="M2019.6 797.137L1735.62 873.23" stroke="white"/>
<path d="M2044.71 890.832L1760.72 966.925" stroke="white"/>
<path d="M1024.8 301.989L1100.89 585.971" stroke="white"/>
<path d="M1273.96 286.215L989.976 362.308" stroke="white"/>
<path d="M1119.94 276.495L1196.04 560.477" stroke="white"/>
<path d="M1299.45 381.358L1015.47 457.451" stroke="white"/>
<path d="M1213.64 251.39L1289.73 535.372" stroke="white"/>
<path d="M1324.56 475.053L1040.57 551.146" stroke="white"/>
<path d="M1176.99 869.953L1253.08 1153.94" stroke="white"/>
<path d="M1426.14 854.179L1142.16 930.272" stroke="white"/>
<path d="M1272.13 844.459L1348.22 1128.44" stroke="white"/>
<path d="M1451.64 949.323L1167.65 1025.42" stroke="white"/>
<path d="M1365.82 819.354L1441.92 1103.34" stroke="white"/>
<path d="M1476.74 1043.02L1192.76 1119.11" stroke="white"/>
<path d="M2202.24 341.854L1918.26 417.946" stroke="white"/>
<path d="M1385.12 509.813L1461.21 793.795" stroke="white"/>
<path d="M1634.27 494.039L1350.29 570.132" stroke="white"/>
<path d="M1480.26 484.319L1556.35 768.302" stroke="white"/>
<path d="M1659.77 589.183L1375.79 665.275" stroke="white"/>
<path d="M1573.96 459.214L1650.05 743.196" stroke="white"/>
<path d="M1684.87 682.877L1400.89 758.97" stroke="white"/>
<path d="M1537.3 1077.78L1613.4 1361.76" stroke="white"/>
<path d="M1786.46 1062L1502.48 1138.1" stroke="white"/>
<path d="M1632.45 1052.28L1708.54 1336.27" stroke="white"/>
<path d="M1726.14 1027.18L1802.23 1311.16" stroke="white"/>
<path d="M1668.86 433.785L1744.95 717.767" stroke="white"/>
<path d="M1918.02 418.011L1634.03 494.104" stroke="white"/>
<path d="M1764 408.292L1840.09 692.274" stroke="white"/>
<path d="M1943.51 513.155L1659.53 589.248" stroke="white"/>
<path d="M1857.7 383.186L1933.79 667.168" stroke="white"/>
<path d="M1968.61 606.85L1684.63 682.942" stroke="white"/>
<path d="M1821.04 1001.75L1897.14 1285.73" stroke="white"/>
<path d="M2070.2 985.976L1786.22 1062.07" stroke="white"/>
<path d="M1916.19 976.256L1992.28 1260.24" stroke="white"/>
<path d="M1100.89 585.971L1176.99 869.953" stroke="white"/>
<path d="M1350.05 570.197L1066.07 646.29" stroke="white"/>
<path d="M1196.04 560.477L1272.13 844.459" stroke="white"/>
<path d="M1375.54 665.34L1091.56 741.433" stroke="white"/>
<path d="M1289.73 535.372L1365.82 819.354" stroke="white"/>
<path d="M1400.65 759.035L1116.67 835.128" stroke="white"/>
<path d="M588.875 -189.948L664.968 94.0344" stroke="white"/>
<path d="M684.019 -215.441L760.111 68.5408" stroke="white"/>
<path d="M777.713 -240.547L853.806 43.4353" stroke="white"/>
<path d="M888.631 -16.8833L604.649 59.2095" stroke="white"/>
<path d="M20.9102 -37.7622L97.003 246.22" stroke="white"/>
<path d="M270.067 -53.5361L-13.9148 22.5567" stroke="white"/>
<path d="M116.054 -63.2559L192.147 220.726" stroke="white"/>
<path d="M295.561 41.6074L11.5784 117.7" stroke="white"/>
<path d="M209.748 -88.3613L285.841 195.621" stroke="white"/>
<path d="M320.666 135.302L36.6838 211.395" stroke="white"/>
<path d="M304.651 -113.79L380.744 170.192" stroke="white"/>
<path d="M399.795 -139.284L475.888 144.698" stroke="white"/>
<path d="M579.302 -34.4204L295.32 41.6724" stroke="white"/>
<path d="M493.489 -164.389L569.582 119.593" stroke="white"/>
<path d="M604.407 59.2744L320.425 135.367" stroke="white"/>
<path d="M11.3369 117.765L-272.645 193.858" stroke="white"/>
<path d="M-74.4756 -12.2036L1.61721 271.779" stroke="white"/>
<path d="M36.4424 211.46L-247.54 287.553" stroke="white"/>
<path d="M664.968 94.0347L741.061 378.017" stroke="white"/>
<path d="M914.125 78.2607L630.143 154.354" stroke="white"/>
<path d="M760.111 68.541L836.204 352.523" stroke="white"/>
<path d="M939.618 173.404L655.636 249.497" stroke="white"/>
<path d="M853.806 43.4355L929.898 327.418" stroke="white"/>
<path d="M964.724 267.099L680.741 343.192" stroke="white"/>
<path d="M97.0029 246.22L173.096 530.202" stroke="white"/>
<path d="M346.16 230.446L62.178 306.539" stroke="white"/>
<path d="M192.146 220.727L268.239 504.709" stroke="white"/>
<path d="M371.653 325.59L87.6711 401.683" stroke="white"/>
<path d="M285.841 195.621L361.934 479.603" stroke="white"/>
<path d="M396.759 419.285L112.777 495.377" stroke="white"/>
<path d="M380.744 170.192L456.837 454.174" stroke="white"/>
<path d="M629.901 154.418L345.919 230.511" stroke="white"/>
<path d="M475.888 144.698L551.98 428.68" stroke="white"/>
<path d="M655.395 249.562L371.412 325.654" stroke="white"/>
<path d="M569.582 119.593L645.675 403.575" stroke="white"/>
<path d="M680.5 343.256L396.518 419.349" stroke="white"/>
<path d="M61.9365 306.604L-222.046 382.697" stroke="white"/>
<path d="M87.4297 401.748L-196.553 477.84" stroke="white"/>
<path d="M1.61719 271.779L77.71 555.761" stroke="white"/>
<path d="M112.535 495.442L-171.447 571.535" stroke="white"/>
<path d="M741.061 378.017L817.153 661.999" stroke="white"/>
<path d="M990.218 362.243L706.236 438.336" stroke="white"/>
<path d="M836.204 352.523L912.297 636.506" stroke="white"/>
<path d="M1015.71 457.387L731.729 533.48" stroke="white"/>
<path d="M929.898 327.418L1005.99 611.4" stroke="white"/>
<path d="M1040.82 551.082L756.834 627.174" stroke="white"/>
<path d="M893.246 945.981L969.339 1229.96" stroke="white"/>
<path d="M1142.4 930.208L858.421 1006.3" stroke="white"/>
<path d="M988.39 920.488L1064.48 1204.47" stroke="white"/>
<path d="M1167.9 1025.35L883.914 1101.44" stroke="white"/>
<path d="M1082.08 895.382L1158.18 1179.36" stroke="white"/>
<path d="M173.096 530.203L249.189 814.185" stroke="white"/>
<path d="M422.253 514.429L138.271 590.522" stroke="white"/>
<path d="M268.239 504.709L344.332 788.691" stroke="white"/>
<path d="M447.746 609.572L163.764 685.665" stroke="white"/>
<path d="M361.934 479.604L438.026 763.586" stroke="white"/>
<path d="M472.852 703.267L188.869 779.36" stroke="white"/>
<path d="M420.425 1072.67L496.518 1356.66" stroke="white"/>
<path d="M514.119 1047.57L590.212 1331.55" stroke="white"/>
<path d="M456.837 454.174L532.93 738.157" stroke="white"/>
<path d="M705.994 438.4L422.012 514.493" stroke="white"/>
<path d="M551.98 428.681L628.073 712.663" stroke="white"/>
<path d="M731.487 533.544L447.505 609.637" stroke="white"/>
<path d="M645.675 403.575L721.768 687.557" stroke="white"/>
<path d="M756.593 627.239L472.611 703.332" stroke="white"/>
<path d="M609.022 1022.14L685.115 1306.12" stroke="white"/>
<path d="M858.18 1006.37L574.197 1082.46" stroke="white"/>
<path d="M704.166 996.646L780.259 1280.63" stroke="white"/>
<path d="M797.86 971.54L873.953 1255.52" stroke="white"/>
<path d="M138.029 590.586L-145.953 666.679" stroke="white"/>
<path d="M-15.9844 580.867L60.1084 864.849" stroke="white"/>
<path d="M163.522 685.73L-120.46 761.823" stroke="white"/>
<path d="M77.71 555.761L153.803 839.743" stroke="white"/>
<path d="M188.628 779.425L-95.3543 855.518" stroke="white"/>
<path d="M817.153 661.999L893.246 945.981" stroke="white"/>
<path d="M1066.31 646.225L782.328 722.318" stroke="white"/>
<path d="M912.297 636.505L988.39 920.488" stroke="white"/>
<path d="M1091.8 741.369L807.822 817.461" stroke="white"/>
<path d="M1005.99 611.4L1082.08 895.382" stroke="white"/>
<path d="M1116.91 835.063L832.927 911.156" stroke="white"/>
<path d="M249.188 814.185L325.281 1098.17" stroke="white"/>
<path d="M498.346 798.411L214.364 874.503" stroke="white"/>
<path d="M344.332 788.691L420.425 1072.67" stroke="white"/>
<path d="M523.839 893.554L239.857 969.647" stroke="white"/>
<path d="M438.026 763.585L514.119 1047.57" stroke="white"/>
<path d="M548.944 987.249L264.962 1063.34" stroke="white"/>
<path d="M532.93 738.157L609.022 1022.14" stroke="white"/>
<path d="M782.087 722.383L498.105 798.476" stroke="white"/>
<path d="M628.073 712.663L704.166 996.645" stroke="white"/>
<path d="M807.58 817.526L523.598 893.619" stroke="white"/>
<path d="M721.768 687.558L797.86 971.54" stroke="white"/>
<path d="M832.686 911.221L548.703 987.314" stroke="white"/>
<path d="M-35.0352 890.342L41.0576 1174.32" stroke="white"/>
<path d="M214.122 874.568L-69.8601 950.661" stroke="white"/>
<path d="M60.1084 864.849L136.201 1148.83" stroke="white"/>
<path d="M239.615 969.712L-44.367 1045.8" stroke="white"/>
<path d="M153.803 839.743L229.896 1123.73" stroke="white"/>
<path d="M264.721 1063.41L-19.2615 1139.5" stroke="white"/>
</g>
<defs>
<clipPath id="clip0_47_1334">
<rect width="1920" height="1080" fill="white"/>
</clipPath>
</defs>
</svg>
