<svg xmlns="http://www.w3.org/2000/svg"  viewBox="0 0 24 24" width="500px" height="500px"><path d="M20,7c-0.724,0-1.421,0.197-2.043,0.574c-1.49-0.884-3.269-1.394-5.115-1.52c0.77-1.637,2.287-2.227,3.265-2.436	C16.369,4.418,17.113,5,18,5c1.105,0,2-0.895,2-2c0-1.105-0.895-2-2-2c-0.976,0-1.786,0.7-1.962,1.625	c-1.247,0.252-3.368,1.028-4.263,3.389c-2.066,0.038-4.075,0.578-5.732,1.56C5.421,7.197,4.724,7,4,7c-2.206,0-4,1.794-4,4	c0,1.452,0.777,2.768,2.018,3.474C2.325,18.666,6.685,22,12,22s9.675-3.334,9.982-7.527C23.223,13.768,24,12.452,24,11	C24,8.794,22.206,7,20,7z M5.628,12.997C5.628,11.951,6.646,11,7.449,11c1.046,0,1.611,0.894,1.611,1.997	c0,1.868-0.768,1.997-1.716,1.997C6.094,14.994,5.628,14.355,5.628,12.997z M12,18.891c-2.018,0-3.654-1.711-3.654-2.514	c0-0.444,1.636-0.393,3.654-0.393s3.654-0.069,3.654,0.393C15.654,17.18,14.018,18.891,12,18.891z M16.656,14.994	c-0.948,0-1.716-0.129-1.716-1.997c0-1.103,0.565-1.997,1.611-1.997c0.803,0,1.821,0.951,1.821,1.997	C18.372,14.355,17.906,14.994,16.656,14.994z"/></svg>